<?xml version="1.0" encoding="utf-8"?>
<!-- Generator: Adobe Illustrator 21.0.0, SVG Export Plug-In . SVG Version: 6.00 Build 0)  -->
<svg version="1.1" xmlns="http://www.w3.org/2000/svg" xmlns:xlink="http://www.w3.org/1999/xlink" x="0px" y="0px"
	 viewBox="0 0 1920 1080" style="enable-background:new 0 0 1920 1080;" xml:space="preserve">
<style type="text/css">
	.st0{display:none;}
	.st1{display:inline;}
	.st2{fill:#0CCC00;}
	.st3{fill:#FFFFFF;}
	.st4{fill:url(#SVGID_1_);stroke:#000000;stroke-miterlimit:10;}
	.st5{fill:url(#SVGID_2_);stroke:#000000;stroke-miterlimit:10;}
	.st6{fill:url(#SVGID_3_);stroke:#000000;stroke-miterlimit:10;}
	.st7{fill:url(#SVGID_4_);stroke:#000000;stroke-miterlimit:10;}
	.st8{fill:#FFFFFF;stroke:#000000;stroke-miterlimit:10;}
	.st9{fill:url(#SVGID_5_);stroke:#000000;stroke-miterlimit:10;}
	.st10{fill:url(#SVGID_6_);stroke:#000000;stroke-miterlimit:10;}
	.st11{fill:url(#SVGID_7_);stroke:#000000;stroke-miterlimit:10;}
	.st12{fill:url(#SVGID_8_);stroke:#000000;stroke-miterlimit:10;}
	.st13{fill:url(#SVGID_9_);stroke:#000000;stroke-miterlimit:10;}
	.st14{fill:url(#SVGID_10_);stroke:#000000;stroke-miterlimit:10;}
	.st15{fill:url(#SVGID_11_);stroke:#000000;stroke-miterlimit:10;}
	.st16{fill:#BF272F;stroke:#000000;stroke-miterlimit:10;}
	.st17{fill:url(#SVGID_12_);stroke:#000000;stroke-miterlimit:10;}
	.st18{fill:url(#SVGID_13_);stroke:#000000;stroke-miterlimit:10;}
	.st19{fill:url(#SVGID_14_);stroke:#000000;stroke-miterlimit:10;}
	.st20{fill:url(#SVGID_15_);stroke:#000000;stroke-miterlimit:10;}
	.st21{fill:url(#SVGID_16_);stroke:#000000;stroke-miterlimit:10;}
	.st22{fill:url(#SVGID_17_);stroke:#000000;stroke-miterlimit:10;}
	.st23{fill:#BB262E;}
	.st24{fill:#B1242C;}
	.st25{enable-background:new    ;}
	.st26{fill:#A31A1A;}
	.st27{fill:#A72229;}
	.st28{fill:url(#SVGID_18_);stroke:#000000;stroke-miterlimit:10;}
	.st29{fill:#FEFEFE;stroke:#211915;stroke-miterlimit:10;}
	.st30{fill:url(#SVGID_19_);stroke:#000000;stroke-width:2;stroke-miterlimit:10;}
	.st31{fill:url(#SVGID_20_);stroke:#000000;stroke-width:2;stroke-miterlimit:10;}
	.st32{fill:url(#SVGID_21_);stroke:#000000;stroke-width:2;stroke-miterlimit:10;}
	.st33{fill:url(#SVGID_22_);stroke:#000000;stroke-width:2;stroke-miterlimit:10;}
	.st34{fill:url(#SVGID_23_);stroke:#000000;stroke-width:2;stroke-miterlimit:10;}
	.st35{fill:url(#SVGID_24_);stroke:#000000;stroke-width:2;stroke-miterlimit:10;}
	.st36{fill:url(#SVGID_25_);stroke:#000000;stroke-width:2;stroke-miterlimit:10;}
	.st37{fill:url(#SVGID_26_);stroke:#000000;stroke-width:2;stroke-miterlimit:10;}
	.st38{fill:url(#SVGID_27_);stroke:#000000;stroke-width:2;stroke-miterlimit:10;}
	.st39{fill:url(#SVGID_28_);stroke:#000000;stroke-width:2;stroke-miterlimit:10;}
	.st40{fill:url(#SVGID_29_);stroke:#000000;stroke-width:2;stroke-miterlimit:10;}
	.st41{fill:#BF272F;stroke:#000000;stroke-width:2;stroke-miterlimit:10;}
	.st42{fill:url(#SVGID_30_);stroke:#000000;stroke-width:2;stroke-miterlimit:10;}
	.st43{fill:url(#SVGID_31_);stroke:#000000;stroke-width:2;stroke-miterlimit:10;}
	.st44{fill:url(#SVGID_32_);stroke:#000000;stroke-width:2;stroke-miterlimit:10;}
	.st45{fill:url(#SVGID_33_);stroke:#000000;stroke-width:2;stroke-miterlimit:10;}
	.st46{fill:url(#SVGID_34_);stroke:#000000;stroke-width:2;stroke-miterlimit:10;}
	.st47{fill:url(#SVGID_35_);stroke:#000000;stroke-width:2;stroke-miterlimit:10;}
	.st48{fill:url(#SVGID_36_);stroke:#000000;stroke-width:2;stroke-miterlimit:10;}
</style>
<g id="Capa_1" class="st0">
	<g id="Capa_1_1_">
		<g class="st1">
			<polygon class="st2" points="19,809 226.4,272.4 1903,272.4 1695.7,809 			"/>
		</g>
		<g class="st1">
			<path class="st3" d="M39.4,755.7h240.3l41.6-107.5l41.6-107.5l31.6-81.6l73.3,189l-104.9,0.2l-41.6,107.5l220.2-0.1l41.6-107.5
				l-41.6-107.5l-41.7-107.6L481.2,385c-13.8-35.8-48.2-59.3-86.6-59.3l0,0c-38.3,0-72.7,23.6-86.6,59.3l-18.6,48.1l-83.3,215.1
				H80.9L39.4,755.7z"/>
		</g>
		<g class="st1">
			<path class="st3" d="M583.1,755.6l315.5,0.1l0,0h0.1c45.9-0.1,83.1-37.3,83.1-83.2V570.1c0-46-37.3-83.2-83.2-83.2l0,0H624.7
				l41.6,107.6l205.4-0.1c14.9,0,26.9,12,26.9,26.9l0,0c0,14.8-12,26.9-26.8,26.9H857l-232.3-0.1L583.1,755.6z"/>
		</g>
		<g class="st1">
			<path class="st3" d="M981.8,325.8l-315.5-0.1l0,0h-0.1c-45.9,0.1-83.1,37.3-83.1,83.2v102.4c0,46,37.3,83.2,83.2,83.2l0,0h273.9
				l-41.6-107.6L693.2,487c-14.9,0-26.9-12-26.9-26.9l0,0c0-14.8,12-26.9,26.8-26.9h14.8l232.3,0.1L981.8,325.8z"/>
		</g>
		<g class="st1">
			<path class="st3" d="M981.8,433.2l288.7,0.2c14.8,0,26.8,12,26.8,26.8l0,0c0,14.8-12,26.8-26.8,26.8h-207.3l-41.6,107.5v161.3
				l107-0.1l0.9-161.3h73.1l62.7,161.5l115.2-0.1L1339,648.3l-19.5-53.9l0,0c33.7,0,61.1-27.4,61.1-61.1V386.8
				c0-33.7-27.4-61.1-61.1-61.1h-296L981.8,433.2z"/>
		</g>
		<g class="st1">
			<polygon class="st3" points="1380.6,433.5 1840.5,433.5 1757.4,648.4 1463.7,648.2 			"/>
		</g>
	</g>
	<g id="Capa_2" class="st1">
		
			<linearGradient id="SVGID_1_" gradientUnits="userSpaceOnUse" x1="384.55" y1="469" x2="384.55" y2="560.8" gradientTransform="matrix(1 0 0 -1 0 1080)">
			<stop  offset="0" style="stop-color:#383838"/>
			<stop  offset="8.226728e-02" style="stop-color:#3C3C3C"/>
			<stop  offset="0.1639" style="stop-color:#484848"/>
			<stop  offset="0.2452" style="stop-color:#5C5C5C"/>
			<stop  offset="0.3264" style="stop-color:#787878"/>
			<stop  offset="0.4076" style="stop-color:#9C9C9C"/>
			<stop  offset="0.4888" style="stop-color:#C8C8C8"/>
			<stop  offset="0.5685" style="stop-color:#FBFBFB"/>
			<stop  offset="0.5741" style="stop-color:#FFFFFF"/>
			<stop  offset="0.602" style="stop-color:#F9F9F9"/>
			<stop  offset="0.7536" style="stop-color:#E0E0E0"/>
			<stop  offset="0.8908" style="stop-color:#D0D0D0"/>
			<stop  offset="1" style="stop-color:#CBCBCB"/>
		</linearGradient>
		<path class="st4" d="M327.1,611v-62.1c0,0,1.1-29.7,27.5-29.7s64.3,0,64.3,0s23.1,4.9,23.1,22.5s0,69.3,0,69.3h-23.6v-27.5h-56.1
			v-23.6l56.6,0.1l0.1-13.2c0,0,1-4.7-3.4-4.7s-60.6,0-60.6,0s-3.7-0.8-3.7,3.8c0,4.7-0.3,65-0.3,65h-23.9V611z"/>
		
			<linearGradient id="SVGID_2_" gradientUnits="userSpaceOnUse" x1="505.1667" y1="467.5037" x2="505.1667" y2="560.8044" gradientTransform="matrix(1 0 0 -1 0 1080)">
			<stop  offset="0" style="stop-color:#383838"/>
			<stop  offset="8.226728e-02" style="stop-color:#3C3C3C"/>
			<stop  offset="0.1639" style="stop-color:#484848"/>
			<stop  offset="0.2452" style="stop-color:#5C5C5C"/>
			<stop  offset="0.3264" style="stop-color:#787878"/>
			<stop  offset="0.4076" style="stop-color:#9C9C9C"/>
			<stop  offset="0.4888" style="stop-color:#C8C8C8"/>
			<stop  offset="0.5685" style="stop-color:#FBFBFB"/>
			<stop  offset="0.5741" style="stop-color:#FFFFFF"/>
			<stop  offset="0.602" style="stop-color:#F9F9F9"/>
			<stop  offset="0.7536" style="stop-color:#E0E0E0"/>
			<stop  offset="0.8908" style="stop-color:#D0D0D0"/>
			<stop  offset="1" style="stop-color:#CBCBCB"/>
		</linearGradient>
		<path class="st5" d="M448.4,519.2h22.7v64.4c0,0-0.3,5.9,5.1,5.9s58.4,0,58.4,0s4.4,1.1,4.4-4.4s0-66,0-66h23.2V586
			c0,0-3.8,26.4-24.9,26.4c-21,0-64.7,0-64.7,0s-23.6,0.5-24.2-27.6S448.4,519.2,448.4,519.2z"/>
		
			<linearGradient id="SVGID_3_" gradientUnits="userSpaceOnUse" x1="621.5" y1="468.6" x2="621.5" y2="560.8" gradientTransform="matrix(1 0 0 -1 0 1080)">
			<stop  offset="0" style="stop-color:#383838"/>
			<stop  offset="8.226728e-02" style="stop-color:#3C3C3C"/>
			<stop  offset="0.1639" style="stop-color:#484848"/>
			<stop  offset="0.2452" style="stop-color:#5C5C5C"/>
			<stop  offset="0.3264" style="stop-color:#787878"/>
			<stop  offset="0.4076" style="stop-color:#9C9C9C"/>
			<stop  offset="0.4888" style="stop-color:#C8C8C8"/>
			<stop  offset="0.5685" style="stop-color:#FBFBFB"/>
			<stop  offset="0.5741" style="stop-color:#FFFFFF"/>
			<stop  offset="0.602" style="stop-color:#F9F9F9"/>
			<stop  offset="0.7536" style="stop-color:#E0E0E0"/>
			<stop  offset="0.8908" style="stop-color:#D0D0D0"/>
			<stop  offset="1" style="stop-color:#CBCBCB"/>
		</linearGradient>
		<polygon class="st6" points="568.7,519.2 674.3,519.2 674.3,542.3 633,542.3 633,611.4 609.6,611.4 609.7,542 568.7,542 		"/>
		
			<linearGradient id="SVGID_4_" gradientUnits="userSpaceOnUse" x1="736.95" y1="468.6037" x2="736.95" y2="560.8005" gradientTransform="matrix(1 0 0 -1 0 1080)">
			<stop  offset="0" style="stop-color:#383838"/>
			<stop  offset="8.226728e-02" style="stop-color:#3C3C3C"/>
			<stop  offset="0.1639" style="stop-color:#484848"/>
			<stop  offset="0.2452" style="stop-color:#5C5C5C"/>
			<stop  offset="0.3264" style="stop-color:#787878"/>
			<stop  offset="0.4076" style="stop-color:#9C9C9C"/>
			<stop  offset="0.4888" style="stop-color:#C8C8C8"/>
			<stop  offset="0.5685" style="stop-color:#FBFBFB"/>
			<stop  offset="0.5741" style="stop-color:#FFFFFF"/>
			<stop  offset="0.602" style="stop-color:#F9F9F9"/>
			<stop  offset="0.7536" style="stop-color:#E0E0E0"/>
			<stop  offset="0.8908" style="stop-color:#D0D0D0"/>
			<stop  offset="1" style="stop-color:#CBCBCB"/>
		</linearGradient>
		<path class="st7" d="M679.3,584.9V547c0,0,1.8-27.8,26.1-27.8s62.7,0,62.7,0s26.5,0.8,26.5,27.3v38.3c0,0-2.5,26.5-26,26.5
			s-64.3,0-64.3,0S679.3,607.3,679.3,584.9z"/>
		<path class="st8" d="M702.2,581.6v-31.3c0,0,1-8.1,6.5-8.1s55.4,0,55.4,0s7.6-0.5,7.6,9.1s0,30.4,0,30.4s1.2,8.2-9.8,8.2
			s-51.9,0-51.9,0S702.2,590.9,702.2,581.6z"/>
		
			<linearGradient id="SVGID_5_" gradientUnits="userSpaceOnUse" x1="856.05" y1="468.4" x2="856.05" y2="560.9" gradientTransform="matrix(1 0 0 -1 0 1080)">
			<stop  offset="0" style="stop-color:#383838"/>
			<stop  offset="8.226728e-02" style="stop-color:#3C3C3C"/>
			<stop  offset="0.1639" style="stop-color:#484848"/>
			<stop  offset="0.2452" style="stop-color:#5C5C5C"/>
			<stop  offset="0.3264" style="stop-color:#787878"/>
			<stop  offset="0.4076" style="stop-color:#9C9C9C"/>
			<stop  offset="0.4888" style="stop-color:#C8C8C8"/>
			<stop  offset="0.5685" style="stop-color:#FBFBFB"/>
			<stop  offset="0.5741" style="stop-color:#FFFFFF"/>
			<stop  offset="0.602" style="stop-color:#F9F9F9"/>
			<stop  offset="0.7536" style="stop-color:#E0E0E0"/>
			<stop  offset="0.8908" style="stop-color:#D0D0D0"/>
			<stop  offset="1" style="stop-color:#CBCBCB"/>
		</linearGradient>
		<path class="st9" d="M906.8,519.2v22.9h-78.5c0,0-4.3-0.4-4.4,5.8c0,0-1,5.9,4.3,6c5.2,0.1,58.5,0,58.5,0s24.5,2.3,24.5,29.3
			c0,26.9-23.9,28.4-24.6,28.4c-0.7,0-80.9-0.3-80.9-0.3v-22.5h78.9c0,0,3.6,0.4,3.6-5.6s-4.7-6-4.7-6L824,577
			c0,0-23.1-4.3-23.1-28.9c0-24.6,22-29,24.6-29C828.1,519.2,906.8,519.2,906.8,519.2z"/>
		
			<linearGradient id="SVGID_6_" gradientUnits="userSpaceOnUse" x1="974.8" y1="468.3" x2="974.8" y2="560.8" gradientTransform="matrix(1 0 0 -1 0 1080)">
			<stop  offset="0" style="stop-color:#383838"/>
			<stop  offset="8.226728e-02" style="stop-color:#3C3C3C"/>
			<stop  offset="0.1639" style="stop-color:#484848"/>
			<stop  offset="0.2452" style="stop-color:#5C5C5C"/>
			<stop  offset="0.3264" style="stop-color:#787878"/>
			<stop  offset="0.4076" style="stop-color:#9C9C9C"/>
			<stop  offset="0.4888" style="stop-color:#C8C8C8"/>
			<stop  offset="0.5685" style="stop-color:#FBFBFB"/>
			<stop  offset="0.5741" style="stop-color:#FFFFFF"/>
			<stop  offset="0.602" style="stop-color:#F9F9F9"/>
			<stop  offset="0.7536" style="stop-color:#E0E0E0"/>
			<stop  offset="0.8908" style="stop-color:#D0D0D0"/>
			<stop  offset="1" style="stop-color:#CBCBCB"/>
		</linearGradient>
		<path class="st10" d="M918.2,519.2h22.9V550c0,0-0.3,3.8,4.8,4c5.1,0.1,59.1,0,59.1,0s3.4-0.3,3.3-4c-0.1-3.7,0-30.8,0-30.8h23.1
			l-0.5,34.8c0,0-3.8,23.2-21.4,23.2s-22.8,0-22.8,0l-0.1,34.5h-22.9l-0.1-34.5l-22,0.1c0,0-23.2-5.6-23.2-23.2
			C918.2,536.5,918.2,519.2,918.2,519.2z"/>
		
			<linearGradient id="SVGID_7_" gradientUnits="userSpaceOnUse" x1="1097.5" y1="468.3" x2="1097.5" y2="560.8" gradientTransform="matrix(1 0 0 -1 0 1080)">
			<stop  offset="0" style="stop-color:#383838"/>
			<stop  offset="8.226728e-02" style="stop-color:#3C3C3C"/>
			<stop  offset="0.1639" style="stop-color:#484848"/>
			<stop  offset="0.2452" style="stop-color:#5C5C5C"/>
			<stop  offset="0.3264" style="stop-color:#787878"/>
			<stop  offset="0.4076" style="stop-color:#9C9C9C"/>
			<stop  offset="0.4888" style="stop-color:#C8C8C8"/>
			<stop  offset="0.5685" style="stop-color:#FBFBFB"/>
			<stop  offset="0.5741" style="stop-color:#FFFFFF"/>
			<stop  offset="0.602" style="stop-color:#F9F9F9"/>
			<stop  offset="0.7536" style="stop-color:#E0E0E0"/>
			<stop  offset="0.8908" style="stop-color:#D0D0D0"/>
			<stop  offset="1" style="stop-color:#CBCBCB"/>
		</linearGradient>
		<polygon class="st11" points="1037.8,519.2 1060.6,519.2 1097.9,570.7 1135.3,519.2 1157.2,519.2 1157.2,611.7 1135.2,611.7 
			1134.8,559.3 1098.1,609.7 1060.7,558.4 1060.4,611.7 1037.8,611.7 		"/>
		
			<linearGradient id="SVGID_8_" gradientUnits="userSpaceOnUse" x1="1221.6499" y1="468.9" x2="1221.6499" y2="561.0969" gradientTransform="matrix(1 0 0 -1 0 1080)">
			<stop  offset="0" style="stop-color:#383838"/>
			<stop  offset="8.226728e-02" style="stop-color:#3C3C3C"/>
			<stop  offset="0.1639" style="stop-color:#484848"/>
			<stop  offset="0.2452" style="stop-color:#5C5C5C"/>
			<stop  offset="0.3264" style="stop-color:#787878"/>
			<stop  offset="0.4076" style="stop-color:#9C9C9C"/>
			<stop  offset="0.4888" style="stop-color:#C8C8C8"/>
			<stop  offset="0.5685" style="stop-color:#FBFBFB"/>
			<stop  offset="0.5741" style="stop-color:#FFFFFF"/>
			<stop  offset="0.602" style="stop-color:#F9F9F9"/>
			<stop  offset="0.7536" style="stop-color:#E0E0E0"/>
			<stop  offset="0.8908" style="stop-color:#D0D0D0"/>
			<stop  offset="1" style="stop-color:#CBCBCB"/>
		</linearGradient>
		<path class="st12" d="M1164,584.7v-37.9c0,0,1.8-27.8,26.1-27.8c24.3,0,62.7,0,62.7,0s26.5,0.8,26.5,27.3v38.3
			c0,0-2.5,26.5-26,26.5s-64.3,0-64.3,0S1164,607.1,1164,584.7z"/>
		<path class="st8" d="M1187,581.4V550c0,0,1-8.1,6.5-8.1s55.4,0,55.4,0s7.6-0.5,7.6,9.1s0,30.4,0,30.4s1.2,8.2-9.8,8.2
			s-51.9,0-51.9,0S1187,590.7,1187,581.4z"/>
		
			<linearGradient id="SVGID_9_" gradientUnits="userSpaceOnUse" x1="1339.25" y1="468.5" x2="1339.25" y2="560.7" gradientTransform="matrix(1 0 0 -1 0 1080)">
			<stop  offset="0" style="stop-color:#383838"/>
			<stop  offset="8.226728e-02" style="stop-color:#3C3C3C"/>
			<stop  offset="0.1639" style="stop-color:#484848"/>
			<stop  offset="0.2452" style="stop-color:#5C5C5C"/>
			<stop  offset="0.3264" style="stop-color:#787878"/>
			<stop  offset="0.4076" style="stop-color:#9C9C9C"/>
			<stop  offset="0.4888" style="stop-color:#C8C8C8"/>
			<stop  offset="0.5685" style="stop-color:#FBFBFB"/>
			<stop  offset="0.5741" style="stop-color:#FFFFFF"/>
			<stop  offset="0.602" style="stop-color:#F9F9F9"/>
			<stop  offset="0.7536" style="stop-color:#E0E0E0"/>
			<stop  offset="0.8908" style="stop-color:#D0D0D0"/>
			<stop  offset="1" style="stop-color:#CBCBCB"/>
		</linearGradient>
		<polygon class="st13" points="1286.4,519.3 1392.1,519.3 1392.1,542.4 1350.8,542.4 1350.8,611.5 1327.4,611.5 1327.5,542.1 
			1286.4,542.1 		"/>
		
			<linearGradient id="SVGID_10_" gradientUnits="userSpaceOnUse" x1="1455.3499" y1="468.9472" x2="1455.3499" y2="561.144" gradientTransform="matrix(1 0 0 -1 0 1080)">
			<stop  offset="0" style="stop-color:#383838"/>
			<stop  offset="8.226728e-02" style="stop-color:#3C3C3C"/>
			<stop  offset="0.1639" style="stop-color:#484848"/>
			<stop  offset="0.2452" style="stop-color:#5C5C5C"/>
			<stop  offset="0.3264" style="stop-color:#787878"/>
			<stop  offset="0.4076" style="stop-color:#9C9C9C"/>
			<stop  offset="0.4888" style="stop-color:#C8C8C8"/>
			<stop  offset="0.5685" style="stop-color:#FBFBFB"/>
			<stop  offset="0.5741" style="stop-color:#FFFFFF"/>
			<stop  offset="0.602" style="stop-color:#F9F9F9"/>
			<stop  offset="0.7536" style="stop-color:#E0E0E0"/>
			<stop  offset="0.8908" style="stop-color:#D0D0D0"/>
			<stop  offset="1" style="stop-color:#CBCBCB"/>
		</linearGradient>
		<path class="st14" d="M1397.7,584.5v-37.9c0,0,1.8-27.8,26.1-27.8c24.3,0,62.7,0,62.7,0s26.5,0.8,26.5,27.3v38.3
			c0,0-2.5,26.5-26,26.5s-64.3,0-64.3,0S1397.7,606.9,1397.7,584.5z"/>
		<path class="st8" d="M1420.7,581.2v-31.3c0,0,1-8.1,6.5-8.1s55.4,0,55.4,0s7.6-0.5,7.6,9.1s0,30.4,0,30.4s1.2,8.2-9.8,8.2
			s-51.9,0-51.9,0S1420.7,590.6,1420.7,581.2z"/>
		
			<linearGradient id="SVGID_11_" gradientUnits="userSpaceOnUse" x1="1574.55" y1="468.7" x2="1574.55" y2="561.1" gradientTransform="matrix(1 0 0 -1 0 1080)">
			<stop  offset="0" style="stop-color:#383838"/>
			<stop  offset="8.226728e-02" style="stop-color:#3C3C3C"/>
			<stop  offset="0.1639" style="stop-color:#484848"/>
			<stop  offset="0.2452" style="stop-color:#5C5C5C"/>
			<stop  offset="0.3264" style="stop-color:#787878"/>
			<stop  offset="0.4076" style="stop-color:#9C9C9C"/>
			<stop  offset="0.4888" style="stop-color:#C8C8C8"/>
			<stop  offset="0.5685" style="stop-color:#FBFBFB"/>
			<stop  offset="0.5741" style="stop-color:#FFFFFF"/>
			<stop  offset="0.602" style="stop-color:#F9F9F9"/>
			<stop  offset="0.7536" style="stop-color:#E0E0E0"/>
			<stop  offset="0.8908" style="stop-color:#D0D0D0"/>
			<stop  offset="1" style="stop-color:#CBCBCB"/>
		</linearGradient>
		<path class="st15" d="M1625.3,518.9v22.9h-78.5c0,0-4.3-0.4-4.4,5.8c0,0-1,5.9,4.3,6c5.2,0.1,58.5,0,58.5,0s24.5,2.3,24.5,29.3
			c0,26.9-23.9,28.4-24.6,28.4s-80.9-0.3-80.9-0.3v-22.5h78.9c0,0,3.6,0.4,3.6-5.6s-4.7-6-4.7-6l-59.5-0.1c0,0-23.1-4.3-23.1-28.9
			s22-29,24.6-29C1546.6,518.9,1625.3,518.9,1625.3,518.9z"/>
		<path class="st16" d="M691.2,673.4v-21.9c0,0,1-16,14.5-16s34.7,0,34.7,0s14.7,0.5,14.7,15.8v22.2c0,0-1.4,15.3-14.4,15.3
			s-35.6,0-35.6,0S691.2,686.4,691.2,673.4z"/>
		<path class="st8" d="M703.9,670v-17.3c0,0,0.5-4.5,3.6-4.5c3,0,30.7,0,30.7,0s4.2-0.3,4.2,5s0,16.8,0,16.8s0.7,4.6-5.4,4.6
			c-6.1,0-28.8,0-28.8,0S703.9,675.2,703.9,670z"/>
		<path class="st16" d="M1077,673.1v-21c0,0,1-15.4,14.5-15.4s34.7,0,34.7,0s14.7,0.5,14.7,15.1V673c0,0-1.4,14.7-14.4,14.7
			s-35.6,0-35.6,0S1077,685.5,1077,673.1z"/>
		<path class="st8" d="M1089.7,671.2v-17.3c0,0,0.5-4.5,3.6-4.5s30.7,0,30.7,0s4.2-0.3,4.2,5s0,16.8,0,16.8s0.7,4.6-5.4,4.6
			s-28.8,0-28.8,0S1089.7,676.4,1089.7,671.2z"/>
		<path class="st16" d="M1144.5,673.1v-21c0,0,1-15.4,14.5-15.4s34.7,0,34.7,0s14.7,0.5,14.7,15.1V673c0,0-1.4,14.7-14.4,14.7
			s-35.6,0-35.6,0S1144.5,685.5,1144.5,673.1z"/>
		<path class="st8" d="M1157.2,671.2v-17.3c0,0,0.5-4.5,3.6-4.5s30.7,0,30.7,0s4.2-0.3,4.2,5s0,16.8,0,16.8s0.7,4.6-5.4,4.6
			s-28.8,0-28.8,0S1157.2,676.4,1157.2,671.2z"/>
		<path class="st16" d="M1268.3,673.5v-21c0,0,1-15.4,14.5-15.4s34.7,0,34.7,0s14.7,0.5,14.7,15.1v21.2c0,0-1.4,14.7-14.4,14.7
			s-35.6,0-35.6,0S1268.3,685.9,1268.3,673.5z"/>
		<path class="st8" d="M1281,671.6v-17.3c0,0,0.5-4.5,3.6-4.5s30.7,0,30.7,0s4.2-0.3,4.2,5s0,16.8,0,16.8s0.7,4.6-5.4,4.6
			s-28.8,0-28.8,0S1281,676.8,1281,671.6z"/>
		<polygon class="st16" points="1015.6,636.7 1073.8,636.7 1073.8,649.8 1051,649.8 1051,689 1038.2,689 1038.2,649.6 1015.6,649.6 
					"/>
		<polygon class="st16" points="936.9,636.4 995.2,636.4 995.2,649.5 972.3,649.5 972.3,688.8 959.5,688.8 959.5,649.4 936.9,649.4 
					"/>
		<path class="st16" d="M877.8,688.8v-52.3h55v11.7h-37.6c0,0-4.1-0.4-4.1,3.5c0,3.8,3,3.6,3,3.6h36.5v12.9h-36c0,0-3.6,0-3.6,2.7
			s0.3,3.6,3.6,3.7c3.3,0.1,38.2,0,38.2,0v14.2L877.8,688.8L877.8,688.8z"/>
		<path class="st16" d="M756.1,635.5h18.1l11.5,15.1l12.1-13.9l16.8-0.2l-17.6,22c0,0-2.7,3.6,0,6.9s17.6,22.3,17.6,22.3l-16.1-0.2
			l-13.2-15l-12,16.2H755l19.1-23.7c0,0,3.6-3.3,0-7.4S756.1,635.5,756.1,635.5z"/>
		<path class="st16" d="M817.9,688.8v-34.4h13.5v17.2c0,0-0.8,2.9,3,3s21.6,0,21.6,0s5.6,0.2,5.6-3s0-17.2,0-17.2s0.7-6.1-5.6-6.2
			c-6.3-0.1-38.1,0-38.1,0v-11.7h42.3c0,0,12.6,1.2,12.6,14.1c0,12.9,0,27.2,0,27.2s-3.3,11-14.3,11S817.9,688.8,817.9,688.8z"/>
		<polygon class="st16" points="998.5,636.3 1012.2,636.3 1012.2,688.6 998.5,688.9 		"/>
		<path class="st16" d="M1211.4,636.7v51.1l52.8,0.4v-13.7l-35.4-0.3c0,0-3.8,0.3-3.8-4.1c0-4.4,0.5-33.4,0.5-33.4H1211.4z"/>
		<path class="st16" d="M623.1,688.8v-53.3h52.5c0,0,12.6,1.1,12.1,14.5s-7.1,11.4-7.1,11.4s7.2,2.9,7.2,13.2s-10.2,14.2-10.2,14.2
			L623.1,688.8L623.1,688.8z"/>
		<path class="st8" d="M639,648.2h31.6c0,0,3.6-0.4,3.7,3.5c0.1,3.8-3.2,4.4-3.2,4.4H639c0,0-3.3-0.2-3.3-3.9
			C635.7,648.4,639,648.2,639,648.2z"/>
		<path class="st8" d="M639.4,668H671c0,0,3.6-0.4,3.7,3.5c0.1,3.8-3.2,4.4-3.2,4.4h-32.2c0,0-3.3-0.2-3.3-3.9
			C636.1,668.1,639.4,668,639.4,668z"/>
		
			<linearGradient id="SVGID_12_" gradientUnits="userSpaceOnUse" x1="330.3821" y1="427.2" x2="608.2" y2="427.2" gradientTransform="matrix(1 0 0 -1 0 1080)">
			<stop  offset="0" style="stop-color:#383838"/>
			<stop  offset="0.1568" style="stop-color:#575757"/>
			<stop  offset="0.4335" style="stop-color:#898989"/>
			<stop  offset="0.6764" style="stop-color:#ADADAD"/>
			<stop  offset="0.8735" style="stop-color:#C3C3C3"/>
			<stop  offset="1" style="stop-color:#CBCBCB"/>
		</linearGradient>
		<path class="st17" d="M341.8,645.2h259.8c0,0,6.6,1.4,6.6,8.3c0,6.9-6.6,6.9-6.6,6.9H393.8c0,0-58.6,0.7-62.7-7.6
			S341.8,645.2,341.8,645.2z"/>
		
			<linearGradient id="SVGID_13_" gradientUnits="userSpaceOnUse" x1="415.4135" y1="408.6531" x2="608.2" y2="408.6531" gradientTransform="matrix(1 0 0 -1 0 1080)">
			<stop  offset="0" style="stop-color:#383838"/>
			<stop  offset="0.1568" style="stop-color:#575757"/>
			<stop  offset="0.4335" style="stop-color:#898989"/>
			<stop  offset="0.6764" style="stop-color:#ADADAD"/>
			<stop  offset="0.8735" style="stop-color:#C3C3C3"/>
			<stop  offset="1" style="stop-color:#CBCBCB"/>
		</linearGradient>
		<path class="st18" d="M423.3,664.7h180.3c0,0,4.6,1.3,4.6,7.3s-4.6,6-4.6,6H459.4c0,0-40.7,0.6-43.5-6.7S423.3,664.7,423.3,664.7z
			"/>
		
			<linearGradient id="SVGID_14_" gradientUnits="userSpaceOnUse" x1="1347.9" y1="426.9" x2="1625.6898" y2="426.9" gradientTransform="matrix(1 0 0 -1 0 1080)">
			<stop  offset="0" style="stop-color:#383838"/>
			<stop  offset="0.1568" style="stop-color:#575757"/>
			<stop  offset="0.4335" style="stop-color:#898989"/>
			<stop  offset="0.6764" style="stop-color:#ADADAD"/>
			<stop  offset="0.8735" style="stop-color:#C3C3C3"/>
			<stop  offset="1" style="stop-color:#CBCBCB"/>
		</linearGradient>
		<path class="st19" d="M1614.3,645.5h-259.8c0,0-6.6,1.4-6.6,8.3c0,6.9,6.6,6.9,6.6,6.9h207.8c0,0,58.6,0.7,62.7-7.6
			C1629,644.8,1614.3,645.5,1614.3,645.5z"/>
		
			<linearGradient id="SVGID_15_" gradientUnits="userSpaceOnUse" x1="1347.9" y1="408.3531" x2="1540.6865" y2="408.3531" gradientTransform="matrix(1 0 0 -1 0 1080)">
			<stop  offset="0" style="stop-color:#383838"/>
			<stop  offset="0.1568" style="stop-color:#575757"/>
			<stop  offset="0.4335" style="stop-color:#898989"/>
			<stop  offset="0.6764" style="stop-color:#ADADAD"/>
			<stop  offset="0.8735" style="stop-color:#C3C3C3"/>
			<stop  offset="1" style="stop-color:#CBCBCB"/>
		</linearGradient>
		<path class="st20" d="M1532.8,665h-180.3c0,0-4.6,1.3-4.6,7.3s4.6,6,4.6,6h144.2c0,0,40.7,0.6,43.5-6.7S1532.8,665,1532.8,665z"/>
		
			<linearGradient id="SVGID_16_" gradientUnits="userSpaceOnUse" x1="677.3828" y1="247.2722" x2="1278.1415" y2="247.2722" gradientTransform="matrix(1 0 0 -1 0 1080)">
			<stop  offset="0" style="stop-color:#383838"/>
			<stop  offset="4.750385e-02" style="stop-color:#474747"/>
			<stop  offset="0.378" style="stop-color:#A9A9A9"/>
			<stop  offset="0.6082" style="stop-color:#E7E7E7"/>
			<stop  offset="0.7169" style="stop-color:#FFFFFF"/>
			<stop  offset="0.7577" style="stop-color:#E6E6E6"/>
			<stop  offset="0.8079" style="stop-color:#CFCFCF"/>
			<stop  offset="0.862" style="stop-color:#BFBFBF"/>
			<stop  offset="0.922" style="stop-color:#B5B5B5"/>
			<stop  offset="1" style="stop-color:#B2B2B2"/>
		</linearGradient>
		<path class="st21" d="M682.2,713.8h29.3c0,0,6.2-1.5,15,10.3c8.8,11.7,78,119.4,236.7,182.8c0,0,12.4,6.5,27.1,0
			c13.5-6,146.2-56.4,241.8-193.2c0,0,2.2-3.6,9.5-3.6s30.8,0,30.8,0s9.9,0.4,3.7,9.9s-120.9,179.5-286.9,233.4c0,0-12.8,4.4-25.6,0
			s-167.6-59-279.2-220.2C684.4,733.2,670.2,713.8,682.2,713.8z"/>
		<path class="st16" d="M966,885.2c0,0,9.6,2.2,16.2,0c6.6-2.2,128.3-40.7,213.4-142.9c0,0,7.3-8.5,10-5.8s-4.9,19-11.3,25.8
			c-6.3,6.9-81.5,94.8-204.1,144.5c0,0-11.6,3.3-28.9-2.4"/>
		<path class="st16" d="M982.5,885.2c0,0-9.6,2.2-16.2,0c-6.6-2.2-128.3-40.7-213.4-142.9c0,0-7.3-8.5-10-5.8s6,17.3,12.4,24.2
			S832,853.4,954.6,903c0,0,19.2,11.1,35.7,3.8"/>
		
			<linearGradient id="SVGID_17_" gradientUnits="userSpaceOnUse" x1="557.3775" y1="844.2982" x2="1392.1748" y2="844.2982" gradientTransform="matrix(1 0 0 -1 0 1080)">
			<stop  offset="0" style="stop-color:#383838"/>
			<stop  offset="8.306690e-03" style="stop-color:#464646"/>
			<stop  offset="3.931055e-02" style="stop-color:#777777"/>
			<stop  offset="7.116716e-02" style="stop-color:#A1A1A1"/>
			<stop  offset="0.1034" style="stop-color:#C3C3C3"/>
			<stop  offset="0.136" style="stop-color:#DDDDDD"/>
			<stop  offset="0.1693" style="stop-color:#F0F0F0"/>
			<stop  offset="0.2037" style="stop-color:#FBFBFB"/>
			<stop  offset="0.2407" style="stop-color:#FFFFFF"/>
			<stop  offset="0.262" style="stop-color:#EDEDED"/>
			<stop  offset="0.3066" style="stop-color:#CECECE"/>
			<stop  offset="0.3571" style="stop-color:#B2B2B2"/>
			<stop  offset="0.4142" style="stop-color:#9C9C9C"/>
			<stop  offset="0.4809" style="stop-color:#8B8B8B"/>
			<stop  offset="0.5633" style="stop-color:#808080"/>
			<stop  offset="0.679" style="stop-color:#797979"/>
			<stop  offset="1" style="stop-color:#777777"/>
		</linearGradient>
		<path class="st22" d="M1392.1,207.6c0,0,2.3-17.6-18.6-25.3s-367.9-161.4-796.6,2c0,0-20.2,2.6-19.4,33.7s0,110.3,0,110.3
			s-1.8,22.4,8.4,22.4c10.3,0,27.1-0.7,27.1-0.7s6.9,0.5,6.9-8.5v-121c0,0,349.3-166.8,751.6,0v130.2c0,0-1.5,10.3,7.3,11
			s25.9,0,25.9,0s7.4-0.1,7.4-15.1C1392.2,331.5,1392.1,207.6,1392.1,207.6z"/>
		<path class="st16" d="M752,183.9c0,0,220.4-46.2,432,0l34.1,7.1c0,0,6.6,1.1,9.3-2.7s-9.3-6.6-9.3-6.6s-201.3-65.6-472.1-4.4
			c0,0-12.4,3.6-13.3,6.8c-1,3.2,6,2.5,6,2.5L752,183.9z"/>
		<path class="st16" d="M975,166.1c-1,0.4-2.2,1.7-3.1,3.2c-1.1,1.8-2,4-4.2,10.4c-1,3-2.3,6.5-2.8,7.6c-1.4,3.1-1.3,3.1-13.5,3.1
			c-11,0-11.6,0.1-13.5,1.9c-1.4,1.3-1.5,2.8-0.5,4.9c1,2.1,2.8,3.8,8.2,8c6.3,4.8,8.2,6.5,9,7.7c0.6,1,0.7,1.3,0.3,3.1
			c-0.2,1.1-1.3,4.7-2.4,7.9c-3.4,9.5-3.9,12.7-2.8,15.1c0.8,1.6,2.1,2.2,4.4,2c2.4-0.2,4.6-1.4,11.5-6.4c5.7-4,8.3-5.6,9.4-5.6
			c1.2,0,3.6,1.6,9.8,6.4c6.9,5.3,9.3,6.7,11.7,6.7c2.7,0,4-1.6,4-5.2c0-2.3-0.5-4.4-2.9-12.6c-1.1-3.8-1.9-7.2-2-8.3
			c-0.1-1.8-0.1-1.8,1.7-3.5c1-0.9,3.9-3.2,6.6-5c6.2-4.4,8.3-6,9.4-7.7c1.3-1.9,1.7-3.3,1.1-4.8c-1.1-2.8-3.9-3.6-14.9-3.9
			c-9.3-0.2-10.7-0.5-11.7-2c-0.8-1.3-1.9-4.2-3.7-10.3c-2.2-7.8-3.7-11.1-5.6-12.3C977.6,166,975.8,165.8,975,166.1z"/>
		<g>
			<g>
				<g>
					<path class="st23" d="M1084.4,182.1c0.6,0.1,1.3,0.3,1.8,0.7c1.3,1,2.5,3.9,4.2,10.1c1.4,5.1,2.3,7.6,3,8.8
						c0.9,1.5,2.1,1.9,9.6,2.8c8.8,1.2,10.5,2,11.2,4c0.4,1.1,0.2,2.1-0.8,3.3c-0.8,1.2-2.3,2.3-7.2,5.3c-2.1,1.2-4.4,2.8-5.2,3.5
						c-1.5,1.3-1.5,1.4-1.5,3c0.1,0.9,0.8,3.9,1.6,6.9c2,6.9,2.3,8.5,2.3,10.3c0,3.2-1.3,3.5-2.6,3.4c-1.8-0.2-3.6-1.5-8.9-6.2
						c-5.2-4.6-7-6-8-6.1c-0.9-0.1-2.4,0.5-7.6,3.8c-5.3,3.3-7,4.1-8.7,4.1c-0.2,0-0.4,0-0.6,0c-1.4-0.1-1.9-0.8-2.3-1.6
						c-0.8-1.9-0.4-4.4,2.1-11.6c0.8-2.4,1.7-5.2,1.9-6.2c0.3-1.5,0.3-1.8-0.3-2.9c-0.6-1.1-2-2.5-7.2-7.1c-4.2-3.8-5.6-5.3-6.4-7
						c-0.7-1.6-0.6-2.6,0.3-3.4c1.3-1.2,1.6-1.2,10.2-0.3h0.3c9.3,0.9,9.5,0.9,10.7-1.7c0.4-1,1.4-3.7,2.2-5.9
						c1.7-4.9,2.3-6.7,3.2-8c0.6-1,1.5-1.9,2.2-2.1C1084,182.1,1084.2,182.1,1084.4,182.1z"/>
				</g>
				<g>
					<path d="M1115.1,208.3c0.5,1.4,0.3,2.7-0.9,4.2c-0.9,1.3-2.4,2.4-7.5,5.5c-2,1.2-4.3,2.8-5.1,3.5c-1.2,1.1-1.2,1.1-1.2,2.3
						c0,0.7,0.7,3.5,1.6,6.7c1.9,6.6,2.4,8.6,2.4,10.5c0,3.1-1.1,4.5-3.6,4.3c-2-0.2-4-1.5-9.5-6.5c-4-3.5-6.6-5.7-7.4-5.8
						c-0.9-0.1-4.1,1.8-7.1,3.7c-5.5,3.5-7.2,4.3-9.2,4.3c-0.3,0-0.5,0-0.7,0c-1.6-0.2-2.5-0.9-3.2-2.2c-1-2.2-0.5-4.7,2.1-12.3
						c0.9-2.6,1.7-5.3,1.8-6.1c0.3-1.4,0.3-1.5-0.2-2.2c-0.5-1-2-2.4-7-6.8c-4.4-3.9-5.8-5.5-6.6-7.3c-0.9-2-0.7-3.4,0.5-4.5
						c1.6-1.5,2.3-1.4,10.9-0.6h0.3c8.9,0.9,8.9,0.9,9.8-1.1c0.4-0.9,1.4-3.5,2.2-5.9c1.7-5,2.4-6.8,3.3-8.1
						c0.7-1.2,1.8-2.2,2.6-2.5c0.3-0.1,0.6-0.1,0.9-0.1c0.8,0.1,1.7,0.4,2.3,0.9c1.5,1.2,2.8,4,4.6,10.7c1.4,4.9,2.2,7.5,2.9,8.5
						c0.6,1,1.5,1.4,8.8,2.3C1111.3,204.7,1114.1,205.5,1115.1,208.3z M1113.5,211.9c1-1.3,1.2-2.3,0.8-3.3c-0.7-2-2.5-2.8-11.2-4
						c-7.5-1-8.7-1.3-9.6-2.8c-0.7-1.2-1.6-3.7-3-8.8c-1.8-6.3-2.9-9.1-4.2-10.1c-0.5-0.4-1.2-0.7-1.8-0.7c-0.2,0-0.4,0-0.5,0
						c-0.7,0.2-1.6,1.1-2.2,2.1c-0.8,1.3-1.5,3-3.2,8c-0.7,2.3-1.8,5-2.2,5.9c-1.2,2.6-1.4,2.6-10.7,1.7h-0.3
						c-8.6-0.9-8.9-0.8-10.2,0.3c-0.9,0.8-1,1.8-0.3,3.4c0.8,1.7,2.1,3.2,6.4,7c5.2,4.6,6.6,6,7.2,7.1s0.6,1.4,0.3,2.9
						c-0.2,1-1.1,3.8-1.9,6.2c-2.5,7.2-3,9.7-2.1,11.6c0.4,0.8,1,1.5,2.3,1.6c0.2,0,0.4,0,0.6,0c1.7,0,3.5-0.8,8.7-4.1
						s6.8-3.9,7.6-3.8c1,0.1,2.8,1.5,8,6.1c5.3,4.7,7.1,6,8.9,6.2c1.3,0.1,2.7-0.2,2.6-3.4c0-1.8-0.4-3.4-2.3-10.3
						c-0.9-3-1.6-6-1.6-6.9c-0.1-1.6,0-1.7,1.5-3c0.8-0.7,3.1-2.3,5.2-3.5C1111.2,214.2,1112.6,213.1,1113.5,211.9"/>
				</g>
			</g>
		</g>
		<g>
			<g>
				<g>
					<path class="st24" d="M863.4,184.4c0.6-0.1,1.4,0,2,0.3c1.4,0.7,2.9,3.4,5.2,9.5c1.9,4.9,3,7.4,3.8,8.4c1.1,1.3,2.3,1.4,10,0.5
						c8.6-1,10.9-0.7,11.9,1.3c0.4,0.9,0.5,1.8-0.5,3.7c-0.8,1.4-2.2,2.9-7,7.4c-2,1.8-4.3,4.1-5,5c-1.4,1.7-1.5,1.8-1.3,3.6
						c0.1,1,1.1,3.9,2.2,6.8c2.6,6.7,3.1,8.3,3.2,10.1c0.2,2.7-0.5,4-2.5,4.2c-1.9,0.3-3.8-0.6-9.7-4.2c-5.7-3.5-7.6-4.5-8.7-4.3
						c-1,0.1-3,1.7-7.5,5.9c-5.1,4.8-6.8,6.1-8.6,6.5c-0.2,0.1-0.5,0.1-0.7,0.1c-1.2,0.2-2-0.2-2.5-1.1c-1-1.8-0.7-4.5,1.2-12.6
						c0.6-2.7,1.3-5.9,1.4-7c0.2-1.6,0.2-2-0.6-3c-0.7-1-2.3-2.1-8-5.6c-4.7-2.9-6.2-4.1-7.1-5.6c-0.9-1.5-0.9-2.5,0-3.6
						c1.3-1.6,1.6-1.7,10.5-3h0.3c9.6-1.4,9.8-1.4,10.8-4.5c0.4-1.1,1.2-4.2,1.7-6.8c1.3-5.6,1.9-7.5,2.6-9.1
						c0.5-1.2,1.4-2.4,2.1-2.8C863,184.5,863.2,184.4,863.4,184.4z"/>
				</g>
				<g>
					<path d="M897.1,203.8c0.7,1.4,0.5,2.7-0.5,4.7c-0.8,1.6-2.2,3.1-7.2,7.6c-1.9,1.8-4.2,4-4.9,4.9c-1.2,1.5-1.2,1.5-1,2.7
						c0.1,0.8,1,3.4,2.2,6.6c2.5,6.4,3.1,8.3,3.3,10.4c0.3,3.2-0.8,5-3.3,5.3c-2.1,0.3-4.2-0.6-10.2-4.3c-4.5-2.8-7.2-4.3-8.1-4.2
						c-1,0.1-4.1,2.9-7,5.7c-5.4,5-7,6.3-9,6.8c-0.3,0.1-0.5,0.1-0.7,0.1c-1.6,0.2-2.7-0.3-3.4-1.5c-1.2-2.1-0.9-4.8,1.1-13.4
						c0.7-3,1.3-5.9,1.4-6.8c0.2-1.5,0.1-1.6-0.4-2.2c-0.6-0.9-2.3-2-7.7-5.4c-4.8-3-6.4-4.2-7.4-6c-1.1-1.9-1.1-3.4,0.1-4.8
						c1.5-1.9,2-2,11.1-3.3h0.3c9.2-1.3,9.2-1.3,10-3.7c0.3-1,1.1-4,1.7-6.7c1.3-5.7,1.9-7.7,2.7-9.3c0.6-1.4,1.6-2.7,2.5-3.2
						c0.3-0.2,0.6-0.2,0.9-0.3c0.8-0.1,1.7,0,2.4,0.4c1.7,0.9,3.2,3.5,5.6,10c1.8,4.8,2.9,7.2,3.6,8.1c0.8,1,2.1,1,9.3,0.2
						C893.5,201,895.9,201.3,897.1,203.8z M895.8,208c1-1.8,0.9-2.8,0.5-3.7c-1-2-3.3-2.3-11.9-1.3c-7.7,0.9-9,0.8-10-0.5
						c-0.8-1-1.9-3.5-3.8-8.4c-2.3-6.1-3.8-8.8-5.2-9.5c-0.5-0.3-1.4-0.4-2-0.3c-0.2,0-0.4,0.1-0.6,0.2c-0.7,0.4-1.5,1.6-2.1,2.8
						c-0.7,1.6-1.3,3.5-2.6,9.1c-0.6,2.6-1.4,5.7-1.7,6.8c-1,3-1.2,3.1-10.8,4.5h-0.3c-8.9,1.3-9.2,1.4-10.5,3
						c-0.9,1.1-0.9,2.1,0,3.6c0.9,1.6,2.4,2.8,7.1,5.6c5.7,3.5,7.2,4.6,8,5.6c0.7,1,0.7,1.3,0.6,3c-0.1,1-0.8,4.3-1.4,7
						c-2,8.1-2.2,10.8-1.2,12.6c0.5,0.9,1.3,1.3,2.5,1.1c0.2,0,0.4-0.1,0.7-0.1c1.8-0.4,3.5-1.7,8.6-6.5c4.5-4.2,6.4-5.8,7.5-5.9
						c1.1-0.1,3,0.8,8.7,4.3c5.8,3.6,7.8,4.5,9.7,4.2c2-0.3,2.7-1.5,2.5-4.2c-0.2-1.8-0.7-3.4-3.2-10.1c-1.1-2.9-2.1-5.9-2.2-6.8
						c-0.2-1.7-0.1-1.9,1.3-3.6c0.8-0.9,3-3.2,5-5C893.6,210.9,895,209.4,895.8,208"/>
				</g>
			</g>
		</g>
		<g>
			<g>
				<g class="st25">
					<g>
						<path class="st26" d="M1181.8,209.7c0.2,0,0.2,0,0.3,0c0.3,0,0.8,0.2,1.2,0.5c0.9,0.8,1.7,3,3,8c1,4,1.7,6.1,2.2,7
							c0.7,1.3,1.7,1.6,6.6,2.3c5.9,0.9,7,1.6,7.5,3.1c0.1,0.3,0.1,0.5,0.1,0.8c0,0.6-0.2,1.1-0.6,1.8c-0.5,0.9-1.5,1.8-4.8,4.2
							c-1.4,1-2.9,2.3-3.5,2.8c-0.9,0.9-1,1.1-1,2c0,0.1,0,0.3,0,0.4c0.1,0.8,0.6,3.1,1.2,5.5c1.4,5.4,1.7,6.7,1.7,8.1
							c0,1.8-0.4,2.4-1,2.6c-0.1,0-0.2,0-0.3,0c-0.2,0-0.2,0-0.3,0c-1.1-0.1-2.4-1.2-6-4.9c-3.6-3.7-4.8-4.8-5.6-4.9
							c-0.3,0-0.5,0-0.7,0.1c-0.3,0.1-0.6,0.3-1.1,0.5c-0.2,0.1-0.3,0.2-0.5,0.3c-0.2,0.2-0.5,0.3-0.8,0.5c-0.2,0.1-0.4,0.3-0.6,0.4
							c-0.1,0.1-0.2,0.1-0.3,0.2c-0.2,0.2-0.4,0.3-0.7,0.5c-0.1,0.1-0.2,0.2-0.4,0.3c-0.1,0-0.1,0.1-0.2,0.1
							c-0.2,0.1-0.4,0.3-0.6,0.4c-0.3,0.2-0.6,0.4-0.8,0.6c-0.4,0.3-0.7,0.5-1,0.7c-0.5,0.3-0.9,0.6-1.3,0.8
							c-0.1,0.1-0.2,0.1-0.3,0.2c-0.5,0.2-0.8,0.4-1.2,0.4c-0.2,0-0.3,0-0.5,0.1c-0.2,0-0.4,0-0.5,0c-0.9-0.1-1.2-0.5-1.5-1.2
							c-0.2-0.4-0.3-0.9-0.3-1.4c0-1.4,0.4-3.6,1.6-7.7c0.5-1.9,1.1-4.2,1.2-4.9c0.1-0.5,0.1-0.8,0.1-1.1c0-0.4-0.1-0.7-0.4-1.2
							c-0.4-0.9-1.4-2-5-5.7c-2.9-3-3.8-4.2-4.4-5.5c-0.2-0.6-0.3-1-0.4-1.4c0-0.5,0.2-0.9,0.5-1.2c0.4-0.4,0.7-0.7,1.6-0.7
							c0.3,0,0.7,0,1,0c0.5,0,1.1,0.1,1.8,0.2c0.7,0.1,1.4,0.2,2.3,0.3h0.2c1,0.1,1.8,0.2,2.5,0.3c0.6,0.1,1.2,0.1,1.6,0.1
							c0.3,0,0.6,0,0.9,0c0.1,0,0.2,0,0.3,0c1.2-0.1,1.5-0.5,1.9-1.5c0-0.1,0.1-0.2,0.1-0.3c0.3-0.8,0.9-2.9,1.4-4.7
							c1.1-3.9,1.5-5.3,2-6.3C1180.8,210.4,1181.4,209.8,1181.8,209.7z"/>
					</g>
					<g>
						<path d="M1203.3,230.3c0.4,1.1,0.2,2.2-0.5,3.4c-0.6,1.1-1.8,2-5,4.4c-1.3,1-2.9,2.2-3.4,2.7c-0.8,0.8-0.8,0.8-0.8,1.8
							c0,0.6,0.5,2.7,1.2,5.3c1.4,5.3,1.7,6.8,1.8,8.4c0.1,2.3-0.6,3.5-2,3.5c-0.1,0-0.3,0-0.4,0c-1.4-0.2-2.7-1.2-6.6-5.2
							c-2.3-2.4-4.5-4.5-5-4.6c-0.8,0-3.6,2.1-4.6,2.9c-3.6,2.7-4.8,3.4-6.1,3.4c-0.3,0-0.5,0-0.6,0c-1.1-0.1-1.8-0.8-2.3-1.9
							c-0.7-1.8-0.4-3.8,1.2-9.8c0.6-2.1,1.1-4.2,1.2-4.8c0.2-1.1,0.1-1.1-0.1-1.7c-0.4-0.8-1.4-1.9-4.8-5.4c-3-3.1-4-4.4-4.6-5.9
							c-0.7-1.6-0.6-2.7,0.3-3.6c0.6-0.6,1-0.9,2.2-0.9c1,0,2.6,0.2,5.2,0.5h0.2c2.5,0.3,3.9,0.5,4.8,0.4c1.2,0,1.3-0.4,1.7-1.3
							c0.3-0.7,0.9-2.8,1.4-4.7c1.1-4,1.5-5.4,2.1-6.5c0.5-1,1.2-1.8,1.8-2c0.1-0.1,0.3-0.1,0.4-0.1s0.2,0,0.3,0
							c0.6,0.1,1.2,0.4,1.7,0.8c1.1,1,2,3.2,3.3,8.6c1,3.9,1.6,5.9,2,6.7s1,1,5.9,1.8C1200.6,227.4,1202.6,228.1,1203.3,230.3z
							 M1202,233.1c0.4-0.7,0.6-1.3,0.6-1.8c0-0.3-0.1-0.5-0.1-0.8c-0.5-1.5-1.7-2.1-7.5-3.1c-4.9-0.8-5.9-1-6.6-2.3
							c-0.5-0.9-1.1-3-2.2-7c-1.3-5-2.1-7.2-3-8c-0.3-0.3-0.8-0.5-1.2-0.5c-0.1,0-0.1,0-0.1,0c-0.5,0.2-1.1,0.8-1.6,1.7
							c-0.5,1-1,2.4-2,6.3c-0.5,1.8-1.1,4-1.4,4.7c0,0.1-0.1,0.2-0.1,0.3c-0.4,1-0.7,1.4-1.9,1.5c-0.1,0-0.2,0-0.3,0
							c-0.3,0-0.5,0-0.9,0c-0.5,0-1-0.1-1.6-0.1c-0.7-0.1-1.5-0.2-2.5-0.3h-0.2c-0.9-0.1-1.7-0.2-2.3-0.3c-0.7-0.1-1.3-0.1-1.8-0.2
							c-0.4,0-0.7,0-0.9,0c-1,0-1.3,0.3-1.7,0.7c-0.3,0.3-0.5,0.7-0.5,1.2c0,0.4,0.1,0.8,0.4,1.4c0.5,1.3,1.5,2.5,4.4,5.5
							c3.6,3.7,4.5,4.8,5,5.7c0.3,0.5,0.4,0.8,0.4,1.2c0,0.3,0,0.6-0.1,1.1c-0.1,0.8-0.7,3.1-1.2,4.9c-1.1,4.1-1.6,6.3-1.6,7.7
							c0,0.6,0.1,1,0.3,1.4c0.3,0.7,0.6,1.1,1.5,1.2c0.1,0,0.3,0,0.4,0c0.2,0,0.4,0,0.6-0.1c0.3-0.1,0.7-0.2,1.2-0.4
							c0.1-0.1,0.2-0.1,0.3-0.2c0.4-0.2,0.8-0.5,1.3-0.8c0.3-0.2,0.6-0.5,1-0.7c0.3-0.2,0.5-0.4,0.8-0.6c0.2-0.1,0.4-0.3,0.6-0.4
							c0.1,0,0.1-0.1,0.2-0.1c0.1-0.1,0.2-0.2,0.4-0.3c0.2-0.2,0.5-0.3,0.7-0.5c0.1-0.1,0.2-0.2,0.3-0.2c0.2-0.1,0.4-0.3,0.6-0.4
							c0.3-0.2,0.6-0.4,0.8-0.5c0.2-0.1,0.4-0.2,0.5-0.3c0.4-0.3,0.8-0.4,1.1-0.5c0.2-0.1,0.4-0.1,0.6-0.1c0.9,0.1,2.1,1.2,5.7,4.9
							c3.6,3.7,4.9,4.7,6,4.9c0.1,0,0.2,0,0.2,0c0.2,0,0.3,0,0.4,0c0.6-0.2,1-0.8,1-2.6c0-1.4-0.3-2.7-1.7-8.1
							c-0.6-2.4-1.1-4.8-1.2-5.5c0-0.2,0-0.3,0-0.4c0-0.9,0.1-1.1,1-2c0.5-0.6,2.1-1.8,3.5-2.8C1200.5,234.9,1201.5,234,1202,233.1"
							/>
					</g>
				</g>
			</g>
		</g>
		<g>
			<g>
				<g>
					<path d="M791.8,227.2c0.4,1,0.2,2-0.7,3.4c-0.7,1.1-1.8,2.2-5.5,5.4c-1.6,1.4-3.2,2.9-3.7,3.4c-0.9,1-0.9,1-0.8,1.8
						c0,0.5,0.5,2.4,1.1,4.5c1.3,4.5,1.7,5.8,1.7,7.3c0,2.3-0.9,3.6-2.7,3.9c-1.5,0.2-2.9-0.4-6.9-3c-2.8-1.8-4.7-3-5.3-2.9
						c-0.7,0.1-3.1,2.1-5.1,3.9c-4.1,3.5-5.3,4.4-6.8,4.8c-0.2,0-0.4,0.1-0.5,0.1c-1.2,0.2-1.9-0.2-2.4-1.1
						c-0.7-1.5-0.4-3.4,1.6-9.4c0.7-2.1,1.3-4.1,1.4-4.7c0.2-1,0.2-1-0.1-1.5c-0.4-0.6-1.4-1.4-5-3.7c-3.2-2.1-4.2-3-4.8-4.2
						c-0.7-1.4-0.5-2.4,0.4-3.5c1.2-1.4,1.7-1.5,8-2.4h0.2c6.4-0.9,6.4-0.9,7.1-2.5c0.3-0.7,1-2.8,1.6-4.7c1.3-4,1.8-5.4,2.4-6.5
						c0.6-1,1.3-1.9,2-2.3c0.2-0.1,0.4-0.2,0.7-0.2c0.6-0.1,1.3,0,1.7,0.3c1.2,0.6,2,2.5,3.4,7c1,3.3,1.6,5,2,5.6s1.1,0.7,6.4,0.1
						C789,225.2,791,225.3,791.8,227.2z M790.4,230.1c0.8-1.2,0.8-1.9,0.6-2.4c-0.5-1.2-1.8-1.5-8.1-0.8c-5.2,0.6-6.3,0.6-7.1-0.4
						c-0.5-0.7-1.1-2.4-2.1-5.9c-1.2-4.2-2.1-6-3-6.5c-0.3-0.2-0.9-0.2-1.3-0.2c-0.1,0-0.3,0.1-0.4,0.1c-0.4,0.2-1.1,1-1.6,1.9
						c-0.6,1.1-1.1,2.5-2.4,6.3c-0.6,1.8-1.3,3.9-1.6,4.7c-0.9,2.2-1.1,2.2-7.9,3.2h-0.2c-6.2,0.9-6.5,1-7.4,2
						c-0.5,0.6-0.8,1.2-0.2,2.3c0.5,1.1,1.5,1.9,4.6,3.9c3.8,2.4,4.8,3.2,5.2,3.9c0.5,0.7,0.4,1,0.2,2.2c-0.1,0.7-0.8,3-1.4,4.9
						c-1.9,5.6-2.2,7.5-1.6,8.7c0.3,0.5,0.6,0.8,1.6,0.7c0.1,0,0.3-0.1,0.5-0.1c1.3-0.3,2.5-1.2,6.4-4.5c3.9-3.4,5-4.1,5.6-4.2
						c0.8-0.1,2.1,0.6,5.9,3c3.8,2.5,5.1,3.1,6.4,2.9c1-0.1,1.9-0.6,1.9-2.8c0-1.3-0.3-2.4-1.6-7c-0.6-2.1-1.1-4.1-1.1-4.8
						c0-1.2,0.1-1.4,1.1-2.6c0.6-0.7,2.3-2.2,3.8-3.5C788.7,232.1,789.8,231.1,790.4,230.1"/>
				</g>
				<g>
					<path class="st27" d="M769.4,213.9c0.4-0.1,0.9,0,1.3,0.2c0.9,0.5,1.8,2.3,3,6.5c1,3.5,1.6,5.2,2.1,5.9c0.7,1,1.8,1,7.1,0.4
						c6.3-0.7,7.6-0.4,8.1,0.8c0.2,0.6,0.2,1.2-0.6,2.4c-0.6,1-1.7,2-5.3,5.1c-1.5,1.3-3.2,2.9-3.8,3.5c-1.1,1.2-1.2,1.3-1.1,2.6
						c0,0.7,0.5,2.7,1.1,4.8c1.4,4.6,1.6,5.7,1.6,7c0,2.2-0.9,2.7-1.9,2.8c-1.3,0.2-2.6-0.4-6.4-2.9c-3.8-2.5-5.1-3.1-5.9-3
						c-0.7,0.1-1.8,0.8-5.6,4.2c-3.9,3.3-5.1,4.2-6.4,4.5c-0.2,0-0.3,0.1-0.5,0.1c-0.9,0.1-1.3-0.2-1.6-0.7
						c-0.6-1.2-0.2-3.1,1.6-8.7c0.6-1.9,1.3-4.1,1.4-4.9c0.2-1.2,0.2-1.5-0.2-2.2c-0.5-0.7-1.5-1.5-5.2-3.9c-3-2-4-2.8-4.6-3.9
						c-0.6-1.1-0.3-1.7,0.2-2.3c0.9-1,1.2-1.1,7.4-2h0.2c6.8-1,7-1,7.9-3.2c0.3-0.8,1.1-2.9,1.6-4.7c1.2-3.9,1.7-5.2,2.4-6.3
						c0.5-0.9,1.2-1.6,1.6-1.9C769.1,213.9,769.3,213.9,769.4,213.9z"/>
				</g>
			</g>
		</g>
		
			<linearGradient id="SVGID_18_" gradientUnits="userSpaceOnUse" x1="425.0667" y1="691.1685" x2="1565.0088" y2="691.1685" gradientTransform="matrix(1 0 0 -1 0 1080)">
			<stop  offset="0" style="stop-color:#383838"/>
			<stop  offset="4.311621e-02" style="stop-color:#555555"/>
			<stop  offset="0.1009" style="stop-color:#747474"/>
			<stop  offset="0.1665" style="stop-color:#909090"/>
			<stop  offset="0.2405" style="stop-color:#A6A6A6"/>
			<stop  offset="0.327" style="stop-color:#B7B7B7"/>
			<stop  offset="0.4338" style="stop-color:#C2C2C2"/>
			<stop  offset="0.5837" style="stop-color:#C9C9C9"/>
			<stop  offset="1" style="stop-color:#CBCBCB"/>
		</linearGradient>
		<path class="st28" d="M458.3,414.4c0,0,45.4-2.9,53.5,0c0,0-25.6,38.8-22.7,52s7.3,0,7.3,0s25-63.8,107.4-64
			c82.4-0.3,95.4,65.1,95.4,65.1s5.5,9.9,7.4,0s-10.7-53.3-37.6-65.1l90.1,3.6c0,0,32.7-11,3.8-28l91.5,7.1l-70.9-2.7
			c0,0-6.9,0-1.9,6.6s-8.8,15.7-8.8,15.7l-28,27.8c0,0-4.1,4.7-2.5,6.9c1.6,2.2,4.1,2.5,8-0.5c3.8-3,25.6-22.8,25.6-22.8l110.2,3
			L821,455.4l-31.3,2.5c0,0-4.4,0.3-4.4,3.6c0,3.3,3.3,4.4,3.3,4.4l234.7,3c0,0,10.7,0,11-3.6s-10.2-4.7-10.2-4.7l-175.6-4.7
			l84.1-45.6l1.4-0.1l13.5-0.5l-13.5,0.5L906.5,427c0,0-6.6,9.9,11.8,9.9c18.4,0,310.5-4.9,310.5-4.9s-17,24.5-52.5,25.8
			s-51.7,3-51.7,3s-3.8,1.1-3.8,4.1s5.2,4.4,5.2,4.4l70.6,0.3c0,0,25.3,4.7,82.7-52.2c0,0-15.7,21.4-15.7,30.8s2.7,8.5,2.7,8.5
			s2.7,1.4,6.3-6.3c3.6-7.7,25-42.6,72.3-49.2s78,16.5,78,16.5s31.1,22.7,35.4,54.8c0,0,1.4,5.7,4.4,5.7s4.4-5.2,4.4-5.2
			s2.2-24.2-8.8-41.8c0,0,23.6,27.5,59.6,26.1c0,0,5.5,0.3,7.1-4.1s-7.4-6-7.4-6s-27.5-8-32.2-14.8l69.8,15.1c0,0,8.2,1.1,9.6-1.9
			s-4.7-7.7-4.7-7.7s-144.9-93.3-259.1-57.7c0,0-6.5,1.6-17.9-4.3s-99.3-39.6-99.3-39.6s-7.8-1.7-9.3,1.1c-1.5,2.8-0.5,4.5,5.6,7.3
			c6,2.8,85.4,36.1,85.4,36.1l-54.9,0.4c0,0-72.6-54.8-95.2-57.5c0,0-5.1-0.5-9-10.8c-3.8-10.3-115.8-39.6-424.1,44
			c0,0-25.3,4.1-4.9,9.9c20.3,5.8,38.2,9.9,38.2,9.9s-143.5-44.5-264.4,5.2c0,0-0.5,1.3-1.4,3.6c-3.8,9.8-14.7,36.7-23.4,45.6
			c0,0-3,4.7,0,6.3c3,1.6,7.1-2.2,7.1-2.2s15.7-17.6,16.2-19C450.8,414.5,458.3,414.4,458.3,414.4z"/>
		<path class="st16" d="M450.2,385.1l-30.8,1.6c0,0-7.7,7.1,0,12.1l-0.5,21.7c0,0,0.6,16.1,12.9,3.7
			C431.8,424.2,448.9,388.7,450.2,385.1z"/>
		<path class="st29" d="M870.5,336.7c0,0,154.6-39.9,228.6-4.8c74,35.2,86.1,49.1,86.1,49.1l-166.7-7.7
			C1018.5,373.4,873.4,338.6,870.5,336.7z"/>
	</g>
</g>
<g id="Capa_2_1_">
	<linearGradient id="SVGID_19_" gradientUnits="userSpaceOnUse" x1="392.2349" y1="610.0166" x2="392.2349" y2="519.142">
		<stop  offset="0" style="stop-color:#383838"/>
		<stop  offset="8.226728e-02" style="stop-color:#3C3C3C"/>
		<stop  offset="0.1639" style="stop-color:#484848"/>
		<stop  offset="0.2452" style="stop-color:#5C5C5C"/>
		<stop  offset="0.3264" style="stop-color:#787878"/>
		<stop  offset="0.4076" style="stop-color:#9C9C9C"/>
		<stop  offset="0.4888" style="stop-color:#C8C8C8"/>
		<stop  offset="0.5685" style="stop-color:#FBFBFB"/>
		<stop  offset="0.5741" style="stop-color:#FFFFFF"/>
		<stop  offset="0.602" style="stop-color:#F9F9F9"/>
		<stop  offset="0.7536" style="stop-color:#E0E0E0"/>
		<stop  offset="0.8908" style="stop-color:#D0D0D0"/>
		<stop  offset="1" style="stop-color:#CBCBCB"/>
	</linearGradient>
	<path class="st30" d="M335.4,610v-61.5c0,0,1.1-29.4,27.2-29.4c26.1,0,63.7,0,63.7,0s22.9,4.9,22.9,22.3c0,17.4,0,68.6,0,68.6
		h-23.4v-27.2h-55.5v-23.4l56,0.1l0.1-13.1c0,0,1-4.6-3.4-4.6c-4.4,0-60,0-60,0s-3.7-0.8-3.7,3.8S359,610,359,610H335.4z"/>
	<linearGradient id="SVGID_20_" gradientUnits="userSpaceOnUse" x1="511.6929" y1="611.5139" x2="511.6929" y2="519.142">
		<stop  offset="0" style="stop-color:#383838"/>
		<stop  offset="8.226728e-02" style="stop-color:#3C3C3C"/>
		<stop  offset="0.1639" style="stop-color:#484848"/>
		<stop  offset="0.2452" style="stop-color:#5C5C5C"/>
		<stop  offset="0.3264" style="stop-color:#787878"/>
		<stop  offset="0.4076" style="stop-color:#9C9C9C"/>
		<stop  offset="0.4888" style="stop-color:#C8C8C8"/>
		<stop  offset="0.5685" style="stop-color:#FBFBFB"/>
		<stop  offset="0.5741" style="stop-color:#FFFFFF"/>
		<stop  offset="0.602" style="stop-color:#F9F9F9"/>
		<stop  offset="0.7536" style="stop-color:#E0E0E0"/>
		<stop  offset="0.8908" style="stop-color:#D0D0D0"/>
		<stop  offset="1" style="stop-color:#CBCBCB"/>
	</linearGradient>
	<path class="st31" d="M455.5,519.1h22.4v63.8c0,0-0.3,5.8,5,5.8c5.3,0,57.8,0,57.8,0s4.4,1.1,4.4-4.4c0-5.4,0-65.3,0-65.3h23v66.3
		c0,0-3.8,26.1-24.6,26.1s-64.1,0-64.1,0s-23.4,0.5-23.9-27.3C454.9,556.3,455.5,519.1,455.5,519.1z"/>
	<linearGradient id="SVGID_21_" gradientUnits="userSpaceOnUse" x1="626.8356" y1="610.4247" x2="626.8356" y2="519.142">
		<stop  offset="0" style="stop-color:#383838"/>
		<stop  offset="8.226728e-02" style="stop-color:#3C3C3C"/>
		<stop  offset="0.1639" style="stop-color:#484848"/>
		<stop  offset="0.2452" style="stop-color:#5C5C5C"/>
		<stop  offset="0.3264" style="stop-color:#787878"/>
		<stop  offset="0.4076" style="stop-color:#9C9C9C"/>
		<stop  offset="0.4888" style="stop-color:#C8C8C8"/>
		<stop  offset="0.5685" style="stop-color:#FBFBFB"/>
		<stop  offset="0.5741" style="stop-color:#FFFFFF"/>
		<stop  offset="0.602" style="stop-color:#F9F9F9"/>
		<stop  offset="0.7536" style="stop-color:#E0E0E0"/>
		<stop  offset="0.8908" style="stop-color:#D0D0D0"/>
		<stop  offset="1" style="stop-color:#CBCBCB"/>
	</linearGradient>
	<polygon class="st32" points="574.5,519.1 679.1,519.1 679.1,542 638.2,542 638.2,610.4 615.1,610.4 615.2,541.7 574.5,541.7 	"/>
	<linearGradient id="SVGID_22_" gradientUnits="userSpaceOnUse" x1="741.109" y1="610.4247" x2="741.109" y2="519.142">
		<stop  offset="0" style="stop-color:#383838"/>
		<stop  offset="8.226728e-02" style="stop-color:#3C3C3C"/>
		<stop  offset="0.1639" style="stop-color:#484848"/>
		<stop  offset="0.2452" style="stop-color:#5C5C5C"/>
		<stop  offset="0.3264" style="stop-color:#787878"/>
		<stop  offset="0.4076" style="stop-color:#9C9C9C"/>
		<stop  offset="0.4888" style="stop-color:#C8C8C8"/>
		<stop  offset="0.5685" style="stop-color:#FBFBFB"/>
		<stop  offset="0.5741" style="stop-color:#FFFFFF"/>
		<stop  offset="0.602" style="stop-color:#F9F9F9"/>
		<stop  offset="0.7536" style="stop-color:#E0E0E0"/>
		<stop  offset="0.8908" style="stop-color:#D0D0D0"/>
		<stop  offset="1" style="stop-color:#CBCBCB"/>
	</linearGradient>
	<path class="st33" d="M684,584.2v-37.5c0,0,1.8-27.5,25.8-27.5c24.1,0,62,0,62,0s26.3,0.8,26.3,27.1v38c0,0-2.4,26.3-25.7,26.3
		s-63.7,0-63.7,0S684,606.3,684,584.2z M714.4,589.1c0,0,40.5,0,51.4,0s9.7-8.2,9.7-8.2s0-20.5,0-30.1c0-9.5-7.5-9-7.5-9
		s-49.4,0-54.8,0s-6.4,8-6.4,8v31C706.8,590.2,714.4,589.1,714.4,589.1z"/>
	<linearGradient id="SVGID_23_" gradientUnits="userSpaceOnUse" x1="859.0555" y1="610.6968" x2="859.0555" y2="519.142">
		<stop  offset="0" style="stop-color:#383838"/>
		<stop  offset="8.226728e-02" style="stop-color:#3C3C3C"/>
		<stop  offset="0.1639" style="stop-color:#484848"/>
		<stop  offset="0.2452" style="stop-color:#5C5C5C"/>
		<stop  offset="0.3264" style="stop-color:#787878"/>
		<stop  offset="0.4076" style="stop-color:#9C9C9C"/>
		<stop  offset="0.4888" style="stop-color:#C8C8C8"/>
		<stop  offset="0.5685" style="stop-color:#FBFBFB"/>
		<stop  offset="0.5741" style="stop-color:#FFFFFF"/>
		<stop  offset="0.602" style="stop-color:#F9F9F9"/>
		<stop  offset="0.7536" style="stop-color:#E0E0E0"/>
		<stop  offset="0.8908" style="stop-color:#D0D0D0"/>
		<stop  offset="1" style="stop-color:#CBCBCB"/>
	</linearGradient>
	<path class="st34" d="M909.3,519.1v22.7h-77.7c0,0-4.2-0.4-4.4,5.7c0,0-1,5.8,4.2,6c5.2,0.1,58,0,58,0s24.2,2.3,24.2,29
		s-23.7,28.2-24.4,28.2c-0.7,0-80.1-0.3-80.1-0.3v-22.3h78.1c0,0,3.5,0.4,3.5-5.6c0-6-4.6-6-4.6-6l-58.9-0.1c0,0-22.9-4.2-22.9-28.6
		s21.8-28.7,24.4-28.7C831.4,519.1,909.3,519.1,909.3,519.1z"/>
	<linearGradient id="SVGID_24_" gradientUnits="userSpaceOnUse" x1="976.662" y1="610.6968" x2="976.662" y2="519.142">
		<stop  offset="0" style="stop-color:#383838"/>
		<stop  offset="8.226728e-02" style="stop-color:#3C3C3C"/>
		<stop  offset="0.1639" style="stop-color:#484848"/>
		<stop  offset="0.2452" style="stop-color:#5C5C5C"/>
		<stop  offset="0.3264" style="stop-color:#787878"/>
		<stop  offset="0.4076" style="stop-color:#9C9C9C"/>
		<stop  offset="0.4888" style="stop-color:#C8C8C8"/>
		<stop  offset="0.5685" style="stop-color:#FBFBFB"/>
		<stop  offset="0.5741" style="stop-color:#FFFFFF"/>
		<stop  offset="0.602" style="stop-color:#F9F9F9"/>
		<stop  offset="0.7536" style="stop-color:#E0E0E0"/>
		<stop  offset="0.8908" style="stop-color:#D0D0D0"/>
		<stop  offset="1" style="stop-color:#CBCBCB"/>
	</linearGradient>
	<path class="st35" d="M920.6,519.1h22.7v30.5c0,0-0.3,3.8,4.8,3.9c5,0.1,58.5,0,58.5,0s3.4-0.3,3.3-3.9c-0.1-3.7,0-30.5,0-30.5
		h22.9l-0.5,34.5c0,0-3.8,22.9-21.2,22.9c-17.4,0-22.6,0-22.6,0l-0.1,34.1h-22.7l-0.1-34.1l-21.8,0.1c0,0-23-5.6-23-23
		C920.6,536.3,920.6,519.1,920.6,519.1z"/>
	<linearGradient id="SVGID_25_" gradientUnits="userSpaceOnUse" x1="1098.0775" y1="610.6968" x2="1098.0775" y2="519.142">
		<stop  offset="0" style="stop-color:#383838"/>
		<stop  offset="8.226728e-02" style="stop-color:#3C3C3C"/>
		<stop  offset="0.1639" style="stop-color:#484848"/>
		<stop  offset="0.2452" style="stop-color:#5C5C5C"/>
		<stop  offset="0.3264" style="stop-color:#787878"/>
		<stop  offset="0.4076" style="stop-color:#9C9C9C"/>
		<stop  offset="0.4888" style="stop-color:#C8C8C8"/>
		<stop  offset="0.5685" style="stop-color:#FBFBFB"/>
		<stop  offset="0.5741" style="stop-color:#FFFFFF"/>
		<stop  offset="0.602" style="stop-color:#F9F9F9"/>
		<stop  offset="0.7536" style="stop-color:#E0E0E0"/>
		<stop  offset="0.8908" style="stop-color:#D0D0D0"/>
		<stop  offset="1" style="stop-color:#CBCBCB"/>
	</linearGradient>
	<polygon class="st36" points="1039,519.1 1061.6,519.1 1098.6,570.2 1135.6,519.1 1157.2,519.1 1157.2,610.7 1135.4,610.7 
		1135,558.9 1098.7,608.8 1061.7,557.9 1061.4,610.7 1039,610.7 	"/>
	<linearGradient id="SVGID_26_" gradientUnits="userSpaceOnUse" x1="1221.0575" y1="610.2207" x2="1221.0575" y2="518.9379">
		<stop  offset="0" style="stop-color:#383838"/>
		<stop  offset="8.226728e-02" style="stop-color:#3C3C3C"/>
		<stop  offset="0.1639" style="stop-color:#484848"/>
		<stop  offset="0.2452" style="stop-color:#5C5C5C"/>
		<stop  offset="0.3264" style="stop-color:#787878"/>
		<stop  offset="0.4076" style="stop-color:#9C9C9C"/>
		<stop  offset="0.4888" style="stop-color:#C8C8C8"/>
		<stop  offset="0.5685" style="stop-color:#FBFBFB"/>
		<stop  offset="0.5741" style="stop-color:#FFFFFF"/>
		<stop  offset="0.602" style="stop-color:#F9F9F9"/>
		<stop  offset="0.7536" style="stop-color:#E0E0E0"/>
		<stop  offset="0.8908" style="stop-color:#D0D0D0"/>
		<stop  offset="1" style="stop-color:#CBCBCB"/>
	</linearGradient>
	<path class="st37" d="M1164,584v-37.5c0,0,1.8-27.5,25.8-27.5c24.1,0,62,0,62,0s26.3,0.8,26.3,27.1v38c0,0-2.4,26.3-25.7,26.3
		s-63.7,0-63.7,0S1164,606.1,1164,584z M1194.3,588.9c0,0,40.5,0,51.4,0s9.7-8.2,9.7-8.2s0-20.5,0-30.1c0-9.5-7.5-9-7.5-9
		s-49.4,0-54.8,0c-5.4,0-6.4,8-6.4,8v31C1186.7,590,1194.3,588.9,1194.3,588.9z"/>
	<linearGradient id="SVGID_27_" gradientUnits="userSpaceOnUse" x1="1337.5076" y1="610.5608" x2="1337.5076" y2="519.2781">
		<stop  offset="0" style="stop-color:#383838"/>
		<stop  offset="8.226728e-02" style="stop-color:#3C3C3C"/>
		<stop  offset="0.1639" style="stop-color:#484848"/>
		<stop  offset="0.2452" style="stop-color:#5C5C5C"/>
		<stop  offset="0.3264" style="stop-color:#787878"/>
		<stop  offset="0.4076" style="stop-color:#9C9C9C"/>
		<stop  offset="0.4888" style="stop-color:#C8C8C8"/>
		<stop  offset="0.5685" style="stop-color:#FBFBFB"/>
		<stop  offset="0.5741" style="stop-color:#FFFFFF"/>
		<stop  offset="0.602" style="stop-color:#F9F9F9"/>
		<stop  offset="0.7536" style="stop-color:#E0E0E0"/>
		<stop  offset="0.8908" style="stop-color:#D0D0D0"/>
		<stop  offset="1" style="stop-color:#CBCBCB"/>
	</linearGradient>
	<polygon class="st38" points="1285.2,519.3 1389.8,519.3 1389.8,542.1 1348.9,542.1 1348.9,610.6 1325.7,610.6 1325.9,541.9 
		1285.2,541.9 	"/>
	<linearGradient id="SVGID_28_" gradientUnits="userSpaceOnUse" x1="1452.4613" y1="610.0847" x2="1452.4613" y2="518.8019">
		<stop  offset="0" style="stop-color:#383838"/>
		<stop  offset="8.226728e-02" style="stop-color:#3C3C3C"/>
		<stop  offset="0.1639" style="stop-color:#484848"/>
		<stop  offset="0.2452" style="stop-color:#5C5C5C"/>
		<stop  offset="0.3264" style="stop-color:#787878"/>
		<stop  offset="0.4076" style="stop-color:#9C9C9C"/>
		<stop  offset="0.4888" style="stop-color:#C8C8C8"/>
		<stop  offset="0.5685" style="stop-color:#FBFBFB"/>
		<stop  offset="0.5741" style="stop-color:#FFFFFF"/>
		<stop  offset="0.602" style="stop-color:#F9F9F9"/>
		<stop  offset="0.7536" style="stop-color:#E0E0E0"/>
		<stop  offset="0.8908" style="stop-color:#D0D0D0"/>
		<stop  offset="1" style="stop-color:#CBCBCB"/>
	</linearGradient>
	<path class="st39" d="M1395.4,583.8v-37.5c0,0,1.8-27.5,25.8-27.5s62,0,62,0s26.3,0.8,26.3,27.1v38c0,0-2.4,26.3-25.7,26.3
		c-23.3,0-63.7,0-63.7,0S1395.4,606,1395.4,583.8z M1425.7,588.7c0,0,40.5,0,51.4,0s9.7-8.2,9.7-8.2s0-20.5,0-30.1
		c0-9.5-7.5-9-7.5-9s-49.4,0-54.8,0c-5.4,0-6.4,8-6.4,8v31C1418.1,589.8,1425.7,588.7,1425.7,588.7z"/>
	<linearGradient id="SVGID_29_" gradientUnits="userSpaceOnUse" x1="1570.4077" y1="610.3567" x2="1570.4077" y2="518.8019">
		<stop  offset="0" style="stop-color:#383838"/>
		<stop  offset="8.226728e-02" style="stop-color:#3C3C3C"/>
		<stop  offset="0.1639" style="stop-color:#484848"/>
		<stop  offset="0.2452" style="stop-color:#5C5C5C"/>
		<stop  offset="0.3264" style="stop-color:#787878"/>
		<stop  offset="0.4076" style="stop-color:#9C9C9C"/>
		<stop  offset="0.4888" style="stop-color:#C8C8C8"/>
		<stop  offset="0.5685" style="stop-color:#FBFBFB"/>
		<stop  offset="0.5741" style="stop-color:#FFFFFF"/>
		<stop  offset="0.602" style="stop-color:#F9F9F9"/>
		<stop  offset="0.7536" style="stop-color:#E0E0E0"/>
		<stop  offset="0.8908" style="stop-color:#D0D0D0"/>
		<stop  offset="1" style="stop-color:#CBCBCB"/>
	</linearGradient>
	<path class="st40" d="M1620.7,518.8v22.7H1543c0,0-4.2-0.4-4.4,5.7c0,0-1,5.8,4.2,6c5.2,0.1,58,0,58,0s24.2,2.3,24.2,29
		s-23.7,28.2-24.4,28.2s-80.1-0.3-80.1-0.3v-22.3h78.1c0,0,3.5,0.4,3.5-5.6s-4.6-6-4.6-6l-58.9-0.1c0,0-22.9-4.2-22.9-28.6
		c0-24.4,21.8-28.7,24.4-28.7S1620.7,518.8,1620.7,518.8z"/>
	<path class="st41" d="M695.9,671.9v-21.7c0,0,1-15.9,14.3-15.9s34.4,0,34.4,0s14.5,0.5,14.5,15.7v21.9c0,0-1.4,15.2-14.2,15.2
		s-35.3,0-35.3,0S695.9,684.7,695.9,671.9z M712.7,673c0,0,22.4,0,28.5,0s5.3-4.5,5.3-4.5s0-11.4,0-16.6s-4.1-5-4.1-5
		s-27.3,0-30.4,0s-3.5,4.4-3.5,4.4v17.2C708.5,673.6,712.7,673,712.7,673z"/>
	<path class="st41" d="M1077.8,671.5v-20.8c0,0,1-15.2,14.3-15.2c13.3,0,34.4,0,34.4,0s14.5,0.5,14.5,15v21c0,0-1.4,14.5-14.2,14.5
		c-12.9,0-35.3,0-35.3,0S1077.8,683.8,1077.8,671.5z M1094.6,674.2c0,0,22.4,0,28.5,0s5.3-4.5,5.3-4.5s0-11.4,0-16.6
		c0-5.3-4.1-5-4.1-5s-27.3,0-30.4,0s-3.5,4.4-3.5,4.4v17.2C1090.4,674.8,1094.6,674.2,1094.6,674.2z"/>
	<path class="st41" d="M1144.6,671.5v-20.8c0,0,1-15.2,14.3-15.2s34.4,0,34.4,0s14.5,0.5,14.5,15v21c0,0-1.4,14.5-14.2,14.5
		c-12.9,0-35.3,0-35.3,0S1144.6,683.8,1144.6,671.5z M1161.4,674.2c0,0,22.4,0,28.5,0s5.3-4.5,5.3-4.5s0-11.4,0-16.6
		c0-5.3-4.1-5-4.1-5s-27.3,0-30.4,0s-3.5,4.4-3.5,4.4v17.2C1157.2,674.8,1161.4,674.2,1161.4,674.2z"/>
	<path class="st41" d="M1267.2,671.9v-20.8c0,0,1-15.2,14.3-15.2c13.3,0,34.4,0,34.4,0s14.5,0.5,14.5,15v21c0,0-1.4,14.5-14.2,14.5
		s-35.3,0-35.3,0S1267.2,684.1,1267.2,671.9z M1284,674.6c0,0,22.5,0,28.5,0s5.3-4.5,5.3-4.5s0-11.4,0-16.6s-4.1-5-4.1-5
		s-27.3,0-30.4,0s-3.5,4.4-3.5,4.4v17.2C1279.8,675.2,1284,674.6,1284,674.6z"/>
	<polygon class="st41" points="1017,635.5 1074.7,635.5 1074.7,648.4 1052.1,648.4 1052.1,687.3 1039.4,687.3 1039.4,648.3 
		1017,648.3 	"/>
	<polygon class="st41" points="939.1,635.2 996.8,635.2 996.8,648.2 974.2,648.2 974.2,687 961.5,687 961.5,648 939.1,648 	"/>
	<path class="st41" d="M880.6,687v-51.8H935v11.6h-37.3c0,0-4.1-0.4-4.1,3.4c0,3.8,3,3.5,3,3.5h36.2v12.8h-35.6c0,0-3.5,0-3.5,2.7
		c0,2.7,0.3,3.5,3.5,3.7c3.3,0.1,37.8,0,37.8,0v14H880.6z"/>
	<path class="st41" d="M760.1,634.3h18l11.4,14.9l12-13.7l16.6-0.2l-17.4,21.9c0,0-2.7,3.5,0,6.8c2.7,3.3,17.4,22,17.4,22l-16-0.2
		l-13-14.8L777.2,687h-18.1l19-23.4c0,0,3.5-3.3,0-7.3C774.5,652.2,760.1,634.3,760.1,634.3z"/>
	<path class="st41" d="M821.3,687v-34h13.3v17c0,0-0.8,2.9,3,3c3.8,0.1,21.4,0,21.4,0s5.5,0.2,5.5-3s0-17,0-17s0.7-6.1-5.5-6.2
		c-6.2-0.1-37.8,0-37.8,0v-11.6h41.9c0,0,12.5,1.2,12.5,14c0,12.8,0,26.9,0,26.9s-3.3,10.9-14.1,10.9C850.7,687,821.3,687,821.3,687
		z"/>
	<polygon class="st41" points="1000.1,635.1 1013.7,635.1 1013.7,686.9 1000.1,687.2 	"/>
	<path class="st41" d="M1210.9,635.5V686l52.2,0.4v-13.5l-35.1-0.3c0,0-3.8,0.3-3.8-4.1s0.5-33,0.5-33H1210.9z"/>
	<path class="st41" d="M628.4,687v-52.8h52c0,0,12.5,1.1,12,14.4c-0.5,13.3-7.1,11.3-7.1,11.3s7.1,2.9,7.1,13.1
		c0,10.2-10.1,14-10.1,14H628.4z M640.9,650.7c0,3.7,3.3,3.9,3.3,3.9H676c0,0,3.3-0.5,3.1-4.4c-0.1-3.8-3.7-3.4-3.7-3.4h-31.3
		C644.2,646.8,640.9,647,640.9,650.7z M641.3,670.3c0,3.7,3.3,3.9,3.3,3.9h31.8c0,0,3.3-0.5,3.1-4.4c-0.1-3.8-3.7-3.4-3.7-3.4h-31.3
		C644.5,666.4,641.3,666.6,641.3,670.3z"/>
	<linearGradient id="SVGID_30_" gradientUnits="userSpaceOnUse" x1="338.6664" y1="651.4525" x2="613.6171" y2="651.4525">
		<stop  offset="0" style="stop-color:#383838"/>
		<stop  offset="0.1568" style="stop-color:#575757"/>
		<stop  offset="0.4335" style="stop-color:#898989"/>
		<stop  offset="0.6764" style="stop-color:#ADADAD"/>
		<stop  offset="0.8735" style="stop-color:#C3C3C3"/>
		<stop  offset="1" style="stop-color:#CBCBCB"/>
	</linearGradient>
	<path class="st42" d="M349.9,643.9h257.2c0,0,6.5,1.4,6.5,8.2c0,6.8-6.5,6.8-6.5,6.8H401.4c0,0-58,0.7-62-7.5
		C335.4,643.2,349.9,643.9,349.9,643.9z"/>
	<linearGradient id="SVGID_31_" gradientUnits="userSpaceOnUse" x1="422.7985" y1="669.7806" x2="613.6171" y2="669.7806">
		<stop  offset="0" style="stop-color:#383838"/>
		<stop  offset="0.1568" style="stop-color:#575757"/>
		<stop  offset="0.4335" style="stop-color:#898989"/>
		<stop  offset="0.6764" style="stop-color:#ADADAD"/>
		<stop  offset="0.8735" style="stop-color:#C3C3C3"/>
		<stop  offset="1" style="stop-color:#CBCBCB"/>
	</linearGradient>
	<path class="st43" d="M430.6,663.2h178.5c0,0,4.5,1.3,4.5,7.2c0,6-4.5,6-4.5,6H466.3c0,0-40.3,0.6-43.1-6.6
		C420.5,662.5,430.6,663.2,430.6,663.2z"/>
	<linearGradient id="SVGID_32_" gradientUnits="userSpaceOnUse" x1="1346.0865" y1="651.7298" x2="1621.0372" y2="651.7298">
		<stop  offset="0" style="stop-color:#383838"/>
		<stop  offset="0.1568" style="stop-color:#575757"/>
		<stop  offset="0.4335" style="stop-color:#898989"/>
		<stop  offset="0.6764" style="stop-color:#ADADAD"/>
		<stop  offset="0.8735" style="stop-color:#C3C3C3"/>
		<stop  offset="1" style="stop-color:#CBCBCB"/>
	</linearGradient>
	<path class="st44" d="M1609.8,644.2h-257.2c0,0-6.5,1.4-6.5,8.2s6.5,6.8,6.5,6.8h205.7c0,0,58,0.7,62-7.5
		C1624.3,643.5,1609.8,644.2,1609.8,644.2z"/>
	<linearGradient id="SVGID_33_" gradientUnits="userSpaceOnUse" x1="1346.0865" y1="670.058" x2="1536.9052" y2="670.058">
		<stop  offset="0" style="stop-color:#383838"/>
		<stop  offset="0.1568" style="stop-color:#575757"/>
		<stop  offset="0.4335" style="stop-color:#898989"/>
		<stop  offset="0.6764" style="stop-color:#ADADAD"/>
		<stop  offset="0.8735" style="stop-color:#C3C3C3"/>
		<stop  offset="1" style="stop-color:#CBCBCB"/>
	</linearGradient>
	<path class="st45" d="M1529.1,663.5h-178.5c0,0-4.5,1.3-4.5,7.2c0,6,4.5,6,4.5,6h142.8c0,0,40.3,0.6,43.1-6.6
		C1539.2,662.8,1529.1,663.5,1529.1,663.5z"/>
	<linearGradient id="SVGID_34_" gradientUnits="userSpaceOnUse" x1="682.1475" y1="829.5546" x2="1276.9901" y2="829.5546">
		<stop  offset="0" style="stop-color:#383838"/>
		<stop  offset="4.750385e-02" style="stop-color:#474747"/>
		<stop  offset="0.378" style="stop-color:#A9A9A9"/>
		<stop  offset="0.6082" style="stop-color:#E7E7E7"/>
		<stop  offset="0.7169" style="stop-color:#FFFFFF"/>
		<stop  offset="0.7577" style="stop-color:#E6E6E6"/>
		<stop  offset="0.8079" style="stop-color:#CFCFCF"/>
		<stop  offset="0.862" style="stop-color:#BFBFBF"/>
		<stop  offset="0.922" style="stop-color:#B5B5B5"/>
		<stop  offset="1" style="stop-color:#B2B2B2"/>
	</linearGradient>
	<path class="st46" d="M686.9,711.8h29c0,0,6.2-1.5,14.9,10.2c8.7,11.6,77.3,118.3,234.4,181c0,0,12.2,6.5,26.8,0
		c13.3-5.9,144.7-55.8,239.4-191.2c0,0,2.2-3.6,9.4-3.6s30.5,0,30.5,0s9.8,0.4,3.6,9.8c-6.2,9.4-119.7,177.8-284.1,231.1
		c0,0-12.7,4.4-25.4,0c-12.7-4.4-166-58.4-276.4-218C689.1,731,675.1,711.8,686.9,711.8z"/>
	<path class="st41" d="M968,881.6c0,0,9.5,2.2,16.1,0s127.1-40.3,211.3-141.5c0,0,7.2-8.4,9.9-5.7c2.7,2.7-4.9,18.8-11.2,25.6
		s-80.7,93.9-202.1,143c0,0-11.5,3.3-28.7-2.4"/>
	<path class="st41" d="M984.3,881.6c0,0-9.5,2.2-16.1,0S841.2,841.3,757,740.1c0,0-7.2-8.4-9.9-5.7c-2.7,2.7,6,17.1,12.2,23.9
		c6.3,6.8,76,91.7,197.3,140.9c0,0,19.1,11,35.4,3.8"/>
	<linearGradient id="SVGID_35_" gradientUnits="userSpaceOnUse" x1="563.4127" y1="238.4324" x2="1389.9023" y2="238.4324">
		<stop  offset="0" style="stop-color:#383838"/>
		<stop  offset="8.306690e-03" style="stop-color:#464646"/>
		<stop  offset="3.931055e-02" style="stop-color:#777777"/>
		<stop  offset="7.116716e-02" style="stop-color:#A1A1A1"/>
		<stop  offset="0.1034" style="stop-color:#C3C3C3"/>
		<stop  offset="0.136" style="stop-color:#DDDDDD"/>
		<stop  offset="0.1693" style="stop-color:#F0F0F0"/>
		<stop  offset="0.2037" style="stop-color:#FBFBFB"/>
		<stop  offset="0.2407" style="stop-color:#FFFFFF"/>
		<stop  offset="0.262" style="stop-color:#EDEDED"/>
		<stop  offset="0.3066" style="stop-color:#CECECE"/>
		<stop  offset="0.3571" style="stop-color:#B2B2B2"/>
		<stop  offset="0.4142" style="stop-color:#9C9C9C"/>
		<stop  offset="0.4809" style="stop-color:#8B8B8B"/>
		<stop  offset="0.5633" style="stop-color:#808080"/>
		<stop  offset="0.679" style="stop-color:#797979"/>
		<stop  offset="1" style="stop-color:#777777"/>
	</linearGradient>
	<path class="st47" d="M1389.8,210.6c0,0,2.3-17.4-18.4-25c-20.7-7.6-364.2-159.8-788.7,2c0,0-20,2.5-19.2,33.4s0,109.2,0,109.2
		s-1.8,22.1,8.4,22.1c10.2,0,26.8-0.7,26.8-0.7s6.8,0.5,6.8-8.4V223.4c0,0,345.8-165.2,744.1,0v128.9c0,0-1.5,10.2,7.3,10.9
		s25.7,0,25.7,0s7.3-0.1,7.3-15S1389.8,210.6,1389.8,210.6z"/>
	<path class="st41" d="M756,187.2c0,0,218.2-45.7,427.7,0l33.7,7.1c0,0,6.5,1.1,9.3-2.7c2.7-3.8-9.3-6.5-9.3-6.5
		s-199.3-65-467.4-4.4c0,0-12.2,3.6-13.2,6.7c-1,3.1,6,2.4,6,2.4L756,187.2z"/>
	<path class="st41" d="M976.8,169.6c-1,0.4-2.2,1.7-3.1,3.1c-1.1,1.8-2,4-4.1,10.3c-1,3-2.3,6.4-2.8,7.5c-1.4,3.1-1.3,3-13.3,3.1
		c-10.9,0-11.5,0.1-13.3,1.9c-1.4,1.3-1.5,2.7-0.5,4.9c1,2.1,2.7,3.8,8.2,8c6.2,4.8,8.2,6.4,8.9,7.7c0.6,1,0.7,1.3,0.3,3.1
		c-0.2,1.1-1.3,4.6-2.4,7.8c-3.3,9.4-3.9,12.5-2.8,14.9c0.8,1.6,2,2.2,4.3,2c2.3-0.2,4.5-1.4,11.4-6.3c5.6-4,8.2-5.6,9.3-5.6
		c1.1,0,3.6,1.6,9.7,6.3c6.8,5.2,9.2,6.6,11.6,6.6c2.7,0,4-1.6,4-5.1c0-2.3-0.5-4.4-2.9-12.5c-1.1-3.7-1.9-7.1-2-8.2
		c-0.1-1.8-0.1-1.8,1.7-3.5c1-0.9,3.9-3.1,6.5-4.9c6.2-4.3,8.2-5.9,9.3-7.6c1.3-1.9,1.6-3.3,1.1-4.8c-1.1-2.8-3.9-3.5-14.7-3.8
		c-9.2-0.2-10.6-0.5-11.6-2c-0.8-1.3-1.9-4.2-3.6-10.2c-2.2-7.7-3.7-11-5.5-12.2C979.4,169.5,977.7,169.2,976.8,169.6z"/>
	<g>
		<g>
			<g class="st25">
				<g>
					<path d="M1116,211.2c0.6,1.6,0.3,3-0.9,4.6c-1,1.4-2.7,2.6-7.5,5.6c-2.2,1.3-4.3,2.8-5,3.4c-1.1,1-1.1,1-1,2
						c0,0.7,0.7,3.4,1.6,6.5c1.9,6.6,2.4,8.6,2.4,10.6c0,4.2-2.2,4.8-4,4.6c-2.2-0.2-4.1-1.5-9.7-6.5c-2-1.8-6.2-5.6-7.1-5.6
						c-0.6-0.1-2.9,1.1-6.7,3.6c-5.5,3.5-7.3,4.3-9.3,4.3c-0.2,0-0.5,0-0.8,0c-1.2-0.1-2.7-0.7-3.6-2.5c-1-2.3-0.6-4.9,2.1-12.5
						c0.9-2.6,1.7-5.2,1.8-5.9c0.2-1.2,0.2-1.2-0.1-1.9c-0.5-0.9-2-2.4-6.8-6.6c-4.4-3.9-5.8-5.5-6.7-7.5c-0.6-1.4-1.2-3.4,0.6-5
						c1.8-1.6,2.6-1.5,11.1-0.6l0.3,0c8.5,0.8,8.5,0.8,9.3-0.9c0.4-0.9,1.3-3.4,2.1-5.8c1.7-5,2.4-6.8,3.3-8.2
						c0.8-1.2,1.9-2.3,2.8-2.6c0.3-0.1,0.7-0.1,1.1-0.1c0.9,0.1,1.9,0.5,2.6,1c1.6,1.3,2.9,4.1,4.8,10.9c1.3,4.8,2.2,7.3,2.8,8.3
						c0.5,0.8,1.5,1.1,8.3,2C1112.1,207.4,1114.9,208.2,1116,211.2z M1113.5,214.6c1-1.3,1-2.1,0.7-2.9c-0.6-1.7-2.3-2.5-10.7-3.6
						c-7.3-1-8.8-1.3-9.9-3.1c-0.7-1.2-1.6-3.7-3-8.8c-1.7-6-2.8-8.8-4-9.7c-0.4-0.3-1.1-0.5-1.5-0.6c-0.1,0-0.3,0-0.3,0
						c-0.5,0.2-1.4,0.9-2,1.9c-0.8,1.3-1.5,3-3.1,7.8c-0.8,2.2-1.8,5-2.2,5.9c-1.3,2.9-1.8,2.8-11,1.9l-0.3,0
						c-8.5-0.9-8.6-0.8-9.8,0.2c-0.7,0.6-0.9,1.2-0.2,2.8c0.7,1.6,2.1,3.1,6.2,6.7c5.2,4.6,6.6,6,7.2,7.2c0.7,1.2,0.7,1.6,0.4,3.2
						c-0.2,1-1.1,3.8-1.9,6.2c-2.4,6.9-2.9,9.4-2.1,11.1c0.3,0.7,0.7,1.2,1.9,1.3c0.2,0,0.4,0,0.6,0c1.6,0,3.3-0.8,8.4-4
						c5.3-3.4,6.8-3.9,7.8-3.8c1.2,0.1,2.9,1.4,8.2,6.2c5.1,4.5,6.9,5.8,8.5,6c1,0.1,2.2,0,2.1-2.9c0-1.7-0.4-3.3-2.3-10
						c-0.9-3.1-1.6-6-1.6-7c-0.1-1.8,0.1-2.1,1.6-3.4c0.8-0.7,3.1-2.3,5.2-3.5C1111.3,216.8,1112.8,215.7,1113.5,214.6"/>
				</g>
				<g>
					<path class="st23" d="M1085.1,185.9c0.4,0,1.1,0.2,1.5,0.6c1.2,0.9,2.3,3.7,4,9.7c1.4,5.1,2.3,7.6,3,8.8
						c1.1,1.8,2.6,2.1,9.9,3.1c8.4,1.1,10.1,1.9,10.7,3.6c0.3,0.8,0.3,1.6-0.7,2.9c-0.8,1.1-2.2,2.2-7,5.1c-2,1.2-4.4,2.8-5.2,3.5
						c-1.5,1.3-1.7,1.5-1.6,3.4c0.1,1,0.8,3.9,1.6,7c1.9,6.7,2.3,8.3,2.3,10c0,2.9-1.1,3-2.1,2.9c-1.6-0.2-3.4-1.5-8.5-6
						c-5.3-4.8-7-6.1-8.2-6.2c-1-0.1-2.5,0.5-7.8,3.8c-5.1,3.2-6.8,4-8.4,4c-0.2,0-0.4,0-0.6,0c-1.1-0.1-1.5-0.6-1.9-1.3
						c-0.7-1.7-0.3-4.2,2.1-11.1c0.8-2.4,1.7-5.2,1.9-6.2c0.3-1.6,0.3-2-0.4-3.2c-0.7-1.2-2.1-2.6-7.2-7.2c-4.1-3.6-5.5-5.1-6.2-6.7
						c-0.7-1.6-0.5-2.2,0.2-2.8c1.1-1,1.3-1.1,9.8-0.2l0.3,0c9.1,0.9,9.7,1,11-1.9c0.4-1,1.4-3.7,2.2-5.9c1.6-4.9,2.3-6.5,3.1-7.8
						c0.6-1,1.5-1.8,2-1.9C1084.9,185.9,1085,185.9,1085.1,185.9z"/>
				</g>
			</g>
		</g>
	</g>
	<g>
		<g>
			<g>
				<path d="M900.1,206.6c0.9,1.9,0.2,3.7-0.6,5.1c-0.9,1.7-2.6,3.4-7.2,7.7c-2.1,1.9-4.2,4-4.8,4.8c-1,1.3-1,1.3-0.9,2.3
					c0.1,0.7,0.9,3.3,2.1,6.4c2.5,6.4,3.1,8.3,3.3,10.4c0.4,4.4-1.8,5.6-3.7,5.9c-2.2,0.3-4.3-0.6-10.4-4.3
					c-2.4-1.5-6.9-4.2-7.8-4.1c-1,0.1-5.3,4.2-6.7,5.5c-5.4,5-7.1,6.3-9.2,6.8c-0.2,0.1-0.5,0.1-0.8,0.1c-1.3,0.2-2.8,0-3.8-1.7
					c-1.3-2.2-1-5,1.1-13.7c0.7-2.9,1.3-5.8,1.4-6.6c0.1-1.3,0.1-1.3-0.3-1.9c-0.6-0.8-2.3-2-7.5-5.2c-4.8-3-6.4-4.3-7.5-6.1
					c-0.8-1.3-1.5-3.2,0.2-5.4c1.7-2,2.4-2.2,11.2-3.5l0.3,0c8.8-1.3,8.8-1.3,9.5-3.3c0.3-1,1.1-3.9,1.7-6.6
					c1.3-5.7,1.9-7.7,2.7-9.3c0.7-1.5,1.7-2.9,2.7-3.4c0.3-0.2,0.7-0.3,1.1-0.4c0.9-0.1,2,0.1,2.7,0.4c1.8,0.9,3.3,3.6,5.8,10.1
					c1.8,4.7,2.8,7.1,3.5,7.9c0.6,0.7,1.7,0.8,8.8,0C895.8,203.6,898.7,203.8,900.1,206.6z M898,210.7c0.9-1.6,0.8-2.4,0.5-3.1
					c-0.8-1.6-2.6-2-11.4-1c-7.5,0.9-9.1,0.9-10.3-0.7c-0.8-1.1-1.9-3.4-3.8-8.5c-2.2-5.8-3.6-8.5-4.9-9.1c-0.5-0.3-1.2-0.3-1.7-0.2
					c-0.2,0-0.3,0.1-0.4,0.1c-0.5,0.3-1.3,1.3-1.9,2.5c-0.7,1.5-1.3,3.5-2.5,8.9c-0.6,2.5-1.4,5.6-1.7,6.7c-1.1,3.3-1.5,3.4-11,4.8
					l-0.3,0c-8.9,1.3-9,1.4-10.1,2.8c-0.6,0.8-0.8,1.5,0,2.9c0.9,1.5,2.4,2.7,6.9,5.4c5.7,3.5,7.2,4.6,8,5.7
					c0.8,1.1,0.8,1.6,0.6,3.3c-0.1,1-0.8,4.3-1.4,7c-1.9,7.8-2.2,10.5-1.3,12.1c0.4,0.6,0.9,1,2.1,0.9c0.2,0,0.4-0.1,0.6-0.1
					c1.7-0.4,3.3-1.7,8.4-6.4c5.1-4.8,6.7-5.8,7.6-6c1.2-0.2,3.1,0.8,8.9,4.3c5.6,3.5,7.6,4.3,9.3,4.1c1.4-0.2,2.3-0.9,2-3.6
					c-0.2-1.8-0.6-3.3-3.2-9.9c-1.1-3-2.1-5.9-2.2-6.9c-0.2-1.9-0.1-2.2,1.4-4c0.8-0.9,3-3.2,5-5C895.9,213.6,897.3,212.1,898,210.7
					"/>
			</g>
			<g>
				<path class="st24" d="M866.4,188.1c0.5-0.1,1.2,0,1.7,0.2c1.3,0.7,2.7,3.3,4.9,9.1c1.9,5,3,7.4,3.8,8.5
					c1.2,1.5,2.8,1.5,10.3,0.7c8.7-1,10.6-0.6,11.4,1c0.3,0.7,0.4,1.5-0.5,3.1c-0.7,1.3-2.1,2.8-6.8,7.2c-2,1.8-4.3,4.1-5,5
					c-1.4,1.7-1.6,2-1.4,4c0.2,1,1.1,3.9,2.2,6.9c2.5,6.5,3,8.1,3.2,9.9c0.2,2.7-0.6,3.4-2,3.6c-1.7,0.2-3.7-0.7-9.3-4.1
					c-5.8-3.6-7.7-4.5-8.9-4.3c-1,0.1-2.5,1.1-7.6,6c-5,4.7-6.7,6-8.4,6.4c-0.2,0.1-0.4,0.1-0.6,0.1c-1.2,0.2-1.7-0.2-2.1-0.9
					c-0.9-1.6-0.6-4.3,1.3-12.1c0.6-2.7,1.3-5.9,1.4-7c0.2-1.7,0.1-2.2-0.6-3.3c-0.8-1.1-2.3-2.2-8-5.7c-4.5-2.8-6-4-6.9-5.4
					c-0.8-1.5-0.7-2.1,0-2.9c1.1-1.4,1.2-1.5,10.1-2.8l0.3,0c9.6-1.4,9.9-1.5,11-4.8c0.4-1.1,1.2-4.2,1.7-6.7
					c1.3-5.5,1.8-7.4,2.5-8.9c0.6-1.2,1.4-2.2,1.9-2.5C866.1,188.2,866.2,188.1,866.4,188.1z"/>
			</g>
		</g>
	</g>
	<g>
		<g>
			<g class="st25">
				<g>
					<path d="M1203.3,233c0.4,1.3,0.3,2.5-0.6,3.8c-0.7,1.1-1.8,2.1-5,4.5c-1.4,1-2.9,2.2-3.3,2.6c-0.7,0.7-0.7,0.7-0.6,1.4
						c0,0.5,0.5,2.7,1.1,5.1c1.4,5.3,1.7,6.8,1.8,8.4c0.1,3.1-1.2,3.9-2.4,3.9c-0.2,0-0.3,0-0.5,0c-1.7-0.2-3.2-1.5-6.8-5.3
						c-1.2-1.3-4.1-4.2-4.7-4.4c-0.4,0-1.8,1-4.3,2.8c-3.4,2.6-4.8,3.4-6.3,3.4c-0.3,0-0.5,0-0.6,0c-1.3-0.2-2.2-0.9-2.7-2.2
						c-0.7-1.9-0.5-4,1.2-10c0.6-2,1.1-4.1,1.1-4.7c0.1-0.9,0.1-0.9-0.1-1.4c-0.3-0.7-1.4-1.9-4.6-5.2c-3.1-3.2-4.1-4.4-4.7-6
						c-0.5-1.1-0.9-2.8,0.3-4.1c0.7-0.7,1.2-1,2.5-1.1c1.1,0,2.6,0.2,5.2,0.5l0.2,0c2.4,0.3,3.8,0.4,4.6,0.4c1,0,1.1-0.3,1.4-1
						c0.3-0.7,0.9-2.7,1.4-4.6c1.1-4,1.5-5.4,2.1-6.5c0.4-0.8,1.2-1.8,2-2.1c0.2-0.1,0.4-0.1,0.6-0.1c0.1,0,0.2,0,0.3,0
						c0.7,0.1,1.4,0.5,1.9,0.9c1.2,1.1,2.1,3.3,3.4,8.7c1,3.8,1.6,5.8,2,6.5c0.3,0.5,1,0.8,5.4,1.5
						C1200.4,229.8,1202.5,230.5,1203.3,233z M1201.2,235.6c0.4-0.7,0.5-1.1,0.5-1.5c0-0.2,0-0.4-0.1-0.6c-0.4-1.1-1.2-1.8-7-2.7
						c-4.8-0.7-6.1-1-6.9-2.6c-0.5-1-1.1-2.9-2.2-7.1c-0.8-3.3-1.8-6.8-2.8-7.6c-0.2-0.2-0.6-0.4-0.9-0.4c-0.4,0.1-0.9,0.6-1.3,1.4
						c-0.5,1-0.9,2.3-2,6.2c-0.5,1.8-1.1,3.9-1.4,4.7c0,0,0,0.1-0.1,0.1c-0.5,1.3-0.9,1.9-2.4,1.9c-0.1,0-0.1,0-0.2,0
						c-0.4,0-1,0-1.6-0.1c-0.4,0-0.9-0.1-1.4-0.1c-0.6-0.1-1.2-0.1-2-0.2l-0.2,0c-0.2,0-0.4,0-0.5-0.1c-0.7-0.1-1.4-0.2-1.9-0.2
						c-1.2-0.1-2-0.2-2.5-0.2c-0.1,0-0.2,0-0.2,0c-0.5,0-0.7,0.1-0.9,0.3c-0.1,0.1-0.2,0.2-0.3,0.3c-0.2,0.2-0.4,0.4-0.3,0.9
						c0,0.3,0.1,0.7,0.3,1.2c0.5,1.2,1.4,2.4,4.2,5.3c3.6,3.7,4.6,4.8,5,5.8c0.3,0.6,0.4,1,0.4,1.4c0,0.3,0,0.7-0.1,1.2
						c-0.1,0.8-0.7,3.1-1.2,4.9c-1.1,3.9-1.5,6-1.5,7.4c0,0.5,0.1,1,0.2,1.3c0.2,0.4,0.4,0.7,1,0.8c0.1,0,0.2,0,0.4,0
						c0.3,0,0.5,0,0.8-0.1c0.2-0.1,0.5-0.2,0.8-0.3c0.6-0.3,1.2-0.7,2.2-1.4c0.3-0.2,0.6-0.4,0.9-0.6c0.2-0.2,0.4-0.3,0.7-0.5
						c0.1,0,0.1-0.1,0.2-0.1c0.1-0.1,0.2-0.2,0.4-0.3c2-1.5,3.1-2.2,3.9-2.6c0.1,0,0.1-0.1,0.2-0.1c0.3-0.1,0.5-0.2,0.7-0.2
						c0.1,0,0.1,0,0.2,0c0.9,0.1,2,1.1,5.8,5c3.4,3.5,4.7,4.6,5.7,4.7c0.1,0,0.2,0,0.3,0c0.1,0,0.2,0,0.4-0.1c0,0,0.1-0.1,0.1-0.1
						c0.1-0.1,0.2-0.3,0.3-0.7c0.1-0.3,0.1-0.7,0.1-1.3c0-1.3-0.3-2.6-1.7-7.9c-0.6-2.4-1.1-4.8-1.2-5.6c0-0.1,0-0.3,0-0.4
						c0-1.1,0.2-1.4,1.1-2.4c0.5-0.6,2.1-1.8,3.5-2.8C1199.7,237.3,1200.7,236.4,1201.2,235.6"/>
				</g>
				<g>
					<path class="st26" d="M1181.7,213.1c0.4,0.1,0.8,0.2,1,0.4c0.9,0.9,1.9,4.3,2.8,7.6c1.1,4.1,1.7,6.1,2.2,7.1
						c0.9,1.6,2.1,1.9,6.9,2.6c5.9,0.9,6.7,1.5,7,2.7c0.1,0.2,0.1,0.4,0.1,0.6c0,0.4-0.1,0.9-0.5,1.5c-0.5,0.8-1.5,1.7-4.6,4
						c-1.4,1-2.9,2.2-3.5,2.8c-0.9,1-1.1,1.2-1.1,2.4c0,0.1,0,0.2,0,0.4c0.1,0.8,0.6,3.1,1.2,5.6c1.4,5.3,1.7,6.6,1.7,7.9
						c0,0.6,0,1-0.1,1.3c-0.1,0.3-0.2,0.5-0.3,0.7c0,0-0.1,0.1-0.1,0.1c-0.1,0.1-0.2,0.1-0.4,0.1c-0.1,0-0.2,0-0.3,0
						c-1-0.1-2.3-1.2-5.7-4.7c-3.8-3.9-4.9-4.9-5.8-5c-0.1,0-0.1,0-0.2,0c-0.2,0-0.4,0-0.7,0.2c-0.1,0-0.1,0.1-0.2,0.1
						c-0.8,0.3-1.9,1.1-3.9,2.6c-0.1,0.1-0.2,0.2-0.4,0.3c-0.1,0-0.1,0.1-0.2,0.1c-0.2,0.2-0.5,0.3-0.7,0.5
						c-0.3,0.2-0.6,0.4-0.9,0.6c-0.9,0.7-1.6,1.1-2.2,1.4c-0.3,0.2-0.5,0.3-0.8,0.3c-0.3,0.1-0.5,0.1-0.8,0.1c-0.2,0-0.3,0-0.4,0
						c-0.7-0.1-0.9-0.4-1-0.8c-0.1-0.4-0.2-0.8-0.2-1.3c0-1.4,0.4-3.5,1.5-7.4c0.5-1.9,1.1-4.2,1.2-4.9c0.1-0.5,0.1-0.9,0.1-1.2
						c0-0.5-0.1-0.9-0.4-1.4c-0.5-1-1.5-2.1-5-5.8c-2.8-2.9-3.7-4-4.2-5.3c-0.2-0.5-0.3-0.9-0.3-1.2c0-0.4,0.2-0.7,0.3-0.9
						c0.1-0.1,0.2-0.2,0.3-0.3c0.2-0.2,0.4-0.3,0.9-0.3c0.1,0,0.1,0,0.2,0c0.5,0,1.3,0.1,2.5,0.2c0.5,0.1,1.2,0.1,1.9,0.2
						c0.2,0,0.4,0,0.5,0.1l0.2,0c0.7,0.1,1.4,0.2,2,0.2c0.5,0.1,1,0.1,1.4,0.1c0.6,0.1,1.2,0.1,1.6,0.1c0.1,0,0.1,0,0.2,0
						c1.5-0.1,1.9-0.6,2.4-1.9c0,0,0-0.1,0.1-0.1c0.3-0.8,0.9-2.9,1.4-4.7c1-3.8,1.5-5.2,2-6.2
						C1181,213.8,1181.5,213.3,1181.7,213.1z"/>
				</g>
			</g>
		</g>
	</g>
	<g>
		<g>
			<g>
				<path class="st27" d="M773.3,217.3c0.3,0,0.7,0,1,0.1c0.8,0.4,1.6,2.2,2.8,6.2c1,3.5,1.6,5.2,2.2,6c0.8,1.2,2,1.2,7.3,0.5
					c6.1-0.7,7.2-0.4,7.6,0.6c0.1,0.3,0.2,0.8-0.5,1.9c-0.6,0.9-1.7,2-5.1,4.9c-1.5,1.3-3.2,2.9-3.8,3.5c-1.2,1.3-1.3,1.6-1.3,3
					c0,0.8,0.6,3.1,1.2,4.8c1.3,4.5,1.6,5.6,1.6,6.8c0,1.9-0.6,2.1-1.4,2.2c-1.1,0.2-2.4-0.4-6.1-2.8c-3.9-2.5-5.2-3.2-6.1-3
					c-0.8,0.1-1.9,0.8-5.8,4.2c-3.7,3.2-4.9,4.1-6.1,4.4c-0.2,0-0.3,0.1-0.4,0.1c-0.8,0.1-1-0.2-1.2-0.5c-0.5-1-0.1-2.9,1.6-8.2
					c0.6-1.8,1.3-4.1,1.4-4.9c0.3-1.3,0.3-1.7-0.3-2.5c-0.5-0.8-1.5-1.5-5.3-4c-2.9-1.9-3.9-2.7-4.4-3.7c-0.5-1-0.3-1.3,0.1-1.7
					c0.8-0.9,0.9-1,7-1.9l0.2,0c6.8-1,7.2-1,8.2-3.5c0.3-0.8,1.1-2.9,1.6-4.7c1.2-3.8,1.7-5.1,2.3-6.2c0.4-0.8,1-1.5,1.3-1.7
					C773.2,217.4,773.2,217.3,773.3,217.3z"/>
			</g>
			<g>
				<path d="M795.9,229.8c0.6,1.5-0.1,2.8-0.7,3.8c-0.8,1.2-2.1,2.4-5.6,5.4c-1.6,1.3-3.2,2.8-3.6,3.3c-0.3,0.4-0.6,0.7-0.7,0.8
					c0,0.1,0,0.3,0,0.6c0,0.4,0.4,2.1,1.1,4.4c1.3,4.5,1.7,5.8,1.7,7.4c0,3.4-2,4.2-3.2,4.4c-1.7,0.2-3.3-0.5-7.1-3
					c-1.3-0.9-4.4-2.8-5-2.8c-0.4,0.1-2.1,1.4-4.8,3.8c-4.1,3.6-5.4,4.5-6.9,4.8c-0.2,0-0.4,0.1-0.5,0.1c-1.3,0.2-2.3-0.2-2.8-1.3
					c-0.8-1.7-0.3-4,1.6-9.7c0.7-2,1.3-4,1.3-4.6c0.2-0.8,0.2-0.8,0-1.1c-0.4-0.6-1.9-1.6-4.9-3.6c-3.2-2.1-4.3-3-4.9-4.3
					c-0.8-1.5-0.6-2.8,0.5-4.1c1.3-1.5,2-1.6,8.2-2.5l0.2,0c6.1-0.9,6.1-0.9,6.6-2.1c0.3-0.7,1-2.7,1.6-4.6c1.3-4,1.8-5.4,2.5-6.6
					c0.6-1.1,1.5-2.1,2.2-2.5c0.3-0.2,0.6-0.2,0.9-0.3c0.7-0.1,1.5,0,2,0.3c1.3,0.7,2.1,2.5,3.5,7.2c0.6,2.2,1.4,4.7,1.9,5.5
					c0.3,0.4,1.1,0.5,5.9-0.1C792.9,227.6,795,227.7,795.9,229.8z M793.7,232.7c0.7-1.1,0.7-1.6,0.5-1.9c-0.4-1-1.5-1.3-7.6-0.6
					c-5.4,0.6-6.5,0.6-7.3-0.5c-0.5-0.8-1.1-2.4-2.2-6c-1.2-4-2-5.8-2.8-6.2c-0.3-0.2-0.7-0.2-1-0.1c-0.1,0-0.1,0-0.2,0
					c-0.3,0.2-0.9,0.9-1.3,1.7c-0.6,1-1.1,2.4-2.3,6.2c-0.6,1.8-1.3,3.9-1.6,4.7c-1,2.5-1.4,2.5-8.2,3.5l-0.2,0
					c-6.2,0.9-6.2,1-7,1.9c-0.4,0.4-0.6,0.8-0.1,1.7c0.5,1,1.5,1.8,4.4,3.7c3.8,2.5,4.8,3.2,5.3,4c0.5,0.8,0.5,1.2,0.3,2.5
					c-0.1,0.8-0.8,3.1-1.4,4.9c-1.8,5.3-2.1,7.2-1.6,8.2c0.2,0.3,0.4,0.6,1.2,0.5c0.1,0,0.3,0,0.4-0.1c1.1-0.3,2.3-1.1,6.1-4.4
					c4-3.4,5.1-4.1,5.8-4.2c0.9-0.1,2.2,0.5,6.1,3c3.6,2.4,5,3,6.1,2.8c0.8-0.1,1.4-0.3,1.4-2.2c0-1.2-0.3-2.3-1.6-6.8
					c-0.5-1.7-1.1-4-1.2-4.8c-0.1-1.4,0.1-1.7,1.3-3c0.6-0.7,2.3-2.2,3.8-3.5C792,234.6,793.1,233.6,793.7,232.7"/>
			</g>
		</g>
	</g>
	<path class="st41" d="M457.3,386.4l-30.5,1.6c0,0-7.6,7.1,0,12l-0.5,21.5c0,0,0.6,15.9,12.8,3.6C439,425.1,455.9,389.9,457.3,386.4
		z"/>
	<linearGradient id="SVGID_36_" gradientUnits="userSpaceOnUse" x1="432.805" y1="389.7936" x2="1561.2902" y2="389.7936">
		<stop  offset="0" style="stop-color:#383838"/>
		<stop  offset="4.311621e-02" style="stop-color:#555555"/>
		<stop  offset="0.1009" style="stop-color:#747474"/>
		<stop  offset="0.1665" style="stop-color:#909090"/>
		<stop  offset="0.2405" style="stop-color:#A6A6A6"/>
		<stop  offset="0.327" style="stop-color:#B7B7B7"/>
		<stop  offset="0.4338" style="stop-color:#C2C2C2"/>
		<stop  offset="0.5837" style="stop-color:#C9C9C9"/>
		<stop  offset="1" style="stop-color:#CBCBCB"/>
	</linearGradient>
	<path class="st48" d="M457.3,416.8c-0.5,1.4-16.1,18.8-16.1,18.8s-4.1,3.8-7.1,2.2c-3-1.6,0-6.3,0-6.3c8.6-8.8,19.4-35.5,23.1-45.2
		c0.9-2.2,1.3-3.5,1.3-3.5c119.6-49.2,261.7-5.2,261.7-5.2s-17.7-4.1-37.8-9.8c-20.1-5.7,4.9-9.8,4.9-9.8
		c305.3-82.7,416.1-53.7,419.9-43.5c3.8,10.2,8.9,10.7,8.9,10.7c22.3,2.7,94.2,57,94.2,57l54.3-0.4c0,0-78.5-32.9-84.5-35.7
		c-6-2.8-7-4.4-5.5-7.3s9.2-1.1,9.2-1.1s87.1,33.4,98.3,39.2c11.2,5.8,17.7,4.3,17.7,4.3c113.1-35.3,256.6,57.1,256.6,57.1
		s6,4.6,4.6,7.6c-1.4,3-9.5,1.9-9.5,1.9l-69.1-15c4.6,6.8,31.8,14.7,31.8,14.7s9,1.6,7.3,6c-1.6,4.4-7.1,4.1-7.1,4.1
		c-35.6,1.4-59-25.8-59-25.8c10.9,17.4,8.7,41.4,8.7,41.4s-1.4,5.2-4.4,5.2c-3,0-4.4-5.6-4.4-5.6c-4.4-31.7-35.1-54.2-35.1-54.2
		s-30.5-22.9-77.3-16.3c-46.8,6.5-68,41.1-71.6,48.7c-3.5,7.6-6.3,6.3-6.3,6.3s-2.7,0.8-2.7-8.4c0-9.3,15.5-30.5,15.5-30.5
		c-56.9,56.3-81.9,51.7-81.9,51.7l-69.9-0.3c0,0-5.2-1.4-5.2-4.4c0-3,3.8-4.1,3.8-4.1s16.1-1.6,51.2-3c35.1-1.4,52-25.6,52-25.6
		s-289.2,4.9-307.5,4.9c-18.2,0-11.7-9.8-11.7-9.8l27.2-16.6l13.3-0.5l-13.3,0.5l-1.4,0.1l-83.3,45.2l173.9,4.6
		c0,0,10.3,1.1,10.1,4.6s-10.9,3.5-10.9,3.5l-232.4-3c0,0-3.3-1.1-3.3-4.4s4.4-3.5,4.4-3.5l31-2.4l64.5-35.9l-109.1-3
		c0,0-21.5,19.6-25.3,22.6c-3.8,3-6.3,2.7-7.9,0.5c-1.6-2.2,2.4-6.8,2.4-6.8l27.8-27.5c0,0,13.6-9,8.7-15.5
		c-4.9-6.5,1.9-6.5,1.9-6.5l70.2,2.7l-90.6-7.1c28.6,16.9-3.8,27.8-3.8,27.8l-89.2-3.5c26.7,11.7,39.2,54.7,37.3,64.5
		c-1.9,9.8-7.3,0-7.3,0s-12.8-64.8-94.4-64.5c-81.6,0.3-106.4,63.4-106.4,63.4s-4.4,13.1-7.3,0c-2.9-13.1,22.5-51.5,22.5-51.5
		c-8-2.9-53,0-53,0S457.8,415.5,457.3,416.8z M1019.9,374.8l165.1,7.6c0,0-12-13.8-85.3-48.6s-226.4,4.7-226.4,4.7
		C876.3,340.3,1019.9,374.8,1019.9,374.8z"/>
</g>
</svg>
