<?xml version="1.0" encoding="utf-8"?>
<!-- Generator: Adobe Illustrator 21.0.0, SVG Export Plug-In . SVG Version: 6.00 Build 0)  -->
<svg version="1.1" xmlns="http://www.w3.org/2000/svg" xmlns:xlink="http://www.w3.org/1999/xlink" x="0px" y="0px"
	 viewBox="0 0 500 500" style="enable-background:new 0 0 500 500;" xml:space="preserve">
<style type="text/css">
	.st0{fill:#FEFEFE;stroke:#FFFFFF;stroke-width:5;stroke-miterlimit:10;}
	.st1{fill:none;stroke:#FFFFFF;stroke-width:20;stroke-miterlimit:10;}
	.st2{fill:#FFFFFF;stroke:#000000;stroke-width:0.25;stroke-miterlimit:10;}
	.st3{display:none;}
	.st4{display:inline;stroke:#000000;stroke-width:12;stroke-miterlimit:10;}
	.st5{display:inline;fill:none;stroke:#000000;stroke-width:12;stroke-miterlimit:10;}
</style>
<g id="Capa_1">
	<path class="st0" d="M-313.9-199.4v17.2c117.4,4.4,211.3,101,211.3,219.5c0,118.6-94,215.2-211.6,219.5v17.2
		c127.1-4.2,228.8-108.6,228.8-236.7C-85.4-90.8-186.9-195-313.9-199.4z"/>
	<path class="st0" d="M-326.4,256.8c-119.4-2.2-215.5-99.7-215.5-219.6c0-119.8,95.9-217.2,215.2-219.6v-17.2
		C-455.4-197.2-559-92.1-559,37.2c0,129.4,103.8,234.6,232.6,236.8V256.8z"/>
	<rect x="-341.9" y="-192.8" class="st0" width="15.3" height="329.3"/>
	<rect x="-468.4" y="-76.2" class="st0" width="15.3" height="212.5"/>
	<rect x="-314" y="-76.5" class="st0" width="15.3" height="346.7"/>
	<rect x="-189.1" y="-76.1" class="st0" width="15.3" height="212.5"/>
	<line class="st1" x1="-459" y1="-73" x2="-335" y2="134"/>
	<line class="st1" x1="-304.3" y1="-74" x2="-183.7" y2="135"/>
	<g>
		<path class="st2" d="M328.7,267.7c-0.3-0.3-0.6-0.6-0.9-0.9c-0.5-0.3-0.7-0.7-0.7-1.3c0-0.2,0-0.3,0-0.5c0-0.5-0.2-1-0.7-1.2
			c-0.7-0.4-0.9-0.9-0.9-1.7c0.1-0.7-0.2-1.3-0.9-1.7c-0.6-0.3-0.8-0.8-0.7-1.5c0-0.7-0.2-1.3-0.8-1.7c-0.7-0.5-1.4-1.2-2-1.9
			c-0.2-0.2-0.3-0.4-0.3-0.7c-0.1-0.3,0-0.7-0.1-1c0-0.4-0.2-0.8-0.6-1.1c-0.8-0.4-1.1-1-1-1.9c0-0.5-0.1-1-0.6-1.3
			c-0.3-0.2-0.6-0.6-0.9-0.8c-0.8-0.8-1.6-1.7-2.5-2.5c-0.6-0.5-0.8-1-0.8-1.7c0.1-0.7-0.2-1.1-0.7-1.5c-0.3-0.2-0.6-0.6-0.9-0.9
			c-0.3-0.3-0.6-0.6-0.9-0.8c-0.5-0.3-0.6-0.8-0.6-1.3c0-0.2,0-0.3,0-0.5c0-0.6-0.2-1-0.7-1.2c-0.6-0.4-0.9-0.9-0.9-1.7
			c0-0.7-0.2-1.3-0.9-1.7c-0.5-0.3-0.7-0.7-0.7-1.2c0-0.3,0-0.5,0-0.8c0-0.3-0.2-0.6-0.4-0.9c-0.6-0.5-1-1.1-1.6-1.6
			c-0.9-0.6-1.2-1.3-1.1-2.3c0-0.4-0.2-0.8-0.6-1c-0.8-0.4-1-1-1-1.9c0-0.6-0.3-1.1-0.8-1.5c-1.2-1.1-2.3-2.2-3.4-3.3
			c-0.4-0.4-0.6-0.8-0.6-1.3c0-0.2,0-0.3,0-0.5c0-0.5-0.3-1-0.8-1.2c-0.6-0.3-0.8-0.8-0.8-1.4c0-0.1,0-0.2,0-0.3
			c0.1-0.7-0.2-1.2-0.8-1.5c-0.7-0.4-0.9-0.9-0.8-1.7c0-0.2,0-0.4,0-0.5c-0.1-0.3-0.2-0.7-0.5-0.9c-1.1-0.9-2-2-3.1-3
			c-0.8-0.7-1.4-1.4-1.3-2.5c0.1-0.4-0.2-0.8-0.6-1c-0.7-0.4-1-0.9-0.9-1.6c0.1-0.7-0.3-1.3-0.8-1.7c-0.7-0.6-1.4-1.2-2-1.9
			c-0.2-0.2-0.3-0.6-0.4-0.9c0-0.6,0-1.2,0-1.8c0.1-0.7-0.1-1.3-0.7-1.7c-0.6-0.5-1-1.1-1.6-1.5c-0.6-0.4-0.9-1-0.8-1.7
			c0.1-0.8-0.3-1.2-0.9-1.7c-1-0.9-1.8-2-2.8-2.8c-0.7-0.6-1.2-1.2-1.1-2.1c0-0.5-0.2-1-0.7-1.3c-0.6-0.4-1-0.8-0.9-1.6
			c0.1-0.7-0.2-1.3-0.8-1.7c-0.7-0.5-1.3-1.2-2-1.9c-0.3-0.2-0.4-0.6-0.4-0.9c0-0.3,0-0.5,0-0.8c-0.1-0.3-0.2-0.7-0.4-0.9
			c-0.5-0.6-1-1.1-1.6-1.6c-0.1-0.1-0.5-0.2-0.7-0.1c-0.2,0.1-0.4,0.3-0.5,0.5c-0.1,0.2-0.1,0.5-0.1,0.7c0,1.8,0.1,3.5,0.1,5.3
			c0,91.5,0,183,0,274.5c0,1.4,0,2.9,0,4.3c0,0.4,0,0.8,0.1,1.3c0,0.3,0.5,0.8,0.8,0.9c0.2,0,0.5,0.1,0.7,0.1c3.2,0,6.4,0,9.6,0
			c0.6,0,1.1-0.2,1.5-0.7c0.5-0.7,1.2-0.9,2-0.9c1.9,0,3.9,0,5.8,0c0.8,0,1.5-0.2,1.9-0.9c0.3-0.5,0.9-0.7,1.5-0.7c0.3,0,0.7,0,1,0
			c0.5,0,1,0,1.5,0c1.1,0.1,2-0.1,2.6-1.1c0.2-0.4,0.7-0.5,1.1-0.5c1.6,0,3.2,0,4.8,0c0.7,0,1.3,0,2,0c0.5,0,1-0.2,1.3-0.7
			c0.1-0.1,0.2-0.3,0.3-0.4c0.3-0.3,0.6-0.6,1.1-0.5c0.9,0.1,1.6-0.3,2.1-1.1c0.2-0.4,0.7-0.5,1.1-0.5c0.5,0,1,0,1.5,0
			c0.7,0,1.3,0,2,0c0.6,0,1.2-0.2,1.5-0.7c0.4-0.6,0.9-0.9,1.7-0.9c0.7,0.1,1.1-0.3,1.5-0.8c0.4-0.6,1-0.8,1.7-0.8
			c1.1,0,2.2,0,3.3,0c0.5,0,1-0.1,1.3-0.6c0-0.1,0.1-0.1,0.2-0.2c0.4-0.5,0.8-0.8,1.5-0.8c0.7,0.1,1.3-0.2,1.7-0.8
			c0.3-0.5,0.8-0.8,1.5-0.8c0.7,0,1.3-0.2,1.7-0.8c0.3-0.5,0.9-0.8,1.5-0.8c0.9,0.1,1.4-0.4,1.9-1c0.3-0.4,0.6-0.6,1.1-0.6
			c0.5,0,1,0,1.5,0c0.9,0.1,1.6-0.2,2.2-1c0.3-0.4,0.8-0.6,1.3-0.6c0.8,0.1,1.4-0.3,1.9-1c0.5-0.6,1.1-1.1,1.6-1.6
			c0.4-0.4,0.8-0.6,1.3-0.6c0.7,0,1.3-0.2,1.7-0.8c0.3-0.5,0.8-0.8,1.5-0.8c0.7,0,1.3-0.2,1.7-0.8c0.3-0.5,0.8-0.8,1.5-0.8
			c0.7,0,1.3-0.2,1.7-0.8c0.4-0.6,1-0.9,1.7-0.8c0.5,0,0.9-0.2,1.3-0.6c0.6-0.7,1.3-1.3,1.9-2c0.4-0.4,0.8-0.6,1.3-0.6
			c0.9,0.1,1.4-0.3,1.9-1c0.3-0.5,0.8-0.6,1.3-0.6c0.8,0.1,1.2-0.3,1.7-0.8c1-1.1,2.1-2.1,3.2-3.2c0.4-0.5,0.9-0.8,1.5-0.8
			c0.7,0,1.3-0.2,1.7-0.8c0.5-0.6,1.1-1.1,1.6-1.6c0.4-0.5,0.8-0.8,1.5-0.8c0.7,0.1,1.3-0.2,1.7-0.8c0.3-0.5,0.9-0.8,1.5-0.8
			c0.7,0,1.2-0.3,1.7-0.8c2.9-3,5.9-5.9,8.9-8.9c2.3-2.3,4.6-4.6,6.9-6.9c2.4-2.4,4.8-4.9,7.3-7.3c2.4-2.4,4.9-4.8,7.3-7.3
			c0.3-0.3,0.6-0.6,0.9-0.9c0.4-0.3,0.7-0.7,0.7-1.3c0-0.3,0-0.5,0-0.8c0-0.3,0.2-0.6,0.5-0.9c1.3-1.3,2.7-2.5,4-3.8
			c0.2-0.2,0.2-0.4,0.3-0.7c0.1-0.3,0-0.7,0-1c0-0.4,0.2-0.6,0.4-0.9c1.3-1.3,2.7-2.5,4-3.8c0.2-0.2,0.3-0.4,0.3-0.7
			c0.1-0.3,0-0.7,0.1-1c0-0.3,0.2-0.6,0.4-0.9c1.9-1.8,3.7-3.6,5.6-5.4c0.3-0.2,0.4-0.6,0.4-0.9c0-0.3,0-0.5,0-0.8
			c0-0.5,0.2-0.8,0.6-1c0.8-0.4,1.1-1,1-1.9c0-0.6,0.3-1.1,0.8-1.5c0.7-0.5,1.2-1.2,1.8-1.7c0.4-0.4,0.6-0.8,0.6-1.3
			c0-0.2,0-0.3,0-0.5c0-0.4,0.2-0.8,0.5-1.1c0.7-0.4,1.1-1,1-1.8c-0.1-0.7,0.3-1.3,0.9-1.6c0.5-0.3,0.7-0.7,0.7-1.3
			c0-0.2,0-0.3,0-0.5c0-0.6,0.2-1,0.7-1.2c0.7-0.3,1-0.9,0.9-1.6c-0.1-0.7,0.2-1.3,0.8-1.7c0.4-0.3,0.7-0.8,1.1-1.1
			c0.9-0.6,1.4-1.3,1.3-2.5c0-0.5,0.4-0.9,0.8-1.2c0.6-0.3,0.8-0.8,0.8-1.5c0-0.5,0-1-0.1-1.5c-0.1-0.8,0.2-1.5,1-1.9
			c0.5-0.3,0.7-0.7,0.7-1.3c0-0.6,0-1.2,0-1.8c0-0.7,0.2-1.3,0.9-1.7c0.1,0,0.1-0.1,0.2-0.1c0.4-0.3,0.6-0.6,0.5-1.1
			c-0.2-1.1,0.3-1.7,1.2-2.3c0.3-0.2,0.4-0.5,0.4-0.9c0-0.5,0-1,0-1.5c-0.1-1,0.1-1.8,1.1-2.3c0.4-0.2,0.5-0.6,0.5-1.1
			c0-0.8,0-1.5,0-2.3c0-0.4,0.2-0.8,0.6-1.1c0.1-0.1,0.3-0.2,0.4-0.3c0.4-0.2,0.6-0.6,0.6-1c0-0.3,0-0.5,0-0.8
			c0-0.4,0.1-0.9,0.5-1.1c1-0.5,1.2-1.3,1.1-2.3c-0.1-0.9,0-1.8-0.1-2.8c0-0.6,0.2-1.1,0.8-1.5c0.1-0.1,0.3-0.2,0.4-0.3
			c0.2-0.3,0.4-0.6,0.4-0.9c0-1.1,0-2.2,0-3.3c0-0.9,0.2-1.6,1-2.1c0.5-0.3,0.6-0.8,0.6-1.3c0-1.2,0-2.4-0.1-3.5
			c0-0.5,0.2-1,0.6-1.3c0.1-0.1,0.1-0.1,0.2-0.1c0.7-0.4,0.8-1,0.8-1.7c0-1.3,0-2.5,0-3.8c0-0.4,0-0.8,0-1.3c0-0.4,0.2-0.8,0.6-1.1
			c0.1-0.1,0.3-0.2,0.4-0.3c0.5-0.3,0.6-0.8,0.6-1.3c0-1.2,0-2.4,0-3.5c0-0.6,0-1.2,0-1.8c0-0.4,0.2-0.8,0.5-1.1
			c0.2-0.2,0.4-0.3,0.6-0.4c0.3-0.2,0.4-0.5,0.5-0.9c0-0.5,0-1,0-1.5c0-2.9,0-5.7,0-8.6c0-0.6,0.1-1.2,0.7-1.5
			c0.2-0.1,0.4-0.3,0.6-0.5c0.1-0.2,0.3-0.4,0.3-0.7c0.1-0.3,0-0.7,0-1c0-11.4,0-22.9,0-34.3c0-0.2,0-0.3,0-0.5c0-0.5-0.2-1-0.6-1.3
			c-0.1-0.1-0.3-0.2-0.4-0.3c-0.4-0.3-0.6-0.8-0.6-1.3c0-1,0-2,0-3c0-1,0-2,0-3c0.1-1-0.2-1.8-1.1-2.3c-0.4-0.2-0.5-0.6-0.5-1.1
			c0-1.9,0-3.7,0-5.6c0-0.5,0-1,0-1.5c0-0.3-0.2-0.6-0.4-0.9c-0.2-0.3-0.6-0.4-0.8-0.6c-0.2-0.2-0.4-0.6-0.4-0.9c0-1.3,0-2.5,0-3.8
			c0-0.6-0.2-1-0.6-1.3c-0.2-0.1-0.4-0.3-0.6-0.5c-0.3-0.2-0.4-0.5-0.4-0.9c0-1.8,0-3.5,0-5.3c0-0.6,0-1.2,0-1.8
			c0-0.5-0.2-1-0.7-1.3c-0.1-0.1-0.3-0.2-0.4-0.3c-0.3-0.2-0.5-0.5-0.5-0.8c0-0.3,0-0.7,0-1c0-0.4-0.2-0.8-0.6-1
			c-0.1-0.1-0.3-0.2-0.4-0.3c-0.3-0.3-0.5-0.7-0.5-1.1c0-1.1,0-2.2,0-3.3c0-0.8-0.1-1.5-0.9-1.9c-0.6-0.3-0.7-0.9-0.7-1.5
			c0-0.3,0-0.5,0-0.8c0-0.3,0-0.5,0-0.8c0.1-0.7-0.1-1.3-0.8-1.7c-0.7-0.4-0.9-1-0.8-1.7c0-0.3,0-0.7,0-1c0.1-1-0.1-1.8-1.1-2.3
			c-0.4-0.2-0.5-0.6-0.5-1.1c0-0.5,0-1,0-1.5c0.1-0.9-0.1-1.7-1-2.1c-0.4-0.2-0.6-0.6-0.6-1c0-0.2,0-0.3,0-0.5
			c0.1-0.6-0.2-1.2-0.7-1.5c-0.8-0.4-1-1.1-0.9-1.9c0-0.4,0-0.8,0-1.3c0-0.7-0.2-1.3-0.8-1.7c-0.6-0.3-0.8-0.8-0.8-1.5
			c0.1-0.8-0.3-1.5-1-1.9c-0.4-0.2-0.6-0.6-0.6-1c0-0.2,0-0.3,0-0.5c0-0.6-0.2-1.1-0.8-1.5c-0.6-0.3-0.8-0.8-0.8-1.4
			c0-0.2,0-0.3,0-0.5c0-0.5-0.3-1-0.7-1.2c-0.7-0.4-0.9-0.9-0.9-1.7c0-0.1,0-0.2,0-0.3c0-0.5-0.2-1-0.7-1.2c-0.7-0.4-1-0.9-0.9-1.7
			c0.1-0.8-0.2-1.3-0.9-1.7c-0.5-0.3-0.7-0.7-0.7-1.2c0-0.3,0-0.7-0.1-1c-0.1-0.2-0.2-0.5-0.4-0.6c-1-0.5-1.2-1.3-1.2-2.3
			c0-0.3-0.2-0.7-0.4-0.9c-0.5-0.6-1-1.2-1.6-1.6c-0.9-0.6-1.3-1.3-1.2-2.3c0-0.3-0.1-0.7-0.4-0.9c-1.3-1.2-2.5-2.4-3.8-3.6
			c-0.3-0.3-0.5-0.6-0.6-1.1c0-0.2,0-0.3,0-0.5c0-0.6-0.2-1.2-0.8-1.5c-0.6-0.3-0.9-0.8-0.8-1.4c0-0.3,0-0.5,0-0.8
			c-0.1-0.2-0.1-0.5-0.3-0.7c-1.4-1.1-2.4-2.6-3.8-3.6c-0.4-0.3-0.6-0.8-0.6-1.3c0-0.3,0-0.5,0-0.8c0-0.2-0.1-0.5-0.3-0.7
			c-1.9-1.7-3.5-3.6-5.4-5.3c-0.5-0.4-0.7-0.9-0.7-1.5c0-0.2,0-0.3,0-0.5c0-0.4-0.2-0.6-0.4-0.9c-3.2-3-6.2-6.1-9.3-9.2
			c-3.5-3.5-7-6.9-10.5-10.4c-2.4-2.4-4.8-4.9-7.2-7.3c-0.3-0.3-0.7-0.4-1.1-0.4c-0.7,0-1.2-0.2-1.7-0.8c-1.7-1.8-3.4-3.5-5.1-5.2
			c-0.3-0.3-0.7-0.4-1.1-0.4c-0.7,0.1-1.3-0.2-1.7-0.8c-0.4-0.6-1-0.8-1.7-0.8c-0.4,0-0.8-0.1-1.2-0.4c-1.2-1.3-2.5-2.5-3.7-3.8
			c-0.4-0.4-0.8-0.7-1.3-0.6c-0.7,0.1-1.2-0.2-1.7-0.8c-1.1-1.2-2.3-2.4-3.5-3.6c-0.2-0.2-0.6-0.3-0.9-0.4c-0.3-0.1-0.7,0-1-0.1
			c-0.2-0.1-0.5-0.2-0.6-0.4c-0.6-0.8-1.2-1.3-2.3-1.2c-0.5,0-0.8-0.2-1.1-0.6c-0.1-0.1-0.2-0.3-0.3-0.4c-0.3-0.4-0.6-0.6-1.1-0.6
			c-0.9,0-1.6-0.2-2.2-1c-0.3-0.4-0.8-0.6-1.3-0.6c-0.9,0.1-1.4-0.3-1.9-1c-0.3-0.5-0.8-0.6-1.3-0.6c-0.7,0.1-1.3-0.2-1.7-0.8
			c-0.3-0.5-0.8-0.8-1.5-0.8c-0.7,0-1.3-0.2-1.7-0.8c-0.3-0.5-0.8-0.8-1.5-0.8c-0.7,0-1.3-0.2-1.7-0.8c-0.3-0.5-0.8-0.8-1.5-0.8
			c-0.7,0.1-1.3-0.2-1.7-0.8c-0.3-0.6-0.8-0.8-1.5-0.8c-0.7,0-1.3-0.2-1.7-0.8c-0.3-0.5-0.9-0.8-1.5-0.8c-0.9,0.1-1.4-0.4-1.9-1
			c-0.3-0.4-0.6-0.5-1.1-0.5c-0.6,0-1.2,0-1.8,0c-0.7,0-1.3-0.2-1.7-0.8c-0.4-0.6-1-0.8-1.7-0.8c-0.3,0-0.5,0-0.8,0
			c-1.1,0.1-2-0.1-2.6-1.1c-0.2-0.4-0.7-0.5-1.1-0.5c-0.3,0-0.5,0-0.8,0c-0.2-0.1-0.5-0.2-0.6-0.3c-0.7-1.2-1.8-1.3-3-1.2
			c-0.6,0-1.2,0-1.8,0c-0.9,0-1.6-0.2-2.2-1c-0.3-0.5-0.8-0.6-1.3-0.6c-0.3,0-0.7,0-1,0c-1.1,0.1-2-0.1-2.6-1.1
			c-0.2-0.4-0.7-0.5-1.1-0.5c-0.8,0-1.7,0-2.5,0c-0.6,0-1.2,0-1.8,0c-1.1,0.1-2-0.1-2.6-1.1c-0.1-0.2-0.6-0.4-0.9-0.4
			c-0.5-0.1-1-0.1-1.5,0c-1,0.1-1.8-0.2-2.4-1.1c-0.2-0.4-0.7-0.5-1.1-0.5c-1.7,0-3.4,0-5,0c-0.9,0-1.9,0-2.8,0
			c-0.9,0-1.6-0.2-2.2-1c-0.3-0.5-0.8-0.6-1.3-0.6c-2.3,0-4.5,0-6.8,0c-1.3,0-2.5,0-3.8,0c-1.1,0-2-0.1-2.6-1.1
			c-0.2-0.3-0.5-0.4-0.9-0.5c-0.6,0-1.2,0-1.8,0c-2.3,0-4.5,0-6.8,0c-0.6,0-1.2,0-1.8,0c-0.9,0-1.3-0.5-1.3-1.5c0-0.1,0-0.2,0-0.3
			c0-3.2,0-6.4,0-9.6c0-0.3,0.1-0.7,0.1-1c0-0.1,0.2-0.3,0.3-0.3c0.3-0.1,0.7-0.1,1-0.1c6,0,11.9,0,17.9,0c0.3,0,0.5,0,0.7,0.1
			c0.2,0.1,0.5,0.2,0.6,0.4c0.4,1,1.1,1.1,2,1.1c2.5,0,5,0,7.6,0c0.7,0,1.3,0.2,1.7,0.8c0.3,0.5,0.9,0.8,1.5,0.8c1.7,0,3.4,0,5,0
			c0.5,0,1,0.2,1.3,0.6c0.1,0.1,0.2,0.3,0.3,0.4c0.3,0.3,0.6,0.5,1.1,0.5c1.2,0,2.4,0,3.5,0c0.6,0,1.2,0.2,1.5,0.7
			c0.4,0.6,1,0.9,1.7,0.9c1.1,0,2.2,0,3.3,0c0.5,0,1,0.2,1.3,0.6c0.2,0.2,0.3,0.4,0.5,0.6c0.2,0.3,0.5,0.4,0.9,0.4
			c1.1,0,2.2,0,3.3,0c0.8,0,1.5,0.2,2,0.9c0.4,0.5,0.9,0.7,1.5,0.7c0.3,0,0.7,0,1,0c0.3,0,0.5,0,0.8,0c0.5,0,1,0.2,1.3,0.6
			c0.1,0.2,0.3,0.4,0.5,0.6c0.2,0.2,0.4,0.3,0.7,0.3c0.6,0.1,1.2,0.1,1.8,0.1c0.9,0,1.6,0.2,2.2,1c0.3,0.5,0.8,0.6,1.3,0.6
			c0.3,0,0.5,0,0.8,0.1c0.2,0.1,0.5,0.2,0.6,0.3c0.7,1.1,1.6,1.3,2.8,1.2c0.3,0,0.7,0,1,0c0.4,0,0.8,0.2,1.1,0.5
			c0.1,0.1,0.1,0.1,0.2,0.2c0.4,0.8,1.1,0.9,1.9,0.9c0.5,0,1,0,1.5,0c0.5,0,1,0.2,1.3,0.7c0.5,0.7,1.1,1,1.9,0.9
			c0.5-0.1,1,0.2,1.3,0.7c0.4,0.6,0.9,1,1.7,0.9c0.7,0,1.3,0.2,1.7,0.9c0.4,0.6,0.9,0.8,1.5,0.7c0.8-0.1,1.3,0.2,1.7,0.9
			c0.3,0.6,0.9,0.8,1.5,0.7c0.8-0.1,1.3,0.3,1.7,0.9c0.3,0.6,0.9,0.8,1.5,0.7c0.7,0,1.3,0.3,1.7,0.9c0.4,0.5,0.9,0.8,1.5,0.7
			c0.8-0.1,1.3,0.3,1.7,0.9c0.4,0.6,0.9,0.8,1.5,0.7c0.6,0,1.2,0.2,1.5,0.7c0.4,0.6,0.9,0.9,1.7,0.9c0.7,0,1.3,0.3,1.7,0.9
			c0.4,0.5,0.9,0.7,1.5,0.7c0.6,0,1.1,0.2,1.5,0.7c1,1.1,2.1,2,3,3c0.6,0.7,1.2,1.1,2.1,1.1c0.5,0,1,0.3,1.3,0.7
			c0.4,0.6,1,0.9,1.7,0.9c0.6,0,1.1,0.2,1.5,0.7c0.4,0.5,1,0.9,1.4,1.4c0.5,0.8,1.2,1.1,2.1,1.1c0.4,0,0.8,0.2,1.1,0.5
			c1.5,1.7,3.2,3.2,4.8,4.8c0.6,0.6,1.2,1.2,2.1,1.1c0.4,0,0.8,0.2,1.1,0.5c0.5,0.6,1.1,1,1.6,1.6c0.6,0.7,1.2,1.1,2.1,1.1
			c0.4,0,0.8,0.2,1.1,0.5c3.1,3.1,6.2,6.2,9.2,9.2c2.2,2.3,4.5,4.5,6.7,6.8c3.7,3.7,7.4,7.3,11,11c1.7,1.7,3.4,3.5,5.1,5.2
			c0.4,0.4,0.7,0.7,1.1,1c0.4,0.3,0.5,0.7,0.5,1.1c0,0.2,0,0.3,0,0.5c0,0.5,0.2,1,0.6,1.3c0.1,0,0.1,0.1,0.2,0.1
			c0.5,0.3,0.8,0.8,0.8,1.5c0,0.2,0,0.5,0.1,0.8c0.1,0.2,0.2,0.5,0.3,0.7c1.2,1,2.3,2.2,3.4,3.3c0.9,1,1.8,2,2.8,2.8
			c0.9,0.7,1.5,1.5,1.4,2.7c0,0.2,0.2,0.5,0.3,0.7c0.7,0.7,1.5,1.4,2.2,2c0.4,0.4,0.6,0.8,0.6,1.3c-0.1,0.8,0.2,1.5,0.9,1.9
			c0.5,0.3,0.7,0.7,0.7,1.3c0,0.2,0,0.3,0,0.5c0,0.5,0.2,1,0.7,1.2c0.7,0.4,0.9,0.9,0.9,1.7c-0.1,0.7,0.3,1.2,0.9,1.7
			c0.9,0.8,1.7,1.9,2.7,2.6c0.9,0.7,1.4,1.4,1.3,2.5c-0.1,0.4,0.2,0.8,0.6,1c0.8,0.4,1,1,1,1.9c0,0.2,0,0.3,0.1,0.5
			c0.1,0.2,0.2,0.5,0.4,0.6c0.9,0.5,1.3,1.3,1.2,2.3c0,0.6,0.3,1,0.8,1.2c0.6,0.3,0.8,0.8,0.8,1.5c0,0.1,0,0.2,0,0.3
			c0,0.6,0.2,1.1,0.8,1.5c0.6,0.3,0.8,0.8,0.8,1.5c0,0.1,0,0.2,0,0.3c0,0.8,0.3,1.3,1,1.6c0.5,0.3,0.7,0.7,0.7,1.3c0,0.3,0,0.7,0,1
			c-0.2,1.2,0.1,2.1,1.2,2.8c0.2,0.1,0.3,0.4,0.3,0.6c0.1,0.3,0,0.7,0.1,1c0,0.4,0.2,0.8,0.6,1.1c0.2,0.1,0.5,0.2,0.6,0.4
			c0.2,0.3,0.4,0.6,0.4,0.9c0.1,0.5,0,1,0,1.5c-0.1,1,0.2,1.8,1.1,2.3c0.3,0.2,0.5,0.5,0.5,0.8c0,0.3,0,0.5,0,0.8
			c0,0.5,0.2,1,0.7,1.3c0.7,0.4,1,0.9,0.9,1.6c-0.1,0.9,0.4,1.4,1,1.9c0.4,0.2,0.6,0.6,0.6,1.1c0,0.6,0,1.2,0,1.8
			c-0.1,0.8,0.2,1.5,1,1.9c0.5,0.3,0.7,0.7,0.7,1.3c0,0.6,0,1.2,0,1.8c0,0.7,0.2,1.3,0.9,1.7c0.1,0,0.1,0.1,0.2,0.1
			c0.4,0.3,0.6,0.6,0.6,1.1c0,0.5,0,1,0,1.5c-0.1,1,0.2,1.8,1.1,2.3c0.4,0.2,0.5,0.6,0.5,1.1c0,0.7,0,1.3,0,2c0,0.5,0.1,1,0.6,1.3
			c0.1,0.1,0.3,0.2,0.4,0.3c0.4,0.3,0.6,0.8,0.6,1.3c0,0.9,0,1.8,0,2.8c0,0.6,0,1.2,0,1.8c-0.1,0.9,0.1,1.6,1,2.1
			c0.6,0.3,0.7,0.9,0.7,1.5c0,1.6,0,3.2-0.1,4.8c0,0.6,0.2,1.2,0.7,1.5c0.8,0.4,0.9,1.1,0.9,1.9c0,2.1,0,4.2-0.1,6.3
			c0,0.5,0.2,1,0.6,1.3c0.2,0.2,0.4,0.3,0.6,0.5c0.2,0.3,0.4,0.6,0.4,0.9c0.1,0.7,0,1.3,0,2c0,2.6,0,5.2,0,7.8
			c0,0.8,0.2,1.5,1.1,1.8c0.3,0.1,0.5,0.5,0.5,0.8c0,0.6,0,1.2,0,1.8c0,11,0,22,0,33.1c0,0.6,0,1.2,0,1.8c0,0.4-0.2,0.8-0.7,1
			c-0.6,0.2-0.9,0.7-0.9,1.4c0,2.8,0,5.6,0,8.3c0,0.5,0,1,0,1.5c0,0.6-0.2,1.2-0.7,1.5c-0.1,0.1-0.3,0.2-0.4,0.3
			c-0.3,0.2-0.4,0.5-0.5,0.9c0,0.5,0,1,0,1.5c0,2.8,0,5.6,0,8.3c0,0.8-0.1,1.5-0.9,1.9c-0.6,0.3-0.8,0.9-0.7,1.5
			c0,1.1,0,2.2,0.1,3.3c0,0.6-0.2,1.2-0.8,1.5c-0.7,0.4-0.9,0.9-0.9,1.7c0,1.1,0,2.2,0.1,3.3c0,0.6-0.2,1.2-0.8,1.5
			c-0.7,0.4-0.9,0.9-0.9,1.7c0,1.1,0,2.2,0.1,3.3c0,0.6-0.2,1.1-0.8,1.5c-0.1,0-0.1,0.1-0.2,0.1c-0.4,0.2-0.6,0.6-0.6,1
			c0,0.3,0,0.5,0,0.8c0,0.6-0.3,1-0.7,1.2c-0.8,0.4-0.9,1.1-0.9,1.9c0,1.1,0.1,2.2,0,3.3c0,0.4-0.2,0.8-0.6,1.1
			c-0.2,0.1-0.5,0.3-0.6,0.5c-0.2,0.3-0.4,0.6-0.4,0.9c-0.1,0.8,0,1.5,0,2.3c0,0.5-0.2,1-0.7,1.3c-0.2,0.1-0.4,0.3-0.6,0.5
			c-0.2,0.2-0.3,0.4-0.3,0.7c0,0.6,0,1.2,0,1.8c0.1,0.9-0.1,1.7-1,2.1c-0.5,0.3-0.6,0.7-0.6,1.3c0,0.2,0,0.3,0,0.5
			c0,0.5-0.2,1-0.7,1.2c-0.7,0.4-0.9,0.9-0.9,1.7c0.1,0.8-0.3,1.3-0.9,1.7c-0.5,0.3-0.7,0.7-0.7,1.2c0.1,0.9-0.2,1.6-1.1,2.1
			c-0.4,0.2-0.5,0.6-0.6,1.1c0,0.4,0,0.8,0,1.3c0.1,1.1-0.1,2-1.2,2.5c-0.3,0.2-0.4,0.5-0.4,0.9c0,0.3,0,0.7,0,1
			c0,0.3-0.2,0.7-0.5,0.8c-0.7,0.4-1.2,0.9-1.1,1.8c0.1,0.7-0.2,1.3-0.9,1.7c-0.5,0.3-0.7,0.7-0.7,1.2c0,0.3,0,0.5,0,0.8
			c0,0.4-0.1,0.7-0.4,0.9c-0.9,0.4-1.2,1.1-1.1,2c0.1,0.5-0.2,1-0.6,1.3c-0.4,0.3-0.7,0.7-1.1,1c-0.9,0.8-1.7,1.6-1.6,2.9
			c0,0.2-0.2,0.5-0.3,0.6c-0.2,0.2-0.4,0.3-0.6,0.5c-0.4,0.3-0.6,0.6-0.6,1.1c0,0.2,0,0.3,0,0.5c0,0.6-0.2,1.2-0.8,1.5
			c-0.6,0.3-0.9,0.8-0.8,1.4c0.1,0.8-0.3,1.5-1,1.9c-0.3,0.2-0.5,0.5-0.7,0.7c-0.3,0.3-0.6,0.6-0.9,0.8c-0.4,0.3-0.6,0.8-0.6,1.3
			c0,0.3,0,0.5,0,0.8c-0.1,0.2-0.1,0.5-0.3,0.7c-1.9,1.6-3.5,3.6-5.4,5.3c-0.4,0.4-0.7,0.7-0.7,1.3c0,0.3,0,0.5,0,0.8
			c0,0.4-0.2,0.7-0.5,0.9c-0.7,0.4-1,1.2-1.6,1.6c-0.8,0.5-1.2,1.2-1.1,2.1c0,0.5-0.2,0.9-0.6,1.3c-0.4,0.4-0.8,0.9-1.3,1.2
			c-0.9,0.6-1.4,1.4-1.3,2.5c0,0.3-0.2,0.6-0.4,0.9c-2.6,2.5-5.1,5.1-7.7,7.6c-3,3-6,5.9-8.9,8.8c-1,0.9-1.8,1.9-2.8,2.9
			c-0.8,0.8-1.7,1.4-2.5,2.1c-0.8,0.8-1.5,1.6-2.2,2.4c-0.9,1-2,1.8-2.9,2.8c-0.9,1-1.9,1.9-2.8,2.9c-1.8,1.8-3.5,3.6-5.3,5.4
			c-0.3,0.3-0.7,0.5-1.1,0.4c-0.8-0.1-1.5,0.2-1.9,1c-0.1,0.2-0.4,0.4-0.5,0.5c-0.2,0.2-0.5,0.4-0.7,0.7c-0.5,0.7-1.2,1.1-2.1,1.1
			c-0.4,0-0.8,0.2-1.1,0.5c-1.8,1.8-3.5,3.6-5.3,5.4c-0.3,0.3-0.7,0.5-1.1,0.4c-0.8-0.1-1.5,0.2-1.9,1c-0.3,0.5-0.7,0.7-1.3,0.6
			c-0.7,0-1.3,0.1-1.8,0.7c-0.4,0.6-1,0.9-1.7,0.9c-0.6,0-1.1,0.3-1.5,0.7c-1.1,1.2-2.3,2.4-3.5,3.6c-0.3,0.3-0.7,0.5-1.1,0.4
			c-0.7,0-1.3,0.1-1.8,0.8c-0.4,0.6-1,0.9-1.7,0.8c-0.6,0-1.1,0.2-1.5,0.8c-0.4,0.6-1,0.9-1.7,0.8c-0.7-0.1-1.2,0.2-1.5,0.8
			c-0.4,0.6-1,0.9-1.7,0.8c-0.6,0-1.1,0.2-1.5,0.8c-0.4,0.6-1,0.9-1.7,0.8c-0.6,0-1.1,0.3-1.5,0.8c-0.4,0.6-1,0.9-1.7,0.8
			c-0.5,0-1,0.1-1.3,0.6c-0.5,0.7-1,1.1-1.9,1c-0.6-0.1-1.1,0.3-1.5,0.8c-0.4,0.5-0.8,0.8-1.5,0.8c-0.7,0-1.3,0.2-1.7,0.8
			c-0.4,0.7-1,0.9-1.7,0.8c-0.7-0.1-1.1,0.3-1.5,0.8c-0.4,0.5-0.8,0.8-1.5,0.8c-0.3,0-0.7,0-1,0c-1.1-0.1-2,0.1-2.6,1.1
			c-0.1,0.2-0.6,0.3-0.9,0.5c-0.1,0.1-0.3,0-0.5,0c-0.6,0-1.2,0.2-1.5,0.7c-0.4,0.6-1,0.9-1.7,0.8c-0.3,0-0.7,0-1,0
			c-1-0.1-1.8,0.2-2.4,1.1c-0.2,0.4-0.7,0.5-1.1,0.5c-0.7,0-1.3,0-2,0c-0.5,0-1,0.2-1.3,0.6c-0.1,0.1-0.2,0.3-0.3,0.4
			c-0.3,0.3-0.6,0.5-1.1,0.5c-0.5,0-1,0-1.5,0c-0.9,0-1.6,0.2-2.2,1c-0.3,0.5-0.8,0.6-1.3,0.6c-1.1,0-2.2,0-3.3,0
			c-0.7,0-1.3,0.2-1.7,0.9c-0.3,0.6-0.9,0.7-1.5,0.7c-0.3,0-0.7,0-1,0c-0.3,0-0.5,0-0.8,0c-0.5,0-1,0.2-1.3,0.6
			c-0.2,0.2-0.3,0.4-0.5,0.6c-0.2,0.3-0.6,0.4-0.9,0.4c-1.2,0-2.4,0-3.5,0c-0.6,0-1.2,0.1-1.5,0.7c-0.5,0.7-1.1,0.9-2,0.9
			c-2,0-4,0-6.1,0c-0.6,0-1.2,0-1.8,0c-0.5,0-1,0.2-1.3,0.6c-0.1,0.1-0.2,0.3-0.3,0.4c-0.3,0.4-0.8,0.6-1.3,0.6c-0.8,0-1.7,0-2.5,0
			c-0.8,0-1.5,0-2.3,0c-0.8,0-1.5,0.2-1.8,1.1c-0.1,0.2-0.4,0.3-0.6,0.4c-0.3,0.1-0.7,0.1-1,0.1c-6.4,0-12.8,0-19.2,0
			c-0.3,0-0.7,0-1-0.1c-0.2-0.1-0.5-0.3-0.5-0.5c-0.1-0.4-0.1-0.8-0.1-1.3c0-4.4,0-8.7,0-13.1c0-103,0-206,0-309.1c0-1.7,0-3.4,0-5
			c0-0.3,0-0.7,0.1-1c0.1-0.3,0.4-0.6,0.7-0.7c0.2-0.1,0.5-0.1,0.7-0.1c3.2,0,6.4,0,9.6,0c0.7,0,1.2,0.3,1.7,0.8
			c1.3,1.4,2.7,2.7,4.1,4.1c0.4,0.4,0.6,0.8,0.6,1.3c0,0.2,0,0.3,0,0.5c0,0.5,0.3,1,0.8,1.2c0.6,0.3,0.9,0.8,0.8,1.4
			c0,0.2,0,0.3,0,0.5c0,0.6,0.2,1,0.7,1.2c0.1,0,0.1,0.1,0.2,0.1c0.4,0.3,0.8,0.7,0.7,1.3c-0.2,1.1,0.4,1.7,1.3,2.2
			c2.4,2.5,4.5,5.2,5.5,8.6c0.2,0.6,0.7,0.9,1.1,1.3c1.7,1.7,2.4,3.9,3.2,6.1c0.2,0.5,0.3,0.9,0.7,1.3c2.3,2,3.7,4.5,4.6,7.4
			c0.4,1.2,1.6,1.9,2.6,2.6c0.4,0.4,0.7,0.9,1.2,1.2c0.5,0.3,0.7,0.7,0.6,1.3c0,0.2,0,0.3,0,0.5c0,0.6,0.2,1,0.7,1.2
			c0.6,0.4,1,0.9,0.9,1.7c-0.1,0.7,0.3,1.3,0.9,1.7c0.5,0.3,0.8,0.9,1.2,1.2c0.8,0.5,1.2,1.2,1.1,2.1c0,0.5,0.2,1,0.7,1.3
			c0.8,0.4,1,1.1,0.9,1.9c0,0.5,0.2,0.9,0.6,1.3c0.6,0.5,1,1.1,1.6,1.5c0.7,0.5,1,1,1,1.9c-0.1,0.6,0.2,1.1,0.8,1.5
			c0.7,0.5,1.2,1.1,1.8,1.7c0.4,0.4,0.6,0.8,0.6,1.3c0,0.2,0,0.3,0,0.5c0,0.5,0.3,1,0.8,1.2c0.7,0.4,0.9,1,0.8,1.7
			c-0.1,0.6,0.2,1.1,0.7,1.5c0.3,0.2,0.6,0.6,0.9,0.9c0.3,0.3,0.6,0.6,0.9,0.8c0.5,0.3,0.6,0.7,0.6,1.3c0,0.2,0,0.3,0,0.5
			c0,0.5,0.2,1,0.7,1.2c0.7,0.4,0.9,0.9,0.9,1.7c0,0.7,0.2,1.3,0.9,1.7c0.5,0.3,0.7,0.7,0.7,1.2c0,0.3,0,0.5,0,0.8
			c0,0.3,0.1,0.7,0.4,0.9c1.5,1.1,2.5,2.7,4,3.8c0.2,0.1,0.2,0.4,0.3,0.7c0,0.2,0,0.3,0,0.5c-0.1,0.7,0.1,1.3,0.8,1.7
			c0.1,0,0.1,0.1,0.2,0.1c0.3,0.3,0.6,0.6,0.6,1.1c0,0.2,0,0.3,0,0.5c0,0.6,0.2,1.2,0.8,1.5c0.6,0.3,0.8,0.8,0.8,1.4
			c0,0.3,0,0.5,0,0.8c0.1,0.2,0.1,0.5,0.3,0.7c1.3,1.2,2.5,2.5,3.8,3.7c0.4,0.4,0.6,0.8,0.6,1.3c0,0.2,0,0.3,0,0.5
			c0,0.6,0.3,1,0.7,1.3c0.7,0.4,0.9,0.9,0.9,1.7c0,0.2,0,0.3,0,0.5c0,0.4,0.2,0.7,0.5,0.9c0.6,0.4,0.9,1,1.5,1.4
			c0.9,0.7,1.4,1.4,1.3,2.5c0,0.3,0.2,0.7,0.4,0.9c0.8,0.4,1.1,1.3,1.8,1.7c0.7,0.5,1,1.1,0.9,1.9c0,0.6,0.3,1.1,0.8,1.4
			c0.6,0.3,0.8,0.8,0.8,1.5c0,0.3,0,0.5,0,0.8c0.1,0.2,0.2,0.5,0.4,0.6c0.9,0.5,1.3,1.2,1.2,2.3c0,0.4,0.2,0.8,0.5,1.1
			c0.7,0.7,1.5,1.3,2.2,2c0.7,0.6,1.4,1.2,1.9,2c0.5,0.8,0.1,1.8,0.1,2.7c0,0.4,0.1,0.9,0.5,1.1c0.7,0.4,1,1.1,1.6,1.6
			c0.8,0.6,1.2,1.3,1.1,2.3c0,0.4,0.2,0.8,0.6,1.1c0.8,0.7,1.5,1.3,2.2,2c0.2,0.2,0.3,0.4,0.3,0.7c0.1,0.2,0.1,0.5,0,0.8
			c0,0.5,0.1,1,0.6,1.3c0.4,0.3,0.7,0.7,1.1,1c0.9,0.8,1.8,1.6,1.6,2.9c0,0.2,0.2,0.5,0.3,0.6c0.6,0.6,1.1,1.3,1.8,1.7
			c0.7,0.5,1.1,1,1,1.9c-0.1,0.6,0.2,1.2,0.7,1.5c0.7,0.4,0.9,0.9,0.8,1.7c-0.1,0.8,0.3,1.3,0.9,1.6c0.4,0.2,0.6,0.6,0.7,1
			c0,0.3,0,0.5,0,0.8c0,0.6,0.2,1,0.7,1.3c0.6,0.4,1,0.9,0.9,1.7c0,0.2,0,0.3,0,0.5c0,0.3,0.1,0.7,0.4,0.9c1.5,1.1,2.5,2.7,4,3.8
			c0.3,0.2,0.4,0.6,0.4,0.9c0,0.6,0,1.2,0,1.8c0,0.7,0.2,1.2,0.7,1.8c1.8,1.6,3.5,3.4,5.2,5.1c0.2,0.2,0.4,0.6,0.4,0.9
			c0,0.8,0,1.5,0,2.3c0,0.2,0.1,0.5,0.2,0.7c0.1,0.2,0.5,0.5,0.8,0.5c0.3,0,0.7-0.4,0.7-0.6c0.1-0.5,0.1-1,0.1-1.5
			c0-2.5-0.1-5-0.1-7.6c0-53,0-106,0-158.9c0-1.3,0-2.5,0-3.8c0-0.3,0-0.7,0.1-1c0.1-0.2,0.3-0.4,0.5-0.5c0.1-0.1,0.3-0.2,0.5-0.2
			c3.5,0,7.1,0,10.6,0c0.6,0,1.1,0.5,1.1,1.1c0,0.3,0,0.7,0,1c0,2.6,0,5.2,0,7.8c0,61.1,0,122.1,0,183.2c0,1.6,0,3.2,0,4.8
			c0,0.3,0,0.7-0.1,1c-0.1,0.3-0.3,0.6-0.7,0.7c-0.2,0.1-0.5,0.1-0.7,0.1c-3.4,0-6.7,0-10.1,0c-0.4,0-0.7-0.1-0.9-0.4
			c-0.3-0.3-0.5-0.7-0.8-0.9c-0.7-0.5-1.2-1.1-1.1-2.1c0.1-0.6-0.3-1.1-0.8-1.4c-0.5-0.3-0.7-0.7-0.7-1.2c0-0.2,0-0.3,0-0.5
			c0-0.5-0.2-1-0.6-1.3c-1.4-1.1-2.4-2.5-3.8-3.6c-0.2-0.2-0.3-0.6-0.4-0.9c-0.1-0.3,0-0.7,0-1c0.1-1.8,0.1-2-1.3-3
			c-0.9-0.6-1.5-1.6-2.3-2.3c-0.8-0.7-1.4-1.4-1.3-2.5c0-0.3-0.1-0.7-0.4-0.9c-0.6-0.4-1-0.9-1.4-1.4c-0.1-0.1-0.4-0.2-0.4-0.3
			c-0.4-3-3.1-4.6-4.4-7c-1.1-2-1.3-4.8-3.8-6c-0.4-0.2-0.8-0.5-0.7-0.9c0.5-2.5-1.4-3.8-2.4-5.6c-0.9-1.6-2.3-3-2.4-5
			c0-0.3-0.1-0.6-0.3-0.7c-2.9-1.8-3.1-5.7-6-7.5c-1.8-1.1-2.1-3.3-2.9-4.9c-1.6-3.2-3.2-6.2-5.9-8.7c-1.2-1.1-1.7-2.9-2.1-4.3
			C330.2,269.4,329.5,268.6,328.7,267.7z"/>
		<path class="st2" d="M181.3,265.7c-0.1-0.1-0.3-0.2-0.4-0.3c-0.6-0.3-0.9-0.8-0.9-1.4c0-0.2,0-0.3,0-0.5c0-0.6-0.2-1-0.7-1.3
			c-0.6-0.4-1-0.9-0.9-1.6c0.1-0.7-0.2-1.2-0.8-1.7c-0.7-0.5-1.4-1.2-2-1.9c-0.2-0.2-0.3-0.4-0.3-0.7c-0.1-0.3,0-0.7-0.1-1
			c-0.1-0.3-0.2-0.7-0.4-0.9c-0.6-0.4-1-1.1-1.6-1.6c-0.9-0.6-1.2-1.3-1.1-2.3c0.1-0.5-0.3-0.9-0.8-1.2c-0.6-0.3-0.8-0.8-0.8-1.4
			c0-0.2,0-0.3,0-0.5c0-0.4-0.2-0.8-0.6-1.1c-0.7-0.4-1.1-1-1-1.9c0-0.6-0.2-1.1-0.7-1.5c-1.3-1.2-2.5-2.4-3.8-3.7
			c-0.2-0.2-0.2-0.4-0.3-0.7c0-0.1,0-0.2,0-0.2c0-0.9,0.3-1.9-0.1-2.7c-0.5-0.8-1.3-1.3-1.9-2c-0.5-0.5-1-1.2-1.6-1.6
			c-0.9-0.6-1.3-1.3-1.1-2.3c0-0.4-0.2-0.8-0.6-1c-0.6-0.4-1-0.9-1-1.6c0.1-0.8-0.3-1.5-1-1.9c-0.5-0.3-0.6-0.8-0.6-1.3
			c0-0.7-0.1-1.3-0.8-1.7c-0.2-0.1-0.4-0.3-0.6-0.5c-0.5-0.5-1-0.9-1.4-1.4c-0.6-0.7-1.4-1.2-1.9-2c-0.5-0.8-0.1-1.8-0.1-2.7
			c0-0.6-0.3-0.9-0.7-1.3c-1.3-1.2-2.5-2.4-3.8-3.7c-0.2-0.2-0.3-0.4-0.3-0.7c-0.1-0.2-0.1-0.5-0.1-0.8c0-0.6-0.2-1.1-0.8-1.4
			c-0.6-0.3-0.8-0.8-0.8-1.5c0.1-0.7-0.1-1.3-0.8-1.7c-0.7-0.5-1.2-1.2-1.8-1.7c-0.4-0.4-0.6-0.8-0.6-1.3c0-0.3,0-0.5,0-0.8
			c-0.1-0.2-0.1-0.5-0.3-0.7c-0.7-0.7-1.5-1.4-2.2-2c-0.4-0.4-0.6-0.8-0.6-1.3c0-0.3,0-0.5,0-0.8c0-0.3-0.2-0.6-0.5-0.9
			c-0.2-0.2-0.4-0.3-0.6-0.5c-0.7-0.6-1.4-1.2-1.9-2c-0.5-0.8-0.1-1.8-0.1-2.7c0-0.5-0.2-0.9-0.6-1.3c-0.8-0.7-1.5-1.3-2.2-2
			c-0.2-0.2-0.3-0.4-0.3-0.6c-0.1-0.2-0.1-0.5,0-0.8c0-0.6-0.2-1.2-0.8-1.5c-0.6-0.3-0.8-0.8-0.8-1.4c0-0.3,0-0.5,0-0.8
			c-0.1-0.2-0.1-0.5-0.3-0.7c-0.7-0.5-1.1-1.3-1.8-1.7c-0.8-0.6-1.1-1.2-1.1-2.1c0-0.3-0.1-0.7-0.3-0.9c-1.2-1-2.1-2.1-3.2-3.2
			c-0.2-0.2-0.4-0.3-0.7-0.2c-0.3,0.1-0.6,0.5-0.7,0.7c0,0.2,0,0.5,0,0.8c0,1.2,0.1,2.4,0.1,3.5c0,54.2,0,108.5,0,162.7
			c0,0.9,0,1.8,0,2.8c0,0.3,0,0.7,0,1c0,0.4-0.4,0.8-0.8,0.9c-0.3,0-0.7,0.1-1,0.1c-3,0-6.1,0-9.1,0c-0.3,0-0.7,0-1-0.1
			c-0.4,0-0.8-0.5-0.9-0.8c0-0.3-0.1-0.7-0.1-1c0-31,0-61.9,0-92.9c0-33.1,0-66.3,0-99.4c0-1.5,0-3,0-4.5c0-0.5,0.5-1,1-1
			c0.2,0,0.3,0,0.5,0c3.3,0,6.6,0,9.8,0c0.5,0,1,0.1,1.3,0.6c0.2,0.3,0.4,0.6,0.7,0.7c0.9,0.5,1.2,1.3,1.1,2.3
			c0,0.3,0.1,0.7,0.4,0.9c1.5,1.1,2.5,2.7,4,3.8c0.2,0.1,0.3,0.4,0.3,0.7c0.1,0.3,0,0.7,0.1,1c0,0.5,0.2,0.8,0.6,1
			c0.8,0.4,1,1,1,1.9c0,0.6,0.2,1.1,0.8,1.5c0.6,0.3,0.8,0.8,0.8,1.4c0,0.3,0,0.5,0,0.8c0.1,0.2,0.2,0.5,0.3,0.7
			c0.7,0.5,1.1,1.2,1.8,1.7c0.8,0.5,1.1,1.2,1,2.1c-0.1,0.5,0.2,1,0.7,1.2c0.7,0.4,0.9,0.9,0.9,1.7c0,0.6,0.2,1.1,0.7,1.5
			c1.1,1,1.9,2.1,3,3c0.7,0.6,1.1,1.2,1.1,2.1c0,0.5,0.2,1,0.7,1.3c0.7,0.4,1,0.9,0.9,1.6c-0.1,0.7,0.2,1.3,0.8,1.7
			c0.7,0.5,1.2,1.2,1.8,1.7c0.4,0.4,0.6,0.8,0.6,1.3c0,0.4,0,0.8,0,1.3c-0.1,0.9,0,1.7,1,2.1c0.9,1,1.8,2,2.8,2.9
			c0.7,0.6,1.1,1.2,1,2.1c0,0.4,0.1,0.8,0.5,1.1c0.5,0.4,0.9,1,1.5,1.4c0.9,0.6,1.5,1.3,1.3,2.5c-0.1,0.4,0.2,0.8,0.6,1
			c0.7,0.4,1,0.9,0.9,1.6c0,0.7,0.2,1.3,0.8,1.7c0.5,0.4,0.8,0.9,1.2,1.2c0.9,0.6,1.3,1.3,1.1,2.3c0,0.3,0.1,0.6,0.4,0.9
			c0.1,0.1,0.2,0.2,0.4,0.3c0.6,0.3,0.8,0.8,0.8,1.5c0,0.2,0,0.5,0,0.8c0.1,0.2,0.2,0.5,0.3,0.7c0.7,0.7,1.5,1.4,2.2,2
			c0.4,0.4,0.6,0.8,0.6,1.3c0,0.3,0,0.5,0,0.8c0.1,0.2,0.2,0.5,0.3,0.7c0.7,0.7,1.4,1.4,2.2,2c0.4,0.4,0.6,0.8,0.6,1.3
			c0,0.3,0,0.5,0.1,0.8c0.1,0.2,0.2,0.5,0.3,0.7c0.2,0.2,0.5,0.4,0.8,0.7c0.7,0.6,1.4,1.2,1.9,2c0.5,0.8,0.1,1.8,0.1,2.7
			c0,0.5,0.2,0.9,0.6,1.3c1.3,1.2,2.6,2.4,3.8,3.6c0.2,0.2,0.3,0.4,0.3,0.7c0.1,0.2,0.1,0.5,0.1,0.8c0,0.6,0.2,1.2,0.8,1.5
			c0.7,0.4,0.8,1,0.8,1.7c0,0.5,0.1,1,0.6,1.3c0.7,0.6,1.3,1.3,2,1.9c0.4,0.4,0.6,0.8,0.6,1.3c0,0.3,0,0.5,0,0.8
			c0,0.4,0.2,0.7,0.5,0.8c0.7,0.4,1.2,1,1.1,1.8c-0.1,0.8,0.2,1.3,0.9,1.7c0.5,0.3,0.7,0.7,0.7,1.2c0,0.3,0,0.5,0,0.8
			c0,0.3,0.1,0.7,0.5,0.9c0.7,0.4,1,1.1,1.6,1.6c0.8,0.6,1.2,1.3,1.1,2.3c0,0.3,0.1,0.7,0.4,0.9c0.5,0.4,0.8,0.8,1.3,1.2
			c0.9,0.8,1.7,1.6,1.5,2.9c0,0.3,0.2,0.7,0.5,0.8c0.8,0.4,1.1,1,1,1.8c-0.1,0.7,0.2,1.1,0.8,1.5c0.3,0.2,0.5,0.4,0.7,0.7
			c0.5,0.5,1,0.9,1.4,1.4c0.6,0.6,1.3,1.1,1.7,1.8c0.4,0.7,0.1,1.6,0.1,2.5c0,0.6,0.2,1.1,0.7,1.5c1.3,1.2,2.6,2.4,3.8,3.6
			c0.2,0.2,0.3,0.4,0.3,0.7c0.1,0.2,0,0.5,0,0.8c0,0.5,0.1,1,0.6,1.3c0.8,0.4,1,1.1,1,1.9c0,0.3,0,0.8,0.3,0.9
			c1,0.7,1.5,1.5,1.4,2.7c0,0.2,0.2,0.5,0.3,0.7c1.3,1.3,2.7,2.5,4,3.8c0.3,0.2,0.4,0.5,0.4,0.9c0,0.3,0,0.7,0.1,1
			c0,0.3,0.2,0.6,0.5,0.8c0.1,0,0.1,0.1,0.2,0.1c0.6,0.3,0.9,0.8,0.8,1.4c-0.1,0.8,0.2,1.5,0.9,1.9c0.5,0.3,0.7,0.7,0.7,1.3
			c0,0.3,0,0.5,0,0.8c0.1,0.2,0.1,0.5,0.3,0.7c1.4,1.1,2.4,2.5,3.8,3.7c0.1,0.1,0.1,0.1,0.2,0.2c0.3,0.2,0.4,0.5,0.5,0.9
			c0,0.3,0,0.7,0,1c0,0.4,0.1,0.7,0.4,0.9c0.9,0.4,1.2,1.1,1.1,2c-0.1,0.5,0.2,1,0.6,1.3c0.6,0.4,0.9,1,1.4,1.4
			c0.9,0.6,1.2,1.3,1.2,2.3c0,0.6,0.3,0.9,0.8,1.2c0.6,0.3,0.8,0.8,0.8,1.5c0,0.1,0,0.2,0,0.3c0,0.6,0.2,1.1,0.8,1.5
			c0.6,0.3,0.8,0.8,0.8,1.5c0,0.3,0,0.5,0.1,0.8c0.1,0.2,0.2,0.5,0.3,0.7c1.1,1,2.2,2.1,3.1,3.3c0.3,0.4,1.1,0.2,1.2-0.3
			c0.1-0.2,0.1-0.5,0.1-0.7c0-4-0.1-8.1-0.1-12.1c0-86.1,0-172.2,0-258.4c0-1.5,0-3,0-4.5c0-0.3-0.1-0.7-0.1-1
			c0-0.2-0.5-0.6-0.7-0.7c-0.3,0-0.7-0.1-1-0.1c-3.5,0-7.1,0-10.6,0c-0.9,0-1.6,0.2-2.2,1c-0.3,0.5-0.8,0.6-1.3,0.6
			c-1.9,0-3.7,0-5.6,0c-0.5,0-1,0-1.5,0.1c-0.2,0-0.5,0.2-0.6,0.3c-0.7,1.2-1.8,1.3-3.1,1.2c-1.3-0.1-2.5,0-3.8,0
			c-0.6,0-1.2,0.2-1.5,0.8c-0.4,0.6-1,0.9-1.7,0.8c-0.3,0-0.5,0-0.8,0c-1.1-0.1-2,0.1-2.6,1.1c-0.2,0.4-0.7,0.5-1.1,0.5
			c-1,0-2,0-3,0c-0.9,0-1.6,0.1-2.1,1c-0.3,0.5-0.8,0.6-1.3,0.6c-0.7-0.1-1.3,0.2-1.7,0.8c-0.4,0.6-1,0.8-1.7,0.8c-0.7,0-1.3,0-2,0
			c-1.2-0.1-2.3,0-3.1,1.2c-0.2,0.3-0.6,0.4-0.9,0.4c-0.6,0-1.2,0-1.8,0c-0.7,0-1.3,0.2-1.7,0.8c-0.3,0.5-0.9,0.8-1.5,0.8
			c-0.3,0-0.7,0-1,0c-1.1-0.1-2,0.1-2.6,1.1c-0.2,0.3-0.5,0.4-0.9,0.4c-0.9,0-1.6,0.2-2.2,1c-0.3,0.5-0.8,0.6-1.3,0.6
			c-0.8,0-1.5,0.3-1.9,1c-0.3,0.5-0.8,0.6-1.3,0.6c-0.3,0-0.5,0-0.8,0c-0.2,0.1-0.5,0.2-0.6,0.3c-0.7,1.1-1.6,1.3-2.8,1.2
			c-0.3,0-0.7,0-1,0c-0.4,0-0.8,0.2-1.1,0.5c-0.6,0.7-1.3,1.3-1.9,2c-0.4,0.5-0.9,0.7-1.5,0.7c-0.6,0-1.2,0.2-1.5,0.7
			c-0.4,0.6-0.9,1-1.7,0.9c-0.6-0.1-1.1,0.2-1.5,0.7c-0.4,0.6-1,0.9-1.7,0.9c-0.6,0-1.2,0.2-1.5,0.7c-0.4,0.6-1,0.9-1.7,0.9
			c-0.6,0-1.1,0.2-1.5,0.7c-1,1.1-2.2,2.1-3.2,3.2c-0.5,0.5-1,0.9-1.7,0.8c-0.6,0-1.2,0.2-1.5,0.7c-0.4,0.6-1,0.9-1.7,0.9
			c-0.6,0-1.2,0.2-1.5,0.7c-0.4,0.6-0.9,0.9-1.7,0.8c-0.5,0-1,0.2-1.3,0.6c-1.7,1.8-3.5,3.6-5.3,5.4c-0.3,0.3-0.7,0.5-1.1,0.5
			c-0.3,0-0.5,0-0.8,0c-0.2,0.1-0.5,0.2-0.7,0.3c-2.8,2.8-5.6,5.6-8.3,8.4c-0.5,0.5-1,0.9-1.7,0.8c-0.2,0-0.3,0-0.5,0
			c-0.2,0.1-0.5,0.2-0.7,0.3c-2.2,2.2-4.4,4.4-6.6,6.6c-2.4,2.4-4.7,4.8-7.1,7.2c-1.5,1.5-3,3-4.5,4.4c-0.3,0.3-0.6,0.6-1,0.8
			c-0.4,0.3-0.5,0.7-0.5,1.1c0,0.3,0,0.5,0,0.8c0,0.3-0.2,0.7-0.4,0.9c-2.5,2.2-4.7,4.8-7.2,7c-0.2,0.2-0.3,0.4-0.3,0.7
			c-0.1,0.3,0,0.7-0.1,1c0,0.4-0.1,0.7-0.4,0.9c-1.4,1.2-2.5,2.7-4,3.8c-0.2,0.1-0.3,0.4-0.3,0.6c-0.1,0.3-0.1,0.7-0.1,1
			c0,0.3-0.1,0.7-0.4,0.9c-0.7,0.6-1.3,1.3-2,1.9c-0.6,0.5-0.9,1-0.8,1.7c0,0.6-0.2,1.1-0.7,1.5c-0.3,0.2-0.5,0.5-0.7,0.7
			c-0.2,0.2-0.4,0.6-0.7,0.7c-0.8,0.5-1.1,1.2-1.1,2.1c0.1,0.6-0.2,1-0.7,1.2c-0.7,0.4-1,0.9-0.9,1.7c0.1,0.7-0.3,1.2-0.8,1.7
			c-1.3,1.1-2.4,2.3-3.6,3.5c-0.2,0.2-0.3,0.4-0.3,0.7c-0.1,0.3,0,0.7-0.1,1c0,0.4-0.2,0.8-0.6,1c-0.7,0.4-1,0.9-0.9,1.6
			c0.1,0.7-0.2,1.3-0.8,1.7c-0.6,0.3-0.8,0.8-0.8,1.5c0,0.1,0,0.2,0,0.3c0,0.6-0.2,1.1-0.8,1.5c-0.6,0.3-0.9,0.8-0.8,1.5
			c0.1,0.9-0.2,1.4-1,1.9c-0.5,0.3-0.7,0.7-0.6,1.3c0,0.1,0,0.2,0,0.3c0.1,0.8-0.3,1.3-0.9,1.6c-0.5,0.3-0.7,0.7-0.7,1.3
			c-0.1,0.9,0.4,1.9-0.1,2.7c-0.5,0.8-1.4,1.5-2.1,2.2c-0.1,0.1-0.3,0.2-0.4,0.3c-0.4,0.3-0.5,0.6-0.6,1.1c0,0.4,0,0.8,0,1.3
			c0.1,1.1-0.1,2-1.1,2.6c-0.3,0.2-0.4,0.5-0.5,0.9c0,0.2,0,0.3,0,0.5c0.1,0.7-0.2,1.3-0.9,1.7c-0.6,0.3-0.7,0.9-0.7,1.5
			c0,0.2,0,0.3,0,0.5c0,0.3,0,0.5,0,0.8c0.1,0.9-0.1,1.6-1,2.1c-0.5,0.3-0.7,0.7-0.7,1.3c0,1.2,0,2.4,0.1,3.5c0,0.5-0.2,1-0.6,1.3
			c-0.2,0.2-0.4,0.3-0.6,0.4c-0.3,0.2-0.4,0.5-0.4,0.9c0,1.3,0,2.5,0,3.8c0,0.5-0.2,1-0.6,1.3c-0.2,0.1-0.4,0.3-0.6,0.5
			c-0.3,0.2-0.4,0.5-0.4,0.9c0,0.4,0,0.8,0,1.3c0.1,1.1,0,2-1.1,2.5c-0.4,0.2-0.5,0.7-0.5,1.1c0,1.1,0,2.2,0,3.3c0,0.7,0,1.3,0,2
			c0,0.5-0.2,1-0.7,1.2c-0.8,0.4-1,1.1-0.9,1.9c0,0.9,0,1.9,0.1,2.8c0,0.8-0.2,1.5-1,1.9c-0.5,0.2-0.7,0.7-0.7,1.2
			c0,0.4,0,0.8,0,1.3c0,0.7,0,1.3,0,2c0.1,0.8-0.2,1.5-1,1.9c-0.5,0.3-0.7,0.7-0.7,1.2c0,0.5,0,1,0,1.5c0,2.7,0,5.4,0,8.1
			c0,0.8-0.1,1.5-0.9,1.9c-0.6,0.3-0.8,0.9-0.7,1.5c0,1.2,0,2.4,0,3.5c0,10.3,0,20.7,0,31c0,0.3,0,0.7,0,1c0,0.4,0.2,0.8,0.6,1.1
			c0.2,0.2,0.5,0.3,0.6,0.4c0.2,0.3,0.4,0.6,0.4,0.9c0.1,0.5,0,1,0,1.5c0,2.9,0,5.7,0,8.6c0,0.7,0.2,1.1,0.8,1.5
			c0.1,0.1,0.3,0.2,0.4,0.3c0.4,0.3,0.5,0.6,0.5,1.1c0,1.1,0,2.2,0,3.3c0,0.6,0,1.2,0,1.8c0,0.6,0.1,1.2,0.7,1.5
			c0.9,0.5,1,1.2,1,2.1c-0.1,1.4,0,2.9-0.1,4.3c0,0.7,0.2,1.3,0.9,1.7c0.7,0.4,0.8,1,0.8,1.7c0,1.1,0,2.2-0.1,3.3
			c0,0.5,0.2,1,0.7,1.3c0.1,0,0.1,0.1,0.2,0.1c0.5,0.4,0.8,0.9,0.8,1.5c0,1,0,2-0.1,3c0,0.8,0.1,1.5,0.9,1.9
			c0.6,0.3,0.7,0.9,0.7,1.5c0,0.4,0,0.8,0,1.3c-0.1,0.9,0.1,1.6,1,2.1c0.5,0.3,0.6,0.8,0.6,1.3c0,0.3,0,0.5,0,0.8
			c-0.2,1.2,0,2.3,1.3,3c0.3,0.2,0.4,0.5,0.4,0.9c0,0.6,0,1.2-0.1,1.8c-0.1,0.8,0.2,1.5,1,1.9c0.5,0.2,0.7,0.7,0.7,1.3
			c0,0.5,0,1,0,1.5c-0.1,0.9,0.1,1.7,1,2.1c0.3,0.1,0.5,0.5,0.5,0.8c0,0.2,0,0.3,0,0.5c-0.1,0.9,0.3,1.4,1,1.9
			c0.5,0.3,0.6,0.8,0.6,1.3c0,0.7,0,1.3,0,2c0,0.5,0.2,1,0.7,1.2c0.7,0.4,1,0.9,0.9,1.7c-0.1,0.7,0.2,1.3,0.9,1.7
			c0.6,0.3,0.8,0.8,0.7,1.5c0,0.4-0.1,1,0.3,1.2c1,0.6,1.5,1.5,1.4,2.7c0,0.1,0.1,0.3,0.2,0.4c0.1,0.1,0.2,0.3,0.4,0.3
			c0.7,0.4,1.1,1,1,1.9c0,0.2,0,0.3,0,0.5c0.1,0.2,0.2,0.5,0.3,0.7c0.7,0.7,1.5,1.4,2.2,2c0.4,0.4,0.6,0.8,0.6,1.3
			c0,0.2,0,0.3,0,0.5c0,0.5,0.3,1,0.7,1.2c0.6,0.3,0.9,0.8,0.8,1.4c0,0.1,0,0.2,0,0.3c-0.1,0.6,0.1,1.2,0.7,1.5
			c0.7,0.4,0.9,0.9,0.9,1.7c-0.1,0.7,0.2,1.3,0.9,1.7c0.4,0.3,0.6,0.8,1.1,1.1c1,0.6,1.4,1.4,1.3,2.5c0,0.3,0.2,0.7,0.4,0.9
			c0.5,0.4,0.9,1,1.4,1.4c0.9,0.7,1.4,1.4,1.3,2.5c0,0.3,0.2,0.6,0.4,0.9c0.4,0.4,0.8,0.9,1.3,1.2c0.9,0.8,1.7,1.6,1.5,2.9
			c0,0.2,0.2,0.5,0.4,0.6c1.3,1.3,2.7,2.5,4,3.8c0.2,0.2,0.3,0.4,0.3,0.7c0.1,0.3,0,0.7,0.1,1c0,0.3,0.1,0.7,0.4,0.9
			c0.6,0.6,1.1,1.3,1.8,1.7c0.9,0.5,1,1.2,1,2.1c0,0.5,0.2,0.8,0.5,1.1c1.9,1.9,3.8,3.7,5.7,5.6c3,3,5.9,5.9,8.9,8.9
			c2.9,2.9,5.8,5.8,8.7,8.7c1.5,1.5,3,2.9,4.4,4.4c0.7,0.8,1.4,1.4,2.5,1.3c0.3,0,0.6,0.2,0.9,0.4c1.1,1,2.2,2.1,3.2,3.2
			c0.7,0.8,1.3,1.2,2.4,1.1c0.3,0,0.6,0.2,0.9,0.4c1.6,1.6,3.3,3.1,4.8,4.8c0.7,0.8,1.3,1.2,2.4,1.1c0.3,0,0.6,0.2,0.9,0.5
			c0.2,0.2,0.3,0.4,0.5,0.6c0.3,0.3,0.7,0.5,1.1,0.5c0.3,0,0.5,0,0.8,0.1c0.3,0.1,0.7,0.2,0.9,0.5c1,1.2,2.2,2.1,3.2,3.2
			c0.7,0.9,1.6,1.2,2.6,1.1c0.3,0,0.7,0,1,0c0.5,0,0.9,0.2,1.3,0.6c0.7,0.7,1.4,1.5,2.1,2.2c0.2,0.2,0.6,0.4,0.9,0.4
			c0.9,0,1.6,0.2,2.1,1.1c0.3,0.5,0.8,0.6,1.3,0.6c0.7-0.1,1.3,0.2,1.7,0.8c0.4,0.5,0.9,0.8,1.2,1.2c0.6,0.9,1.3,1.3,2.3,1.2
			c0.3,0,0.6,0.2,0.9,0.4c0.1,0.1,0.2,0.2,0.3,0.4c0.4,0.6,1,0.8,1.8,0.8c0.3,0,0.7,0,1,0c0.9-0.1,1.6,0.1,2.1,1
			c0.3,0.5,0.8,0.6,1.3,0.6c0.7,0,1.3,0.2,1.7,0.8c0.4,0.6,1,0.8,1.7,0.8c0.6,0,1.1,0.3,1.5,0.8c0.3,0.5,0.8,0.8,1.5,0.8
			c0.3,0,0.7,0,1,0c1.1-0.1,2,0.1,2.6,1.2c0.2,0.4,0.7,0.5,1.1,0.5c0.8-0.1,1.5,0.2,1.9,1c0.3,0.4,0.8,0.6,1.3,0.6
			c0.4,0,0.8,0.1,1.3,0c1-0.1,1.8,0.2,2.3,1.1c0.2,0.4,0.7,0.5,1.1,0.5c0.8-0.1,1.5,0.2,1.9,0.9c0.4,0.5,0.9,0.7,1.5,0.7
			c1.1,0,2.2,0,3.3,0c0.5,0,1,0.2,1.3,0.6c0.1,0.2,0.3,0.4,0.5,0.6c0.3,0.2,0.6,0.3,0.9,0.4c0.4,0.1,0.8,0.1,1.3,0
			c1.1-0.1,2,0.1,2.6,1.1c0.2,0.4,0.7,0.4,1.1,0.5c1.2,0,2.4,0,3.5,0c0.5,0,1,0.2,1.3,0.6c0.1,0.1,0.1,0.1,0.2,0.2
			c0.4,0.6,1,0.8,1.7,0.8c1,0,2,0,3,0c0.6,0,1.2,0,1.8,0c0.5,0,1,0.2,1.3,0.6c0.1,0.1,0.2,0.3,0.3,0.4c0.3,0.4,0.6,0.5,1.1,0.5
			c1.4,0,2.9,0,4.3,0c0.7,0,1.3,0,2,0c0.9,0,1.7,0.1,2.2,1c0.3,0.5,0.8,0.6,1.3,0.6c1.9,0,3.7,0,5.6,0c0.8,0,1.5,0,2.3,0
			c0.8,0,1.5,0.1,2,0.9c0,0.1,0.1,0.1,0.2,0.2c0.3,0.3,0.7,0.5,1.1,0.5c0.7,0,1.3,0,2,0c4.1,0,8.2,0,12.4,0c1.6,0,1.9,0.3,1.9,1.9
			c0,3.1,0,6.2,0,9.3c0,0.3,0,0.7-0.1,1c0,0.1-0.2,0.3-0.4,0.3c-0.4,0.1-0.8,0.2-1.2,0.2c-6.3,0-12.6,0-18.9,0c-0.2,0-0.3,0-0.5,0
			c-0.6,0-1.1-0.2-1.4-0.8c-0.2-0.4-0.5-0.7-1-0.7c-0.8,0-1.5,0-2.3,0c-2.6,0-5.2,0-7.8,0c-0.6,0-1.2-0.2-1.5-0.7
			c-0.5-0.7-1.2-0.9-2-0.9c-1,0-2,0-3,0c-0.5,0-1-0.1-1.3-0.6c0-0.1-0.1-0.1-0.2-0.2c-0.4-0.6-1-0.8-1.7-0.8c-1.1,0-2.2,0-3.3,0
			c-0.5,0-1-0.2-1.3-0.7c-0.1-0.1-0.2-0.3-0.3-0.4c-0.3-0.3-0.7-0.5-1.1-0.5c-1.5,0-3-0.1-4.5,0c-1,0-1.8-0.2-2.4-1.1
			c-0.2-0.4-0.7-0.5-1.1-0.5c-0.3,0-0.5,0-0.8,0c-0.4,0-0.8,0-1.3,0c-0.6,0-1-0.2-1.3-0.6c-0.2-0.2-0.3-0.4-0.5-0.6
			c-0.2-0.2-0.4-0.3-0.7-0.3c-0.5-0.1-1-0.1-1.5-0.1c-1.1,0.1-2-0.2-2.6-1.1c-0.2-0.2-0.6-0.4-0.9-0.4c-0.4-0.1-0.8-0.1-1.3,0
			c-1.1,0.1-2-0.1-2.6-1.1c-0.2-0.3-0.5-0.4-0.9-0.4c-0.3,0-0.7-0.1-1,0c-1.2,0.1-2.3-0.1-3.1-1.2c-0.1-0.2-0.6-0.3-0.9-0.3
			c-0.8,0-1.5-0.2-1.9-0.9c-0.3-0.6-0.9-0.7-1.5-0.7c-0.5,0-1,0-1.5,0c-0.7,0-1.3-0.2-1.7-0.8c-0.3-0.5-0.8-0.8-1.5-0.8
			c-0.7,0.1-1.3-0.2-1.7-0.8c-0.3-0.5-0.8-0.9-1.5-0.8c-0.7,0.1-1.3-0.2-1.7-0.8c-0.3-0.6-0.8-0.8-1.5-0.8c-0.7,0-1.3-0.2-1.7-0.8
			c-0.3-0.5-0.9-0.8-1.5-0.8c-0.7,0-1.3-0.2-1.7-0.8c-0.3-0.5-0.8-0.8-1.5-0.8c-0.7,0.1-1.3-0.2-1.7-0.9c-0.4-0.5-0.9-0.8-1.5-0.7
			c-0.7,0-1.3-0.2-1.7-0.9c-0.3-0.5-0.9-0.8-1.5-0.7c-0.7,0.1-1.3-0.2-1.7-0.9c-0.4-0.7-1-0.8-1.7-0.8c-0.6,0-1-0.2-1.3-0.6
			c-0.4-0.6-0.9-1-1.7-0.9c-0.7,0.1-1.3-0.2-1.7-0.8c-0.4-0.5-0.9-0.8-1.5-0.7c-0.7,0-1.2-0.3-1.7-0.8c-1.7-1.8-3.4-3.5-5.1-5.2
			c-0.2-0.2-0.4-0.3-0.7-0.3c-0.2-0.1-0.5-0.1-0.8-0.1c-0.5,0-1-0.2-1.3-0.7c-0.5-0.7-1.1-1-1.9-0.9c-0.4,0-0.9-0.1-1.1-0.5
			c-0.4-0.5-1-0.9-1.4-1.4c-0.7-0.8-1.4-1.4-2.5-1.3c-0.3,0-0.6-0.2-0.9-0.4c-1.1-1-2.2-2.1-3.2-3.2c-0.7-0.8-1.3-1.2-2.4-1.1
			c-0.3,0-0.6-0.2-0.9-0.4c-4.7-4.7-9.5-9.5-14.2-14.2c-3.4-3.4-6.7-6.8-10.1-10.2c-4-4-8.1-8-12.1-12c-0.4-0.4-0.6-0.8-0.6-1.3
			c0-0.3,0-0.5-0.1-0.8c0-0.3-0.2-0.7-0.5-0.8c-0.9-0.4-1.1-1.2-1-2.1c0-0.3-0.1-0.7-0.4-0.9c-0.5-0.5-1.1-1.1-1.6-1.6
			c-1.3-1.3-2.7-2.5-4-3.8c-0.2-0.2-0.4-0.6-0.4-0.9c-0.1-0.3,0-0.7-0.1-1c0-0.2-0.1-0.5-0.3-0.7c-0.6-0.7-1.3-1.3-2-1.9
			c-0.6-0.5-0.9-1-0.8-1.7c0.1-0.7-0.3-1.3-0.9-1.7c-0.4-0.3-0.6-0.8-1.1-1.1c-1-0.6-1.4-1.4-1.3-2.5c0-0.4-0.2-0.6-0.4-0.9
			c-0.2-0.2-0.4-0.3-0.6-0.4c-0.4-0.3-0.5-0.6-0.5-1.1c0.1-0.9-0.1-1.6-1.1-2.1c-0.2-0.1-0.4-0.5-0.5-0.8c-0.1-0.2-0.1-0.5-0.1-0.7
			c0-0.5-0.2-1-0.6-1.3c-0.4-0.3-0.7-0.7-1.1-1c-0.9-0.8-1.8-1.5-1.5-2.9c0-0.2-0.2-0.4-0.3-0.6c-0.1-0.1-0.2-0.2-0.4-0.3
			c-0.5-0.3-0.9-0.8-0.8-1.4c0-0.2,0-0.3,0-0.5c0-0.5-0.3-1-0.8-1.2c-0.6-0.3-0.9-0.8-0.8-1.4c0-0.2,0-0.3,0-0.5
			c0-0.6-0.2-1-0.7-1.2c-0.7-0.4-0.9-0.9-0.9-1.7c0.1-0.7-0.2-1.3-0.9-1.7c-0.6-0.3-0.7-0.9-0.7-1.5c0-0.6,0-1.2,0-1.8
			c0-0.5-0.2-1-0.6-1.3c-0.1-0.1-0.3-0.2-0.4-0.3c-0.4-0.2-0.6-0.6-0.6-1c0-0.2,0-0.3,0-0.5c0-0.6-0.2-1.1-0.8-1.5
			c-0.6-0.3-0.8-0.8-0.8-1.4c0-0.1,0-0.2,0-0.3c0-0.8-0.3-1.3-0.9-1.6c-0.5-0.3-0.7-0.7-0.7-1.2c0-1.3,0-2.5,0.1-3.8
			c0-0.4-0.1-0.7-0.4-0.9c-0.3-0.2-0.5-0.4-0.8-0.6c-0.7-0.6-1.4-1.2-1.9-2c-0.5-0.8-0.1-1.8-0.1-2.7c0-0.5-0.2-1-0.6-1.3
			c-0.2-0.1-0.4-0.3-0.6-0.5c-0.3-0.2-0.4-0.5-0.4-0.9c0-1.2,0-2.4,0-3.5c0-0.6-0.1-1.2-0.7-1.5c-0.8-0.4-1-1.1-0.9-1.9
			c0-0.6-0.3-1.1-0.8-1.4c-0.6-0.3-0.8-0.8-0.8-1.5c0-1,0-2,0.1-3c0-0.8-0.1-1.5-0.9-1.9c-0.1,0-0.1-0.1-0.2-0.1
			c-0.4-0.3-0.6-0.6-0.6-1.1c0-1.2,0-2.4,0.1-3.5c0-0.6-0.1-1.2-0.7-1.5c-0.1-0.1-0.3-0.2-0.4-0.3c-0.3-0.3-0.6-0.6-0.6-1.1
			c0-0.8,0-1.5,0-2.3c0-0.5,0-1,0-1.5c0-0.4-0.1-0.8-0.5-1.1c-0.1-0.1-0.3-0.2-0.4-0.3c-0.5-0.4-0.7-0.9-0.7-1.5c0-2.8,0-5.6,0-8.3
			c0-0.5,0-1,0-1.5c0-0.6-0.3-1.1-0.9-1.4c-0.5-0.2-0.7-0.5-0.7-0.9c0-0.6,0-1.2,0-1.8c0-19.5,0-39,0-58.5c0-0.5,0-1,0-1.5
			c0-0.7,0.3-1.1,0.9-1.3c0.5-0.2,0.7-0.7,0.7-1.2c0-2.2,0-4.4,0-6.6c0-0.7,0.2-1.3,0.9-1.7c0.6-0.3,0.8-0.8,0.8-1.5
			c0-1.2,0-2.4-0.1-3.5c0-0.6,0.2-1,0.7-1.3c0.1,0,0.1-0.1,0.2-0.1c0.6-0.3,0.8-0.8,0.8-1.5c0-1.2,0-2.4-0.1-3.5
			c0-0.5,0.2-1,0.7-1.3c0.1-0.1,0.3-0.2,0.4-0.3c0.4-0.3,0.5-0.6,0.5-1.1c0-1.2,0-2.4,0-3.5c0-0.6,0.2-1.2,0.7-1.5
			c0.1-0.1,0.3-0.2,0.4-0.3c0.4-0.3,0.5-0.6,0.5-1.1c0-0.5,0-1,0-1.5c-0.1-0.9,0.1-1.6,1-2.1c0.5-0.2,0.6-0.8,0.6-1.3
			c0-0.4,0-0.8,0-1.3c-0.1-1,0.2-1.8,1.1-2.3c0.4-0.2,0.5-0.6,0.5-1.1c0-0.7,0-1.3,0-2c0-0.5,0.2-1,0.6-1.3c0.2-0.2,0.4-0.3,0.6-0.5
			c0.3-0.2,0.4-0.5,0.4-0.9c0-0.8,0-1.5,0-2.3c0-0.5,0.2-1,0.7-1.2c0.7-0.4,1-0.9,0.9-1.6c-0.1-0.7,0.1-1.3,0.8-1.7
			c0.6-0.3,0.8-0.8,0.8-1.5c0-0.6,0-1.2-0.1-1.8c0-0.6,0.2-1.2,0.7-1.5c0.7-0.4,0.9-0.9,0.9-1.7c0-0.7,0.2-1.3,0.9-1.7
			c0.5-0.3,0.7-0.7,0.7-1.3c0-0.3,0-0.5,0-0.8c0-0.4,0.2-0.6,0.5-0.9c0.2-0.2,0.4-0.3,0.6-0.4c0.3-0.3,0.5-0.7,0.5-1.1
			c0-0.6,0-1.2,0-1.8c0-0.7,0.2-1.3,0.8-1.7c0.7-0.5,1.2-1.1,1.8-1.7c0.4-0.4,0.6-0.8,0.6-1.3c0-0.1,0-0.2,0-0.3
			c-0.1-0.8,0.3-1.3,0.9-1.6c0.5-0.3,0.7-0.7,0.7-1.3c0.1-1-0.4-2.1,0.2-2.9c0.5-0.7,1.3-1.3,1.9-2c0.1-0.1,0.3-0.2,0.4-0.3
			c0.4-0.3,0.5-0.6,0.5-1.1c0-0.3,0-0.5,0-0.8c0-0.4,0.1-0.7,0.4-0.9c0.8-0.7,1.6-1.5,2.4-2.2c0.2-0.2,0.3-0.4,0.3-0.6
			c0.1-0.2,0.1-0.3,0-0.5c-0.1-0.8,0.2-1.5,1-1.9c0.4-0.2,0.6-0.6,0.6-1c0-0.2,0-0.3,0-0.5c0-0.6,0.2-1.1,0.7-1.5c1.1-1,2-2.1,3.1-3
			c0.7-0.6,1.1-1.2,1-2.1c0-0.5,0.3-0.9,0.7-1.3c1.3-1.2,2.6-2.4,3.8-3.6c0.2-0.2,0.2-0.4,0.3-0.7c0-0.2,0-0.5,0-0.8
			c0-0.5,0.2-1,0.7-1.3c0.7-0.4,1-0.9,0.9-1.6c-0.1-0.7,0.2-1.3,0.9-1.7c0.5-0.3,0.8-0.9,1.2-1.2c0.9-0.6,1.2-1.3,1.1-2.3
			c0-0.3,0.2-0.6,0.4-0.9c3.1-3.1,6.2-6.1,9.3-9.2c2.9-2.9,5.8-5.8,8.7-8.7c3-3,5.9-5.9,8.9-8.9c1-1,2.1-2,3-3
			c0.5-0.6,1-0.9,1.7-0.8c0.6,0,1.1-0.2,1.5-0.8c0.2-0.3,0.5-0.5,0.7-0.7c0.2-0.2,0.5-0.4,0.7-0.7c0.5-0.8,1.2-1.1,2.1-1.1
			c0.4,0,0.8-0.2,1.1-0.5c1.8-1.8,3.5-3.6,5.3-5.4c0.4-0.4,0.9-0.5,1.4-0.4c0.5,0,1-0.1,1.3-0.6c0.6-0.6,1.2-1.2,1.7-1.8
			c0.5-0.6,1-0.9,1.7-0.8c0.6,0.1,1.1-0.3,1.5-0.7c1.1-1.2,2.3-2.4,3.5-3.6c0.3-0.3,0.7-0.5,1.1-0.4c0.9,0.1,1.4-0.3,1.9-1
			c0.3-0.4,0.7-0.7,1.3-0.6c0.8,0.1,1.5-0.3,1.9-1c0.3-0.5,0.8-0.6,1.3-0.7c0.3,0,0.5,0,0.8-0.1c0.2-0.1,0.5-0.2,0.7-0.3
			c1.2-1.2,2.5-2.5,3.7-3.8c0.4-0.4,0.8-0.6,1.3-0.6c0.7,0,1.3-0.2,1.7-0.8c0.4-0.6,1-0.9,1.7-0.8c0.6,0,1.1-0.2,1.5-0.8
			c0-0.1,0.1-0.1,0.2-0.2c0.3-0.4,0.8-0.7,1.3-0.6c0.9,0.1,1.4-0.3,1.9-1c0.3-0.5,0.8-0.6,1.3-0.6c0.9-0.1,1.9,0.3,2.7-0.2
			c0.7-0.4,1.2-1.1,1.8-1.7c0.2-0.2,0.4-0.5,0.7-0.8c0.3-0.3,0.7-0.5,1.1-0.5c0.1,0,0.2,0,0.3,0c0.6,0,1.1-0.2,1.5-0.7
			c0.4-0.6,1-0.9,1.7-0.9c0.6,0,1.2,0,1.8,0c0.5,0,1-0.2,1.3-0.7c0.5-0.7,1.1-1,1.9-0.9c0.5,0.1,1-0.2,1.3-0.7
			c0.5-0.7,1.1-1,1.9-0.9c0.2,0,0.5,0,0.8,0c0.2,0,0.3,0,0.5,0c0.7,0,1.3-0.2,1.7-0.8c0.4-0.6,1-0.8,1.7-0.8c0.3,0,0.5,0,0.8,0
			c1.1,0.1,2-0.1,2.6-1.1c0.2-0.3,0.5-0.4,0.9-0.4c0.5,0,1-0.1,1.5,0c1,0.1,1.8-0.2,2.4-1.1c0.2-0.4,0.7-0.5,1.1-0.5
			c0.8,0,1.5-0.2,1.9-0.9c0.4-0.5,0.9-0.7,1.5-0.7c1,0,2,0,3,0c0.7,0,1.3-0.2,1.7-0.8c0.4-0.6,1-0.8,1.7-0.8c0.8,0,1.7-0.1,2.5,0
			c1,0.1,1.8-0.2,2.4-1.1c0.2-0.4,0.7-0.5,1.1-0.5c1.3,0,2.5,0,3.8,0c0.4,0,0.8-0.2,1.1-0.5c0.1-0.1,0.2-0.3,0.3-0.4
			c0.3-0.4,0.7-0.6,1.3-0.6c1.1,0,2.2,0,3.3,0c0.9,0,1.9,0,2.8,0c1,0.1,1.8-0.2,2.4-1.1c0.2-0.4,0.7-0.5,1.1-0.5c1.6,0,3.2,0,4.8,0
			c0.7,0,1.3,0,2,0c0.7,0,1.1-0.3,1.4-0.9c0.2-0.4,0.5-0.7,0.9-0.7c0.5,0,1,0,1.5,0c5.9,0,11.8,0,17.7,0c0.3,0,0.7,0,1,0
			c1.1,0,1.3,0.2,1.3,1.3c0,1.5,0,3,0,4.5c0,103.2,0,206.4,0,309.6c0,1.3,0,2.5,0,3.8c0,0.3,0,0.7,0,1c0,0.5-0.5,0.9-1,1
			c-0.2,0-0.3,0-0.5,0c-3.3,0-6.6,0-9.8,0c-0.4,0-0.8-0.1-1.1-0.5c-1.5-1.6-3-3.1-4.6-4.6c-0.3-0.2-0.4-0.5-0.4-0.9
			c0-0.3,0-0.5,0-0.8c0-0.6-0.2-1-0.7-1.2c-0.7-0.4-0.9-0.9-0.9-1.7c0-0.2,0-0.3,0-0.5c0-0.3-0.2-0.6-0.5-0.9
			c-0.4-0.3-0.7-0.7-1.1-1c-2-1.3-1.9-3.8-3.2-5.5c-0.2-0.3,0-0.9-0.3-1.2c-2.4-1.6-3.3-4.4-4.7-6.6c-1.6-2.5-3.6-4.7-4.9-7.5
			c-1.1-2.5-2.7-5-3.8-7.5c-1.2-2.7-3.7-4.1-4.8-6.4c-1.6-3.4-5-5.9-5.4-9.9c-1.8-1-1.4-3.3-3.1-4.5c-2-1.5-2.3-4.1-3.5-6.1
			c-1-1.8-1.5-3.8-3-5.3c-1.5-1.5-3.6-2.5-3.6-5.2C183,266.7,181.7,266.5,181.3,265.7z"/>
		<path class="st2" d="M181.3,265.7c0.8,0.2,1.4,0.9,2,1.4c0.1,0.1,0.2,0.3,0.2,0.5c0,0.3,0.1,0.7,0.1,1c0,0.4,0.2,0.8,0.5,1.1
			c1.3,1.1,2.3,2.5,3.6,3.5c0.5,0.4,0.8,0.9,0.7,1.5c-0.1,0.8,0.3,1.3,0.9,1.7c0.5,0.3,0.7,0.7,0.7,1.3c0,0.8,0.1,1.5,0.9,1.9
			c0.6,0.3,0.7,0.9,0.7,1.5c-0.1,0.7,0.2,1.3,0.9,1.7c0.3,0.2,0.5,0.7,0.9,0.9c1,0.7,1.8,1.5,1.6,2.9c0,0.3,0.2,0.6,0.5,0.8
			c0.8,0.4,1,1.1,1,1.9c0,0.7,0.2,1.1,0.8,1.4c0.6,0.3,0.8,0.9,0.7,1.5c0,0.7,0.1,1.3,0.8,1.7c0.5,0.3,0.8,0.9,1.2,1.2
			c0.9,0.5,1.3,1.3,1.2,2.3c0,0.3,0.2,0.7,0.4,0.9c1.3,1.2,2.4,2.6,3.8,3.7c0.4,0.3,0.6,0.8,0.6,1.3c0,0.3,0,0.5,0,0.8
			c0,0.4,0.2,0.7,0.5,0.8c0.7,0.4,1.1,1,1.1,1.8c-0.1,0.8,0.3,1.3,0.9,1.6c0.4,0.2,0.6,0.6,0.6,1c0,0.3,0,0.7,0.1,1
			c0,0.4,0.2,0.7,0.5,0.8c0.9,0.4,1.1,1.2,1.1,2.1c0,0.3,0.1,0.7,0.3,0.9c0.6,0.6,1.1,1.3,1.8,1.7c0.9,0.6,1.2,1.3,1.2,2.3
			c0,0.4,0.2,0.8,0.5,1.1c0.5,0.4,0.9,1,1.4,1.4c0.9,0.6,1.2,1.3,1.2,2.3c0,0.3,0.2,0.6,0.4,0.9c0.5,0.5,0.9,1,1.4,1.4
			c0.9,0.6,1.4,1.4,1.4,2.5c0,0.6,0.4,0.9,0.8,1.2c0.6,0.3,0.8,0.8,0.7,1.5c-0.1,0.7,0.1,1.3,0.8,1.7c0.2,0.1,0.4,0.3,0.5,0.6
			c0.1,0.1,0,0.3,0,0.5c-0.5,0-0.9-0.4-1.3-0.7c-0.4-0.2-0.6-0.6-0.6-1c0-0.3,0-0.5,0-0.8c0-0.5-0.2-1-0.7-1.2
			c-0.6-0.3-0.9-0.8-0.8-1.4c0.1-0.9-0.3-1.6-1-2.1c-0.5-0.4-0.8-1.1-1.5-1.4c-0.5-0.3-0.7-0.7-0.7-1.3c0-0.3,0-0.5,0-0.8
			c-0.1-0.2-0.1-0.5-0.3-0.7c-0.7-0.7-1.4-1.4-2.2-2.1c-0.5-0.4-0.8-0.9-0.8-1.5c0-0.7-0.2-1.3-0.8-1.7c-0.4-0.3-0.6-0.8-1-1.1
			c-1-0.6-1.5-1.5-1.4-2.7c0-0.3-0.2-0.6-0.6-0.8c-0.6-0.4-1-0.9-1-1.6c0-0.8-0.2-1.5-1-1.9c-0.4-0.2-0.6-0.6-0.6-1
			c0-0.3,0-0.5,0-0.8c0-0.5-0.2-0.9-0.6-1c-0.9-0.4-1.1-1.2-1-2.1c0-0.1,0-0.2,0-0.2c-0.1-0.3-0.2-0.6-0.5-0.9
			c-1-1.1-2.1-2.2-3.2-3.1c-0.8-0.7-1.2-1.3-1.2-2.3c0-0.3-0.2-0.6-0.4-0.9c-0.5-0.5-0.9-1-1.4-1.4c-0.9-0.6-1.4-1.4-1.3-2.5
			c0-0.4-0.2-0.8-0.6-1c-0.1,0-0.1-0.1-0.2-0.1c-0.6-0.3-0.9-0.8-0.7-1.5c0.1-0.9-0.2-1.4-1-1.8c-0.5-0.3-0.7-0.7-0.6-1.3
			c0.1-0.9-0.3-1.6-1.1-2.1c-0.5-0.4-0.8-1-1.4-1.4c-0.5-0.3-0.6-0.8-0.6-1.3c0-0.2,0-0.3,0-0.5c0-0.6-0.2-1-0.7-1.2
			c-0.7-0.4-0.9-0.9-0.9-1.7c0.1-0.7-0.2-1.3-0.9-1.6c-0.4-0.2-0.6-0.6-0.6-1c0-0.3,0-0.7-0.1-1c-0.1-0.3-0.2-0.6-0.4-0.9
			c-1-1-1.9-2.2-3-3c-1-0.7-1.5-1.5-1.4-2.7c0-0.3-0.2-0.6-0.5-0.8c-0.3-0.3-0.6-0.5-0.9-0.9C181.3,266.2,181.3,266,181.3,265.7z"/>
		<path class="st2" d="M328.7,267.7c0.5,0,0.9,0.4,1.3,0.7c0.4,0.2,0.6,0.6,0.6,1c0,0.3,0,0.5,0,0.8c0,0.5,0.2,1,0.7,1.2
			c0.7,0.4,0.9,0.9,0.9,1.7c-0.1,0.7,0.3,1.2,0.8,1.7c0.9,0.8,1.7,1.9,2.6,2.7c0.9,0.7,1.5,1.5,1.4,2.7c0,0.3,0.2,0.6,0.5,0.8
			c0.7,0.4,1,1.1,1,1.9c0,0.5,0.1,1,0.6,1.3c0.7,0.4,1,1,1,1.9c-0.1,0.6,0.3,1.1,0.7,1.5c1.2,1.1,2.3,2.4,3.6,3.5
			c0.2,0.1,0.3,0.4,0.3,0.6c0.1,0.4,0,0.8,0.1,1.2c0,0.2,0.2,0.5,0.3,0.7c0.6,0.6,1.1,1.3,1.8,1.7c0.8,0.5,1.2,1.1,1.1,2.1
			c0,0.7,0.3,1.1,0.9,1.4c0.5,0.3,0.7,0.7,0.7,1.3c0,0.3,0,0.5,0,0.8c0,0.3,0.2,0.6,0.4,0.9c0.5,0.5,1,1.2,1.6,1.6
			c1.1,0.6,1.2,1.5,1.2,2.6c0,0.6-0.1,1.2,0.1,1.7c0.1,0.6,0.8,0.8,1.2,1.2c0.2,0.3,0.5,0.7,0.9,0.9c1,0.5,1.2,1.3,1.1,2.3
			c-0.1,0.3,0.1,0.6,0.4,0.9c0.2,0.2,0.4,0.3,0.6,0.4c0.3,0.3,0.6,0.6,0.6,1.1c0,0.3,0,0.5,0,0.8c0,0.4,0.2,0.8,0.5,1.1
			c0.4,0.4,0.8,0.9,1.2,1.2c1,0.6,1.5,1.5,1.4,2.7c0,0.4,0.2,0.6,0.5,0.8c0.3,0.2,0.5,0.5,0.4,0.8c-0.5,0.1-0.8-0.1-1.1-0.4
			c-0.2-0.2-0.4-0.6-0.5-0.9c-0.1-0.2-0.1-0.5-0.1-0.8c0-0.5-0.2-0.9-0.6-1.3c-0.4-0.3-0.7-0.8-1.1-1.1c-1-0.7-1.8-1.5-1.6-2.9
			c0-0.3-0.2-0.6-0.5-0.8c-0.8-0.4-1-1.1-1-1.9c0-0.6-0.2-1.1-0.8-1.5c-0.7-0.5-1.1-1.3-1.8-1.7c-0.5-0.3-0.6-0.8-0.6-1.3
			c0-0.4,0-0.8,0-1.3c0.1-0.9-0.1-1.6-0.9-2.2c-0.6-0.4-1-1.2-1.6-1.6c-0.5-0.3-0.6-0.8-0.6-1.3c0-0.3,0-0.5-0.1-0.8
			c-0.1-0.3-0.2-0.6-0.5-0.8c-0.7-0.4-1.2-1-1.1-1.8c0.1-0.8-0.3-1.3-0.9-1.7c-0.6-0.4-0.9-1.2-1.6-1.6c-0.5-0.3-0.7-0.7-0.7-1.3
			c0-0.3,0-0.5,0-0.8c-0.1-0.2-0.1-0.5-0.3-0.7c-1.4-1.1-2.4-2.6-3.8-3.7c-0.4-0.3-0.6-0.8-0.6-1.3c0-0.3,0-0.5,0-0.8
			c-0.1-0.3-0.2-0.7-0.5-0.8c-0.8-0.4-1.3-1.1-1.2-2c0.1-0.6-0.2-1.1-0.8-1.4c-0.6-0.3-0.8-0.9-0.7-1.5c0-0.7-0.2-1.2-0.8-1.7
			c-1-0.9-1.8-2-2.8-2.8c-0.8-0.6-1.2-1.3-1.2-2.3c0-0.4-0.2-0.8-0.6-1c-0.8-0.4-1-1.1-0.9-1.9c0.1-0.7-0.3-1.1-0.8-1.4
			C328.8,268.5,328.6,268.2,328.7,267.7z"/>
		<path class="st2" d="M294.8,187.5c-0.4,0.1-0.7,0-0.9-0.3c-0.4-0.4-0.7-0.9-1.2-1.2c-0.9-0.6-1.2-1.3-1.1-2.3c0-0.5-0.2-0.8-0.6-1
			c-0.1-0.1-0.3-0.2-0.4-0.3c-0.3-0.3-0.6-0.6-0.6-1.1c0-0.3,0-0.7-0.1-1c0-0.2-0.1-0.5-0.3-0.7c-0.6-0.6-1.3-1.3-2-1.9
			c-0.6-0.5-0.9-1-0.8-1.7c0.1-0.8-0.3-1.3-0.9-1.6c-0.5-0.3-0.7-0.7-0.7-1.3c0-0.3,0-0.5,0-0.8c0-0.3-0.2-0.6-0.4-0.9
			c-0.7-0.7-1.5-1.4-2.2-2.1c-0.3-0.3-0.5-0.7-0.5-1.1c0-0.3,0-0.5-0.1-0.7c0-0.4-0.2-0.8-0.6-1c-0.8-0.4-1-1-1-1.9
			c0-0.5-0.2-0.9-0.6-1.3c-0.7-0.7-1.4-1.4-2.1-2.1c-0.3-0.3-0.5-0.6-0.4-1.1c0.9,0.2,1.4,0.9,1.9,1.5c0.4,0.4,0.8,0.9,1.3,1.2
			c0.5,0.3,0.7,0.7,0.7,1.3c0,0.3,0,0.5,0,0.8c0,0.4,0.2,0.8,0.7,1c0.7,0.3,1,0.9,0.9,1.7c-0.1,0.8,0.2,1.3,0.8,1.7
			c0.5,0.4,0.7,0.9,1.2,1.2c0.9,0.6,1.2,1.3,1.1,2.3c0,0.3,0.1,0.7,0.4,0.9c0.8,0.5,1.2,1.1,1.1,2.1c0,0.5,0.2,1,0.6,1.3
			c0.4,0.4,0.8,0.9,1.2,1.2c1.1,0.6,1.5,1.5,1.5,2.7c0,0.3,0.2,0.6,0.5,0.8c0.1,0.1,0.3,0.2,0.4,0.3c0.3,0.2,0.6,0.5,0.5,0.8
			c-0.2,1.3,0.6,2.2,1.5,3c0.4,0.3,0.7,0.7,1,1.1C294.8,187.1,294.8,187.3,294.8,187.5z"/>
	</g>
</g>
<g id="Capa_2" class="st3">
	<line class="st4" x1="629" y1="345" x2="629" y2="145"/>
	<line class="st5" x1="630" y1="148" x2="749" y2="342"/>
	<line class="st4" x1="750" y1="345" x2="750" y2="24"/>
	<line class="st4" x1="776" y1="466" x2="776" y2="145"/>
	<line class="st5" x1="777" y1="148" x2="896" y2="342"/>
	<line class="st4" x1="896" y1="345" x2="896" y2="145"/>
</g>
</svg>
