<?xml version="1.0" encoding="utf-8"?>
<!-- Generator: Adobe Illustrator 21.0.0, SVG Export Plug-In . SVG Version: 6.00 Build 0)  -->
<svg version="1.1" xmlns="http://www.w3.org/2000/svg" xmlns:xlink="http://www.w3.org/1999/xlink" x="0px" y="0px"
	 viewBox="0 0 1920 1080" style="enable-background:new 0 0 1920 1080;" xml:space="preserve">
<style type="text/css">
	.st0{display:none;}
	.st1{display:inline;}
	.st2{fill:#0CCC00;}
	.st3{fill:#FFFFFF;}
	.st4{display:inline;fill:url(#SVGID_1_);stroke:#000000;stroke-miterlimit:10;}
	.st5{display:inline;fill:url(#SVGID_2_);stroke:#000000;stroke-miterlimit:10;}
	.st6{display:inline;fill:url(#SVGID_3_);stroke:#000000;stroke-miterlimit:10;}
	.st7{display:inline;fill:url(#SVGID_4_);stroke:#000000;stroke-miterlimit:10;}
	.st8{display:inline;fill:#FFFFFF;stroke:#000000;stroke-miterlimit:10;}
	.st9{display:inline;fill:url(#SVGID_5_);stroke:#000000;stroke-miterlimit:10;}
	.st10{display:inline;fill:url(#SVGID_6_);stroke:#000000;stroke-miterlimit:10;}
	.st11{display:inline;fill:url(#SVGID_7_);stroke:#000000;stroke-miterlimit:10;}
	.st12{display:inline;fill:url(#SVGID_8_);stroke:#000000;stroke-miterlimit:10;}
	.st13{display:inline;fill:url(#SVGID_9_);stroke:#000000;stroke-miterlimit:10;}
	.st14{display:inline;fill:url(#SVGID_10_);stroke:#000000;stroke-miterlimit:10;}
	.st15{display:inline;fill:url(#SVGID_11_);stroke:#000000;stroke-miterlimit:10;}
	.st16{display:inline;fill:#BF272F;stroke:#000000;stroke-miterlimit:10;}
	.st17{display:inline;fill:url(#SVGID_12_);stroke:#000000;stroke-miterlimit:10;}
	.st18{display:inline;fill:url(#SVGID_13_);stroke:#000000;stroke-miterlimit:10;}
	.st19{display:inline;fill:url(#SVGID_14_);stroke:#000000;stroke-miterlimit:10;}
	.st20{display:inline;fill:url(#SVGID_15_);stroke:#000000;stroke-miterlimit:10;}
	.st21{display:inline;fill:url(#SVGID_16_);stroke:#000000;stroke-miterlimit:10;}
	.st22{display:inline;fill:url(#SVGID_17_);stroke:#000000;stroke-miterlimit:10;}
	.st23{fill:#BB262E;}
	.st24{fill:#B1242C;}
	.st25{enable-background:new    ;}
	.st26{fill:#A31A1A;}
	.st27{fill:#A72229;}
	.st28{display:inline;fill:url(#SVGID_18_);stroke:#000000;stroke-miterlimit:10;}
	.st29{display:inline;fill:#FEFEFE;stroke:#211915;stroke-miterlimit:10;}
	.st30{fill:#3A2A97;stroke:#3A2A97;stroke-miterlimit:10;}
	.st31{fill:#979998;stroke:#979998;stroke-miterlimit:10;}
	.st32{font-family:'MyriadPro-Bold';}
	.st33{font-size:60.2435px;}
</style>
<g id="Capa_1" class="st0">
	<g class="st1">
		<polygon class="st2" points="19,809 226.4,272.4 1903,272.4 1695.7,809 		"/>
	</g>
	<g class="st1">
		<path class="st3" d="M39.4,755.7h240.3l41.6-107.5l41.6-107.5l31.6-81.6l73.3,189l-104.9,0.2l-41.6,107.5l220.2-0.1l41.6-107.5
			l-41.6-107.5l-41.7-107.6L481.2,385c-13.8-35.8-48.2-59.3-86.6-59.3l0,0c-38.3,0-72.7,23.6-86.6,59.3l-18.6,48.1l-83.3,215.1H80.9
			L39.4,755.7z"/>
	</g>
	<g class="st1">
		<path class="st3" d="M583.1,755.6l315.5,0.1l0,0h0.1c45.9-0.1,83.1-37.3,83.1-83.2V570.1c0-46-37.3-83.2-83.2-83.2l0,0H624.7
			l41.6,107.6l205.4-0.1c14.9,0,26.9,12,26.9,26.9l0,0c0,14.8-12,26.9-26.8,26.9H857l-232.3-0.1L583.1,755.6z"/>
	</g>
	<g class="st1">
		<path class="st3" d="M981.8,325.8l-315.5-0.1l0,0h-0.1c-45.9,0.1-83.1,37.3-83.1,83.2v102.4c0,46,37.3,83.2,83.2,83.2l0,0h273.9
			l-41.6-107.6L693.2,487c-14.9,0-26.9-12-26.9-26.9l0,0c0-14.8,12-26.9,26.8-26.9h14.8l232.3,0.1L981.8,325.8z"/>
	</g>
	<g class="st1">
		<path class="st3" d="M981.8,433.2l288.7,0.2c14.8,0,26.8,12,26.8,26.8l0,0c0,14.8-12,26.8-26.8,26.8h-207.3l-41.6,107.5v161.3
			l107-0.1l0.9-161.3h73.1l62.7,161.5l115.2-0.1L1339,648.3l-19.5-53.9l0,0c33.7,0,61.1-27.4,61.1-61.1V386.8
			c0-33.7-27.4-61.1-61.1-61.1h-296L981.8,433.2z"/>
	</g>
	<g class="st1">
		<polygon class="st3" points="1380.6,433.5 1840.5,433.5 1757.4,648.4 1463.7,648.2 		"/>
	</g>
</g>
<g id="Capa_2" class="st0">
	<linearGradient id="SVGID_1_" gradientUnits="userSpaceOnUse" x1="384.5418" y1="610.9841" x2="384.5418" y2="519.1995">
		<stop  offset="0" style="stop-color:#383838"/>
		<stop  offset="8.226728e-02" style="stop-color:#3C3C3C"/>
		<stop  offset="0.1639" style="stop-color:#484848"/>
		<stop  offset="0.2452" style="stop-color:#5C5C5C"/>
		<stop  offset="0.3264" style="stop-color:#787878"/>
		<stop  offset="0.4076" style="stop-color:#9C9C9C"/>
		<stop  offset="0.4888" style="stop-color:#C8C8C8"/>
		<stop  offset="0.5685" style="stop-color:#FBFBFB"/>
		<stop  offset="0.5741" style="stop-color:#FFFFFF"/>
		<stop  offset="0.602" style="stop-color:#F9F9F9"/>
		<stop  offset="0.7536" style="stop-color:#E0E0E0"/>
		<stop  offset="0.8908" style="stop-color:#D0D0D0"/>
		<stop  offset="1" style="stop-color:#CBCBCB"/>
	</linearGradient>
	<path class="st4" d="M327.1,611v-62.1c0,0,1.1-29.7,27.5-29.7c26.4,0,64.3,0,64.3,0s23.1,4.9,23.1,22.5s0,69.3,0,69.3h-23.6v-27.5
		h-56.1v-23.6l56.6,0.1l0.1-13.2c0,0,1-4.7-3.4-4.7c-4.4,0-60.6,0-60.6,0s-3.7-0.8-3.7,3.8c0,4.7-0.3,65-0.3,65H327.1z"/>
	<linearGradient id="SVGID_2_" gradientUnits="userSpaceOnUse" x1="505.1962" y1="612.4963" x2="505.1962" y2="519.1995">
		<stop  offset="0" style="stop-color:#383838"/>
		<stop  offset="8.226728e-02" style="stop-color:#3C3C3C"/>
		<stop  offset="0.1639" style="stop-color:#484848"/>
		<stop  offset="0.2452" style="stop-color:#5C5C5C"/>
		<stop  offset="0.3264" style="stop-color:#787878"/>
		<stop  offset="0.4076" style="stop-color:#9C9C9C"/>
		<stop  offset="0.4888" style="stop-color:#C8C8C8"/>
		<stop  offset="0.5685" style="stop-color:#FBFBFB"/>
		<stop  offset="0.5741" style="stop-color:#FFFFFF"/>
		<stop  offset="0.602" style="stop-color:#F9F9F9"/>
		<stop  offset="0.7536" style="stop-color:#E0E0E0"/>
		<stop  offset="0.8908" style="stop-color:#D0D0D0"/>
		<stop  offset="1" style="stop-color:#CBCBCB"/>
	</linearGradient>
	<path class="st5" d="M448.4,519.2h22.7v64.4c0,0-0.3,5.9,5.1,5.9c5.4,0,58.4,0,58.4,0s4.4,1.1,4.4-4.4s0-66,0-66h23.2v66.9
		c0,0-3.8,26.4-24.9,26.4c-21,0-64.7,0-64.7,0s-23.6,0.5-24.2-27.6S448.4,519.2,448.4,519.2z"/>
	<linearGradient id="SVGID_3_" gradientUnits="userSpaceOnUse" x1="621.4918" y1="611.3963" x2="621.4918" y2="519.1995">
		<stop  offset="0" style="stop-color:#383838"/>
		<stop  offset="8.226728e-02" style="stop-color:#3C3C3C"/>
		<stop  offset="0.1639" style="stop-color:#484848"/>
		<stop  offset="0.2452" style="stop-color:#5C5C5C"/>
		<stop  offset="0.3264" style="stop-color:#787878"/>
		<stop  offset="0.4076" style="stop-color:#9C9C9C"/>
		<stop  offset="0.4888" style="stop-color:#C8C8C8"/>
		<stop  offset="0.5685" style="stop-color:#FBFBFB"/>
		<stop  offset="0.5741" style="stop-color:#FFFFFF"/>
		<stop  offset="0.602" style="stop-color:#F9F9F9"/>
		<stop  offset="0.7536" style="stop-color:#E0E0E0"/>
		<stop  offset="0.8908" style="stop-color:#D0D0D0"/>
		<stop  offset="1" style="stop-color:#CBCBCB"/>
	</linearGradient>
	<polygon class="st6" points="568.7,519.2 674.3,519.2 674.3,542.3 633,542.3 633,611.4 609.6,611.4 609.7,542 568.7,542 	"/>
	<linearGradient id="SVGID_4_" gradientUnits="userSpaceOnUse" x1="736.9097" y1="611.3963" x2="736.9097" y2="519.1995">
		<stop  offset="0" style="stop-color:#383838"/>
		<stop  offset="8.226728e-02" style="stop-color:#3C3C3C"/>
		<stop  offset="0.1639" style="stop-color:#484848"/>
		<stop  offset="0.2452" style="stop-color:#5C5C5C"/>
		<stop  offset="0.3264" style="stop-color:#787878"/>
		<stop  offset="0.4076" style="stop-color:#9C9C9C"/>
		<stop  offset="0.4888" style="stop-color:#C8C8C8"/>
		<stop  offset="0.5685" style="stop-color:#FBFBFB"/>
		<stop  offset="0.5741" style="stop-color:#FFFFFF"/>
		<stop  offset="0.602" style="stop-color:#F9F9F9"/>
		<stop  offset="0.7536" style="stop-color:#E0E0E0"/>
		<stop  offset="0.8908" style="stop-color:#D0D0D0"/>
		<stop  offset="1" style="stop-color:#CBCBCB"/>
	</linearGradient>
	<path class="st7" d="M679.3,584.9V547c0,0,1.8-27.8,26.1-27.8c24.3,0,62.7,0,62.7,0s26.5,0.8,26.5,27.3v38.3c0,0-2.5,26.5-26,26.5
		c-23.5,0-64.3,0-64.3,0S679.3,607.3,679.3,584.9z"/>
	<path class="st8" d="M702.2,581.6v-31.3c0,0,1-8.1,6.5-8.1s55.4,0,55.4,0s7.6-0.5,7.6,9.1s0,30.4,0,30.4s1.2,8.2-9.8,8.2
		c-11,0-51.9,0-51.9,0S702.2,590.9,702.2,581.6z"/>
	<linearGradient id="SVGID_5_" gradientUnits="userSpaceOnUse" x1="856.0373" y1="611.6711" x2="856.0373" y2="519.1995">
		<stop  offset="0" style="stop-color:#383838"/>
		<stop  offset="8.226728e-02" style="stop-color:#3C3C3C"/>
		<stop  offset="0.1639" style="stop-color:#484848"/>
		<stop  offset="0.2452" style="stop-color:#5C5C5C"/>
		<stop  offset="0.3264" style="stop-color:#787878"/>
		<stop  offset="0.4076" style="stop-color:#9C9C9C"/>
		<stop  offset="0.4888" style="stop-color:#C8C8C8"/>
		<stop  offset="0.5685" style="stop-color:#FBFBFB"/>
		<stop  offset="0.5741" style="stop-color:#FFFFFF"/>
		<stop  offset="0.602" style="stop-color:#F9F9F9"/>
		<stop  offset="0.7536" style="stop-color:#E0E0E0"/>
		<stop  offset="0.8908" style="stop-color:#D0D0D0"/>
		<stop  offset="1" style="stop-color:#CBCBCB"/>
	</linearGradient>
	<path class="st9" d="M906.8,519.2v22.9h-78.5c0,0-4.3-0.4-4.4,5.8c0,0-1,5.9,4.3,6c5.2,0.1,58.5,0,58.5,0s24.5,2.3,24.5,29.3
		c0,26.9-23.9,28.4-24.6,28.4c-0.7,0-80.9-0.3-80.9-0.3v-22.5h78.9c0,0,3.6,0.4,3.6-5.6c0-6-4.7-6-4.7-6L824,577
		c0,0-23.1-4.3-23.1-28.9c0-24.6,22-29,24.6-29C828.1,519.2,906.8,519.2,906.8,519.2z"/>
	<linearGradient id="SVGID_6_" gradientUnits="userSpaceOnUse" x1="974.8215" y1="611.6711" x2="974.8215" y2="519.1995">
		<stop  offset="0" style="stop-color:#383838"/>
		<stop  offset="8.226728e-02" style="stop-color:#3C3C3C"/>
		<stop  offset="0.1639" style="stop-color:#484848"/>
		<stop  offset="0.2452" style="stop-color:#5C5C5C"/>
		<stop  offset="0.3264" style="stop-color:#787878"/>
		<stop  offset="0.4076" style="stop-color:#9C9C9C"/>
		<stop  offset="0.4888" style="stop-color:#C8C8C8"/>
		<stop  offset="0.5685" style="stop-color:#FBFBFB"/>
		<stop  offset="0.5741" style="stop-color:#FFFFFF"/>
		<stop  offset="0.602" style="stop-color:#F9F9F9"/>
		<stop  offset="0.7536" style="stop-color:#E0E0E0"/>
		<stop  offset="0.8908" style="stop-color:#D0D0D0"/>
		<stop  offset="1" style="stop-color:#CBCBCB"/>
	</linearGradient>
	<path class="st10" d="M918.2,519.2h22.9V550c0,0-0.3,3.8,4.8,4c5.1,0.1,59.1,0,59.1,0s3.4-0.3,3.3-4c-0.1-3.7,0-30.8,0-30.8h23.1
		l-0.5,34.8c0,0-3.8,23.2-21.4,23.2s-22.8,0-22.8,0l-0.1,34.5h-22.9l-0.1-34.5l-22,0.1c0,0-23.2-5.6-23.2-23.2
		C918.2,536.5,918.2,519.2,918.2,519.2z"/>
	<linearGradient id="SVGID_7_" gradientUnits="userSpaceOnUse" x1="1097.4529" y1="611.6711" x2="1097.4529" y2="519.1995">
		<stop  offset="0" style="stop-color:#383838"/>
		<stop  offset="8.226728e-02" style="stop-color:#3C3C3C"/>
		<stop  offset="0.1639" style="stop-color:#484848"/>
		<stop  offset="0.2452" style="stop-color:#5C5C5C"/>
		<stop  offset="0.3264" style="stop-color:#787878"/>
		<stop  offset="0.4076" style="stop-color:#9C9C9C"/>
		<stop  offset="0.4888" style="stop-color:#C8C8C8"/>
		<stop  offset="0.5685" style="stop-color:#FBFBFB"/>
		<stop  offset="0.5741" style="stop-color:#FFFFFF"/>
		<stop  offset="0.602" style="stop-color:#F9F9F9"/>
		<stop  offset="0.7536" style="stop-color:#E0E0E0"/>
		<stop  offset="0.8908" style="stop-color:#D0D0D0"/>
		<stop  offset="1" style="stop-color:#CBCBCB"/>
	</linearGradient>
	<polygon class="st11" points="1037.8,519.2 1060.6,519.2 1097.9,570.7 1135.3,519.2 1157.2,519.2 1157.2,611.7 1135.2,611.7 
		1134.8,559.3 1098.1,609.7 1060.7,558.4 1060.4,611.7 1037.8,611.7 	"/>
	<linearGradient id="SVGID_8_" gradientUnits="userSpaceOnUse" x1="1221.6644" y1="611.1902" x2="1221.6644" y2="518.9933">
		<stop  offset="0" style="stop-color:#383838"/>
		<stop  offset="8.226728e-02" style="stop-color:#3C3C3C"/>
		<stop  offset="0.1639" style="stop-color:#484848"/>
		<stop  offset="0.2452" style="stop-color:#5C5C5C"/>
		<stop  offset="0.3264" style="stop-color:#787878"/>
		<stop  offset="0.4076" style="stop-color:#9C9C9C"/>
		<stop  offset="0.4888" style="stop-color:#C8C8C8"/>
		<stop  offset="0.5685" style="stop-color:#FBFBFB"/>
		<stop  offset="0.5741" style="stop-color:#FFFFFF"/>
		<stop  offset="0.602" style="stop-color:#F9F9F9"/>
		<stop  offset="0.7536" style="stop-color:#E0E0E0"/>
		<stop  offset="0.8908" style="stop-color:#D0D0D0"/>
		<stop  offset="1" style="stop-color:#CBCBCB"/>
	</linearGradient>
	<path class="st12" d="M1164,584.7v-37.9c0,0,1.8-27.8,26.1-27.8c24.3,0,62.7,0,62.7,0s26.5,0.8,26.5,27.3v38.3
		c0,0-2.5,26.5-26,26.5c-23.5,0-64.3,0-64.3,0S1164,607.1,1164,584.7z"/>
	<path class="st8" d="M1187,581.4V550c0,0,1-8.1,6.5-8.1s55.4,0,55.4,0s7.6-0.5,7.6,9.1c0,9.6,0,30.4,0,30.4s1.2,8.2-9.8,8.2
		c-11,0-51.9,0-51.9,0S1187,590.7,1187,581.4z"/>
	<linearGradient id="SVGID_9_" gradientUnits="userSpaceOnUse" x1="1339.2808" y1="611.5337" x2="1339.2808" y2="519.3369">
		<stop  offset="0" style="stop-color:#383838"/>
		<stop  offset="8.226728e-02" style="stop-color:#3C3C3C"/>
		<stop  offset="0.1639" style="stop-color:#484848"/>
		<stop  offset="0.2452" style="stop-color:#5C5C5C"/>
		<stop  offset="0.3264" style="stop-color:#787878"/>
		<stop  offset="0.4076" style="stop-color:#9C9C9C"/>
		<stop  offset="0.4888" style="stop-color:#C8C8C8"/>
		<stop  offset="0.5685" style="stop-color:#FBFBFB"/>
		<stop  offset="0.5741" style="stop-color:#FFFFFF"/>
		<stop  offset="0.602" style="stop-color:#F9F9F9"/>
		<stop  offset="0.7536" style="stop-color:#E0E0E0"/>
		<stop  offset="0.8908" style="stop-color:#D0D0D0"/>
		<stop  offset="1" style="stop-color:#CBCBCB"/>
	</linearGradient>
	<polygon class="st13" points="1286.4,519.3 1392.1,519.3 1392.1,542.4 1350.8,542.4 1350.8,611.5 1327.4,611.5 1327.5,542.1 
		1286.4,542.1 	"/>
	<linearGradient id="SVGID_10_" gradientUnits="userSpaceOnUse" x1="1455.3855" y1="611.0528" x2="1455.3855" y2="518.856">
		<stop  offset="0" style="stop-color:#383838"/>
		<stop  offset="8.226728e-02" style="stop-color:#3C3C3C"/>
		<stop  offset="0.1639" style="stop-color:#484848"/>
		<stop  offset="0.2452" style="stop-color:#5C5C5C"/>
		<stop  offset="0.3264" style="stop-color:#787878"/>
		<stop  offset="0.4076" style="stop-color:#9C9C9C"/>
		<stop  offset="0.4888" style="stop-color:#C8C8C8"/>
		<stop  offset="0.5685" style="stop-color:#FBFBFB"/>
		<stop  offset="0.5741" style="stop-color:#FFFFFF"/>
		<stop  offset="0.602" style="stop-color:#F9F9F9"/>
		<stop  offset="0.7536" style="stop-color:#E0E0E0"/>
		<stop  offset="0.8908" style="stop-color:#D0D0D0"/>
		<stop  offset="1" style="stop-color:#CBCBCB"/>
	</linearGradient>
	<path class="st14" d="M1397.7,584.5v-37.9c0,0,1.8-27.8,26.1-27.8c24.3,0,62.7,0,62.7,0s26.5,0.8,26.5,27.3v38.3
		c0,0-2.5,26.5-26,26.5c-23.5,0-64.3,0-64.3,0S1397.7,606.9,1397.7,584.5z"/>
	<path class="st8" d="M1420.7,581.2v-31.3c0,0,1-8.1,6.5-8.1s55.4,0,55.4,0s7.6-0.5,7.6,9.1c0,9.6,0,30.4,0,30.4s1.2,8.2-9.8,8.2
		c-11,0-51.9,0-51.9,0S1420.7,590.6,1420.7,581.2z"/>
	<linearGradient id="SVGID_11_" gradientUnits="userSpaceOnUse" x1="1574.5132" y1="611.3276" x2="1574.5132" y2="518.856">
		<stop  offset="0" style="stop-color:#383838"/>
		<stop  offset="8.226728e-02" style="stop-color:#3C3C3C"/>
		<stop  offset="0.1639" style="stop-color:#484848"/>
		<stop  offset="0.2452" style="stop-color:#5C5C5C"/>
		<stop  offset="0.3264" style="stop-color:#787878"/>
		<stop  offset="0.4076" style="stop-color:#9C9C9C"/>
		<stop  offset="0.4888" style="stop-color:#C8C8C8"/>
		<stop  offset="0.5685" style="stop-color:#FBFBFB"/>
		<stop  offset="0.5741" style="stop-color:#FFFFFF"/>
		<stop  offset="0.602" style="stop-color:#F9F9F9"/>
		<stop  offset="0.7536" style="stop-color:#E0E0E0"/>
		<stop  offset="0.8908" style="stop-color:#D0D0D0"/>
		<stop  offset="1" style="stop-color:#CBCBCB"/>
	</linearGradient>
	<path class="st15" d="M1625.3,518.9v22.9h-78.5c0,0-4.3-0.4-4.4,5.8c0,0-1,5.9,4.3,6c5.2,0.1,58.5,0,58.5,0s24.5,2.3,24.5,29.3
		c0,26.9-23.9,28.4-24.6,28.4s-80.9-0.3-80.9-0.3v-22.5h78.9c0,0,3.6,0.4,3.6-5.6c0-6-4.7-6-4.7-6l-59.5-0.1c0,0-23.1-4.3-23.1-28.9
		s22-29,24.6-29C1546.6,518.9,1625.3,518.9,1625.3,518.9z"/>
	<path class="st16" d="M691.2,673.4v-21.9c0,0,1-16,14.5-16c13.5,0,34.7,0,34.7,0s14.7,0.5,14.7,15.8v22.2c0,0-1.4,15.3-14.4,15.3
		c-13,0-35.6,0-35.6,0S691.2,686.4,691.2,673.4z"/>
	<path class="st8" d="M703.9,670v-17.3c0,0,0.5-4.5,3.6-4.5c3,0,30.7,0,30.7,0s4.2-0.3,4.2,5s0,16.8,0,16.8s0.7,4.6-5.4,4.6
		c-6.1,0-28.8,0-28.8,0S703.9,675.2,703.9,670z"/>
	<path class="st16" d="M1077,673.1v-21c0,0,1-15.4,14.5-15.4c13.5,0,34.7,0,34.7,0s14.7,0.5,14.7,15.1v21.2c0,0-1.4,14.7-14.4,14.7
		s-35.6,0-35.6,0S1077,685.5,1077,673.1z"/>
	<path class="st8" d="M1089.7,671.2v-17.3c0,0,0.5-4.5,3.6-4.5s30.7,0,30.7,0s4.2-0.3,4.2,5s0,16.8,0,16.8s0.7,4.6-5.4,4.6
		c-6.1,0-28.8,0-28.8,0S1089.7,676.4,1089.7,671.2z"/>
	<path class="st16" d="M1144.5,673.1v-21c0,0,1-15.4,14.5-15.4c13.5,0,34.7,0,34.7,0s14.7,0.5,14.7,15.1v21.2
		c0,0-1.4,14.7-14.4,14.7c-13,0-35.6,0-35.6,0S1144.5,685.5,1144.5,673.1z"/>
	<path class="st8" d="M1157.2,671.2v-17.3c0,0,0.5-4.5,3.6-4.5s30.7,0,30.7,0s4.2-0.3,4.2,5s0,16.8,0,16.8s0.7,4.6-5.4,4.6
		c-6.1,0-28.8,0-28.8,0S1157.2,676.4,1157.2,671.2z"/>
	<path class="st16" d="M1268.3,673.5v-21c0,0,1-15.4,14.5-15.4c13.5,0,34.7,0,34.7,0s14.7,0.5,14.7,15.1v21.2
		c0,0-1.4,14.7-14.4,14.7c-13,0-35.6,0-35.6,0S1268.3,685.9,1268.3,673.5z"/>
	<path class="st8" d="M1281,671.6v-17.3c0,0,0.5-4.5,3.6-4.5s30.7,0,30.7,0s4.2-0.3,4.2,5s0,16.8,0,16.8s0.7,4.6-5.4,4.6
		c-6.1,0-28.8,0-28.8,0S1281,676.8,1281,671.6z"/>
	<polygon class="st16" points="1015.6,636.7 1073.8,636.7 1073.8,649.8 1051,649.8 1051,689 1038.2,689 1038.2,649.6 1015.6,649.6 	
		"/>
	<polygon class="st16" points="936.9,636.4 995.2,636.4 995.2,649.5 972.3,649.5 972.3,688.8 959.5,688.8 959.5,649.4 936.9,649.4 	
		"/>
	<path class="st16" d="M877.8,688.8v-52.3h55v11.7h-37.6c0,0-4.1-0.4-4.1,3.5c0,3.8,3,3.6,3,3.6h36.5v12.9h-36c0,0-3.6,0-3.6,2.7
		s0.3,3.6,3.6,3.7c3.3,0.1,38.2,0,38.2,0v14.2H877.8z"/>
	<path class="st16" d="M756.1,635.5h18.1l11.5,15.1l12.1-13.9l16.8-0.2L797,658.5c0,0-2.7,3.6,0,6.9s17.6,22.3,17.6,22.3l-16.1-0.2
		l-13.2-15l-12,16.2h-18.3l19.1-23.7c0,0,3.6-3.3,0-7.4S756.1,635.5,756.1,635.5z"/>
	<path class="st16" d="M817.9,688.8v-34.4h13.5v17.2c0,0-0.8,2.9,3,3c3.8,0.1,21.6,0,21.6,0s5.6,0.2,5.6-3c0-3.2,0-17.2,0-17.2
		s0.7-6.1-5.6-6.2c-6.3-0.1-38.1,0-38.1,0v-11.7h42.3c0,0,12.6,1.2,12.6,14.1c0,12.9,0,27.2,0,27.2s-3.3,11-14.3,11
		S817.9,688.8,817.9,688.8z"/>
	<polygon class="st16" points="998.5,636.3 1012.2,636.3 1012.2,688.6 998.5,688.9 	"/>
	<path class="st16" d="M1211.4,636.7v51.1l52.8,0.4v-13.7l-35.4-0.3c0,0-3.8,0.3-3.8-4.1c0-4.4,0.5-33.4,0.5-33.4H1211.4z"/>
	<path class="st16" d="M623.1,688.8v-53.3h52.5c0,0,12.6,1.1,12.1,14.5s-7.1,11.4-7.1,11.4s7.2,2.9,7.2,13.2
		c0,10.3-10.2,14.2-10.2,14.2H623.1z"/>
	<path class="st8" d="M639,648.2h31.6c0,0,3.6-0.4,3.7,3.5c0.1,3.8-3.2,4.4-3.2,4.4H639c0,0-3.3-0.2-3.3-3.9
		C635.7,648.4,639,648.2,639,648.2z"/>
	<path class="st8" d="M639.4,668H671c0,0,3.6-0.4,3.7,3.5c0.1,3.8-3.2,4.4-3.2,4.4h-32.2c0,0-3.3-0.2-3.3-3.9
		C636.1,668.1,639.4,668,639.4,668z"/>
	<linearGradient id="SVGID_12_" gradientUnits="userSpaceOnUse" x1="330.4369" y1="652.8348" x2="608.1409" y2="652.8348">
		<stop  offset="0" style="stop-color:#383838"/>
		<stop  offset="0.1568" style="stop-color:#575757"/>
		<stop  offset="0.4335" style="stop-color:#898989"/>
		<stop  offset="0.6764" style="stop-color:#ADADAD"/>
		<stop  offset="0.8735" style="stop-color:#C3C3C3"/>
		<stop  offset="1" style="stop-color:#CBCBCB"/>
	</linearGradient>
	<path class="st17" d="M341.8,645.2h259.8c0,0,6.6,1.4,6.6,8.3c0,6.9-6.6,6.9-6.6,6.9H393.8c0,0-58.6,0.7-62.7-7.6
		S341.8,645.2,341.8,645.2z"/>
	<linearGradient id="SVGID_13_" gradientUnits="userSpaceOnUse" x1="415.4115" y1="671.3466" x2="608.1409" y2="671.3466">
		<stop  offset="0" style="stop-color:#383838"/>
		<stop  offset="0.1568" style="stop-color:#575757"/>
		<stop  offset="0.4335" style="stop-color:#898989"/>
		<stop  offset="0.6764" style="stop-color:#ADADAD"/>
		<stop  offset="0.8735" style="stop-color:#C3C3C3"/>
		<stop  offset="1" style="stop-color:#CBCBCB"/>
	</linearGradient>
	<path class="st18" d="M423.3,664.7h180.3c0,0,4.6,1.3,4.6,7.3s-4.6,6-4.6,6H459.4c0,0-40.7,0.6-43.5-6.7S423.3,664.7,423.3,664.7z"
		/>
	<linearGradient id="SVGID_14_" gradientUnits="userSpaceOnUse" x1="1347.9456" y1="653.115" x2="1625.6497" y2="653.115">
		<stop  offset="0" style="stop-color:#383838"/>
		<stop  offset="0.1568" style="stop-color:#575757"/>
		<stop  offset="0.4335" style="stop-color:#898989"/>
		<stop  offset="0.6764" style="stop-color:#ADADAD"/>
		<stop  offset="0.8735" style="stop-color:#C3C3C3"/>
		<stop  offset="1" style="stop-color:#CBCBCB"/>
	</linearGradient>
	<path class="st19" d="M1614.3,645.5h-259.8c0,0-6.6,1.4-6.6,8.3c0,6.9,6.6,6.9,6.6,6.9h207.8c0,0,58.6,0.7,62.7-7.6
		C1629,644.8,1614.3,645.5,1614.3,645.5z"/>
	<linearGradient id="SVGID_15_" gradientUnits="userSpaceOnUse" x1="1347.9456" y1="671.6267" x2="1540.675" y2="671.6267">
		<stop  offset="0" style="stop-color:#383838"/>
		<stop  offset="0.1568" style="stop-color:#575757"/>
		<stop  offset="0.4335" style="stop-color:#898989"/>
		<stop  offset="0.6764" style="stop-color:#ADADAD"/>
		<stop  offset="0.8735" style="stop-color:#C3C3C3"/>
		<stop  offset="1" style="stop-color:#CBCBCB"/>
	</linearGradient>
	<path class="st20" d="M1532.8,665h-180.3c0,0-4.6,1.3-4.6,7.3s4.6,6,4.6,6h144.2c0,0,40.7,0.6,43.5-6.7
		C1543,664.3,1532.8,665,1532.8,665z"/>
	<linearGradient id="SVGID_16_" gradientUnits="userSpaceOnUse" x1="677.3577" y1="832.7206" x2="1278.1572" y2="832.7206">
		<stop  offset="0" style="stop-color:#383838"/>
		<stop  offset="4.750385e-02" style="stop-color:#474747"/>
		<stop  offset="0.378" style="stop-color:#A9A9A9"/>
		<stop  offset="0.6082" style="stop-color:#E7E7E7"/>
		<stop  offset="0.7169" style="stop-color:#FFFFFF"/>
		<stop  offset="0.7577" style="stop-color:#E6E6E6"/>
		<stop  offset="0.8079" style="stop-color:#CFCFCF"/>
		<stop  offset="0.862" style="stop-color:#BFBFBF"/>
		<stop  offset="0.922" style="stop-color:#B5B5B5"/>
		<stop  offset="1" style="stop-color:#B2B2B2"/>
	</linearGradient>
	<path class="st21" d="M682.2,713.8h29.3c0,0,6.2-1.5,15,10.3c8.8,11.7,78,119.4,236.7,182.8c0,0,12.4,6.5,27.1,0
		c13.5-6,146.2-56.4,241.8-193.2c0,0,2.2-3.6,9.5-3.6s30.8,0,30.8,0s9.9,0.4,3.7,9.9s-120.9,179.5-286.9,233.4c0,0-12.8,4.4-25.6,0
		c-12.8-4.4-167.6-59-279.2-220.2C684.4,733.2,670.2,713.8,682.2,713.8z"/>
	<path class="st16" d="M966,885.2c0,0,9.6,2.2,16.2,0c6.6-2.2,128.3-40.7,213.4-142.9c0,0,7.3-8.5,10-5.8s-4.9,19-11.3,25.8
		c-6.3,6.9-81.5,94.8-204.1,144.5c0,0-11.6,3.3-28.9-2.4"/>
	<path class="st16" d="M982.5,885.2c0,0-9.6,2.2-16.2,0c-6.6-2.2-128.3-40.7-213.4-142.9c0,0-7.3-8.5-10-5.8s6,17.3,12.4,24.2
		S832,853.4,954.6,903c0,0,19.2,11.1,35.7,3.8"/>
	<linearGradient id="SVGID_17_" gradientUnits="userSpaceOnUse" x1="557.4339" y1="235.6787" x2="1392.2002" y2="235.6787">
		<stop  offset="0" style="stop-color:#383838"/>
		<stop  offset="8.306690e-03" style="stop-color:#464646"/>
		<stop  offset="3.931055e-02" style="stop-color:#777777"/>
		<stop  offset="7.116716e-02" style="stop-color:#A1A1A1"/>
		<stop  offset="0.1034" style="stop-color:#C3C3C3"/>
		<stop  offset="0.136" style="stop-color:#DDDDDD"/>
		<stop  offset="0.1693" style="stop-color:#F0F0F0"/>
		<stop  offset="0.2037" style="stop-color:#FBFBFB"/>
		<stop  offset="0.2407" style="stop-color:#FFFFFF"/>
		<stop  offset="0.262" style="stop-color:#EDEDED"/>
		<stop  offset="0.3066" style="stop-color:#CECECE"/>
		<stop  offset="0.3571" style="stop-color:#B2B2B2"/>
		<stop  offset="0.4142" style="stop-color:#9C9C9C"/>
		<stop  offset="0.4809" style="stop-color:#8B8B8B"/>
		<stop  offset="0.5633" style="stop-color:#808080"/>
		<stop  offset="0.679" style="stop-color:#797979"/>
		<stop  offset="1" style="stop-color:#777777"/>
	</linearGradient>
	<path class="st22" d="M1392.1,207.6c0,0,2.3-17.6-18.6-25.3s-367.9-161.4-796.6,2c0,0-20.2,2.6-19.4,33.7s0,110.3,0,110.3
		s-1.8,22.4,8.4,22.4c10.3,0,27.1-0.7,27.1-0.7s6.9,0.5,6.9-8.5V220.5c0,0,349.3-166.8,751.6,0v130.2c0,0-1.5,10.3,7.3,11
		c8.8,0.7,25.9,0,25.9,0s7.4-0.1,7.4-15.1C1392.2,331.5,1392.1,207.6,1392.1,207.6z"/>
	<path class="st16" d="M752,183.9c0,0,220.4-46.2,432,0l34.1,7.1c0,0,6.6,1.1,9.3-2.7s-9.3-6.6-9.3-6.6s-201.3-65.6-472.1-4.4
		c0,0-12.4,3.6-13.3,6.8c-1,3.2,6,2.5,6,2.5L752,183.9z"/>
	<path class="st16" d="M975,166.1c-1,0.4-2.2,1.7-3.1,3.2c-1.1,1.8-2,4-4.2,10.4c-1,3-2.3,6.5-2.8,7.6c-1.4,3.1-1.3,3.1-13.5,3.1
		c-11,0-11.6,0.1-13.5,1.9c-1.4,1.3-1.5,2.8-0.5,4.9c1,2.1,2.8,3.8,8.2,8c6.3,4.8,8.2,6.5,9,7.7c0.6,1,0.7,1.3,0.3,3.1
		c-0.2,1.1-1.3,4.7-2.4,7.9c-3.4,9.5-3.9,12.7-2.8,15.1c0.8,1.6,2.1,2.2,4.4,2c2.4-0.2,4.6-1.4,11.5-6.4c5.7-4,8.3-5.6,9.4-5.6
		c1.2,0,3.6,1.6,9.8,6.4c6.9,5.3,9.3,6.7,11.7,6.7c2.7,0,4-1.6,4-5.2c0-2.3-0.5-4.4-2.9-12.6c-1.1-3.8-1.9-7.2-2-8.3
		c-0.1-1.8-0.1-1.8,1.7-3.5c1-0.9,3.9-3.2,6.6-5c6.2-4.4,8.3-6,9.4-7.7c1.3-1.9,1.7-3.3,1.1-4.8c-1.1-2.8-3.9-3.6-14.9-3.9
		c-9.3-0.2-10.7-0.5-11.7-2c-0.8-1.3-1.9-4.2-3.7-10.3c-2.2-7.8-3.7-11.1-5.6-12.3C977.6,166,975.8,165.8,975,166.1z"/>
	<g class="st1">
		<g>
			<g>
				<path class="st23" d="M1084.4,182.1c0.6,0.1,1.3,0.3,1.8,0.7c1.3,1,2.5,3.9,4.2,10.1c1.4,5.1,2.3,7.6,3,8.8
					c0.9,1.5,2.1,1.9,9.6,2.8c8.8,1.2,10.5,2,11.2,4c0.4,1.1,0.2,2.1-0.8,3.3c-0.8,1.2-2.3,2.3-7.2,5.3c-2.1,1.2-4.4,2.8-5.2,3.5
					c-1.5,1.3-1.5,1.4-1.5,3c0.1,0.9,0.8,3.9,1.6,6.9c2,6.9,2.3,8.5,2.3,10.3c0,3.2-1.3,3.5-2.6,3.4c-1.8-0.2-3.6-1.5-8.9-6.2
					c-5.2-4.6-7-6-8-6.1c-0.9-0.1-2.4,0.5-7.6,3.8c-5.3,3.3-7,4.1-8.7,4.1c-0.2,0-0.4,0-0.6,0c-1.4-0.1-1.9-0.8-2.3-1.6
					c-0.8-1.9-0.4-4.4,2.1-11.6c0.8-2.4,1.7-5.2,1.9-6.2c0.3-1.5,0.3-1.8-0.3-2.9c-0.6-1.1-2-2.5-7.2-7.1c-4.2-3.8-5.6-5.3-6.4-7
					c-0.7-1.6-0.6-2.6,0.3-3.4c1.3-1.2,1.6-1.2,10.2-0.3l0.3,0c9.3,0.9,9.5,0.9,10.7-1.7c0.4-1,1.4-3.7,2.2-5.9
					c1.7-4.9,2.3-6.7,3.2-8c0.6-1,1.5-1.9,2.2-2.1C1084,182.1,1084.2,182.1,1084.4,182.1z"/>
			</g>
			<g>
				<path d="M1115.1,208.3c0.5,1.4,0.3,2.7-0.9,4.2c-0.9,1.3-2.4,2.4-7.5,5.5c-2,1.2-4.3,2.8-5.1,3.5c-1.2,1.1-1.2,1.1-1.2,2.3
					c0,0.7,0.7,3.5,1.6,6.7c1.9,6.6,2.4,8.6,2.4,10.5c0,3.1-1.1,4.5-3.6,4.3c-2-0.2-4-1.5-9.5-6.5c-4-3.5-6.6-5.7-7.4-5.8
					c-0.9-0.1-4.1,1.8-7.1,3.7c-5.5,3.5-7.2,4.3-9.2,4.3c-0.3,0-0.5,0-0.7,0c-1.6-0.2-2.5-0.9-3.2-2.2c-1-2.2-0.5-4.7,2.1-12.3
					c0.9-2.6,1.7-5.3,1.8-6.1c0.3-1.4,0.3-1.5-0.2-2.2c-0.5-1-2-2.4-7-6.8c-4.4-3.9-5.8-5.5-6.6-7.3c-0.9-2-0.7-3.4,0.5-4.5
					c1.6-1.5,2.3-1.4,10.9-0.6l0.3,0c8.9,0.9,8.9,0.9,9.8-1.1c0.4-0.9,1.4-3.5,2.2-5.9c1.7-5,2.4-6.8,3.3-8.1
					c0.7-1.2,1.8-2.2,2.6-2.5c0.3-0.1,0.6-0.1,0.9-0.1c0.8,0.1,1.7,0.4,2.3,0.9c1.5,1.2,2.8,4,4.6,10.7c1.4,4.9,2.2,7.5,2.9,8.5
					c0.6,1,1.5,1.4,8.8,2.3C1111.3,204.7,1114.1,205.5,1115.1,208.3z M1113.5,211.9c1-1.3,1.2-2.3,0.8-3.3c-0.7-2-2.5-2.8-11.2-4
					c-7.5-1-8.7-1.3-9.6-2.8c-0.7-1.2-1.6-3.7-3-8.8c-1.8-6.3-2.9-9.1-4.2-10.1c-0.5-0.4-1.2-0.7-1.8-0.7c-0.2,0-0.4,0-0.5,0
					c-0.7,0.2-1.6,1.1-2.2,2.1c-0.8,1.3-1.5,3-3.2,8c-0.7,2.3-1.8,5-2.2,5.9c-1.2,2.6-1.4,2.6-10.7,1.7l-0.3,0
					c-8.6-0.9-8.9-0.8-10.2,0.3c-0.9,0.8-1,1.8-0.3,3.4c0.8,1.7,2.1,3.2,6.4,7c5.2,4.6,6.6,6,7.2,7.1c0.6,1.1,0.6,1.4,0.3,2.9
					c-0.2,1-1.1,3.8-1.9,6.2c-2.5,7.2-3,9.7-2.1,11.6c0.4,0.8,1,1.5,2.3,1.6c0.2,0,0.4,0,0.6,0c1.7,0,3.5-0.8,8.7-4.1
					c5.2-3.3,6.8-3.9,7.6-3.8c1,0.1,2.8,1.5,8,6.1c5.3,4.7,7.1,6,8.9,6.2c1.3,0.1,2.7-0.2,2.6-3.4c0-1.8-0.4-3.4-2.3-10.3
					c-0.9-3-1.6-6-1.6-6.9c-0.1-1.6,0-1.7,1.5-3c0.8-0.7,3.1-2.3,5.2-3.5C1111.2,214.2,1112.6,213.1,1113.5,211.9"/>
			</g>
		</g>
	</g>
	<g class="st1">
		<g>
			<g>
				<path class="st24" d="M863.4,184.4c0.6-0.1,1.4,0,2,0.3c1.4,0.7,2.9,3.4,5.2,9.5c1.9,4.9,3,7.4,3.8,8.4c1.1,1.3,2.3,1.4,10,0.5
					c8.6-1,10.9-0.7,11.9,1.3c0.4,0.9,0.5,1.8-0.5,3.7c-0.8,1.4-2.2,2.9-7,7.4c-2,1.8-4.3,4.1-5,5c-1.4,1.7-1.5,1.8-1.3,3.6
					c0.1,1,1.1,3.9,2.2,6.8c2.6,6.7,3.1,8.3,3.2,10.1c0.2,2.7-0.5,4-2.5,4.2c-1.9,0.3-3.8-0.6-9.7-4.2c-5.7-3.5-7.6-4.5-8.7-4.3
					c-1,0.1-3,1.7-7.5,5.9c-5.1,4.8-6.8,6.1-8.6,6.5c-0.2,0.1-0.5,0.1-0.7,0.1c-1.2,0.2-2-0.2-2.5-1.1c-1-1.8-0.7-4.5,1.2-12.6
					c0.6-2.7,1.3-5.9,1.4-7c0.2-1.6,0.2-2-0.6-3c-0.7-1-2.3-2.1-8-5.6c-4.7-2.9-6.2-4.1-7.1-5.6c-0.9-1.5-0.9-2.5,0-3.6
					c1.3-1.6,1.6-1.7,10.5-3l0.3,0c9.6-1.4,9.8-1.4,10.8-4.5c0.4-1.1,1.2-4.2,1.7-6.8c1.3-5.6,1.9-7.5,2.6-9.1
					c0.5-1.2,1.4-2.4,2.1-2.8C863,184.5,863.2,184.4,863.4,184.4z"/>
			</g>
			<g>
				<path d="M897.1,203.8c0.7,1.4,0.5,2.7-0.5,4.7c-0.8,1.6-2.2,3.1-7.2,7.6c-1.9,1.8-4.2,4-4.9,4.9c-1.2,1.5-1.2,1.5-1,2.7
					c0.1,0.8,1,3.4,2.2,6.6c2.5,6.4,3.1,8.3,3.3,10.4c0.3,3.2-0.8,5-3.3,5.3c-2.1,0.3-4.2-0.6-10.2-4.3c-4.5-2.8-7.2-4.3-8.1-4.2
					c-1,0.1-4.1,2.9-7,5.7c-5.4,5-7,6.3-9,6.8c-0.3,0.1-0.5,0.1-0.7,0.1c-1.6,0.2-2.7-0.3-3.4-1.5c-1.2-2.1-0.9-4.8,1.1-13.4
					c0.7-3,1.3-5.9,1.4-6.8c0.2-1.5,0.1-1.6-0.4-2.2c-0.6-0.9-2.3-2-7.7-5.4c-4.8-3-6.4-4.2-7.4-6c-1.1-1.9-1.1-3.4,0.1-4.8
					c1.5-1.9,2-2,11.1-3.3l0.3,0c9.2-1.3,9.2-1.3,10-3.7c0.3-1,1.1-4,1.7-6.7c1.3-5.7,1.9-7.7,2.7-9.3c0.6-1.4,1.6-2.7,2.5-3.2
					c0.3-0.2,0.6-0.2,0.9-0.3c0.8-0.1,1.7,0,2.4,0.4c1.7,0.9,3.2,3.5,5.6,10c1.8,4.8,2.9,7.2,3.6,8.1c0.8,1,2.1,1,9.3,0.2
					C893.5,201,895.9,201.3,897.1,203.8z M895.8,208c1-1.8,0.9-2.8,0.5-3.7c-1-2-3.3-2.3-11.9-1.3c-7.7,0.9-9,0.8-10-0.5
					c-0.8-1-1.9-3.5-3.8-8.4c-2.3-6.1-3.8-8.8-5.2-9.5c-0.5-0.3-1.4-0.4-2-0.3c-0.2,0-0.4,0.1-0.6,0.2c-0.7,0.4-1.5,1.6-2.1,2.8
					c-0.7,1.6-1.3,3.5-2.6,9.1c-0.6,2.6-1.4,5.7-1.7,6.8c-1,3-1.2,3.1-10.8,4.5l-0.3,0c-8.9,1.3-9.2,1.4-10.5,3
					c-0.9,1.1-0.9,2.1,0,3.6c0.9,1.6,2.4,2.8,7.1,5.6c5.7,3.5,7.2,4.6,8,5.6c0.7,1,0.7,1.3,0.6,3c-0.1,1-0.8,4.3-1.4,7
					c-2,8.1-2.2,10.8-1.2,12.6c0.5,0.9,1.3,1.3,2.5,1.1c0.2,0,0.4-0.1,0.7-0.1c1.8-0.4,3.5-1.7,8.6-6.5c4.5-4.2,6.4-5.8,7.5-5.9
					c1.1-0.1,3,0.8,8.7,4.3c5.8,3.6,7.8,4.5,9.7,4.2c2-0.3,2.7-1.5,2.5-4.2c-0.2-1.8-0.7-3.4-3.2-10.1c-1.1-2.9-2.1-5.9-2.2-6.8
					c-0.2-1.7-0.1-1.9,1.3-3.6c0.8-0.9,3-3.2,5-5C893.6,210.9,895,209.4,895.8,208"/>
			</g>
		</g>
	</g>
	<g class="st1">
		<g>
			<g class="st25">
				<g>
					<path class="st26" d="M1181.8,209.7c0.2,0,0.2,0,0.3,0c0.3,0,0.8,0.2,1.2,0.5c0.9,0.8,1.7,3,3,8c1,4,1.7,6.1,2.2,7
						c0.7,1.3,1.7,1.6,6.6,2.3c5.9,0.9,7,1.6,7.5,3.1c0.1,0.3,0.1,0.5,0.1,0.8c0,0.6-0.2,1.1-0.6,1.8c-0.5,0.9-1.5,1.8-4.8,4.2
						c-1.4,1-2.9,2.3-3.5,2.8c-0.9,0.9-1,1.1-1,2c0,0.1,0,0.3,0,0.4c0.1,0.8,0.6,3.1,1.2,5.5c1.4,5.4,1.7,6.7,1.7,8.1
						c0,1.8-0.4,2.4-1,2.6c-0.1,0-0.2,0-0.3,0c-0.2,0-0.2,0-0.3,0c-1.1-0.1-2.4-1.2-6-4.9c-3.6-3.7-4.8-4.8-5.6-4.9
						c-0.3,0-0.5,0-0.7,0.1c-0.3,0.1-0.6,0.3-1.1,0.5c-0.2,0.1-0.3,0.2-0.5,0.3c-0.2,0.2-0.5,0.3-0.8,0.5c-0.2,0.1-0.4,0.3-0.6,0.4
						c-0.1,0.1-0.2,0.1-0.3,0.2c-0.2,0.2-0.4,0.3-0.7,0.5c-0.1,0.1-0.2,0.2-0.4,0.3c-0.1,0-0.1,0.1-0.2,0.1
						c-0.2,0.1-0.4,0.3-0.6,0.4c-0.3,0.2-0.6,0.4-0.8,0.6c-0.4,0.3-0.7,0.5-1,0.7c-0.5,0.3-0.9,0.6-1.3,0.8
						c-0.1,0.1-0.2,0.1-0.3,0.2c-0.5,0.2-0.8,0.4-1.2,0.4c-0.2,0-0.3,0-0.5,0.1c-0.2,0-0.4,0-0.5,0c-0.9-0.1-1.2-0.5-1.5-1.2
						c-0.2-0.4-0.3-0.9-0.3-1.4c0-1.4,0.4-3.6,1.6-7.7c0.5-1.9,1.1-4.2,1.2-4.9c0.1-0.5,0.1-0.8,0.1-1.1c0-0.4-0.1-0.7-0.4-1.2
						c-0.4-0.9-1.4-2-5-5.7c-2.9-3-3.8-4.2-4.4-5.5c-0.2-0.6-0.3-1-0.4-1.4c0-0.5,0.2-0.9,0.5-1.2c0.4-0.4,0.7-0.7,1.6-0.7
						c0.3,0,0.7,0,1,0c0.5,0,1.1,0.1,1.8,0.2c0.7,0.1,1.4,0.2,2.3,0.3l0.2,0c1,0.1,1.8,0.2,2.5,0.3c0.6,0.1,1.2,0.1,1.6,0.1
						c0.3,0,0.6,0,0.9,0c0.1,0,0.2,0,0.3,0c1.2-0.1,1.5-0.5,1.9-1.5c0-0.1,0.1-0.2,0.1-0.3c0.3-0.8,0.9-2.9,1.4-4.7
						c1.1-3.9,1.5-5.3,2-6.3C1180.8,210.4,1181.4,209.8,1181.8,209.7z"/>
				</g>
				<g>
					<path d="M1203.3,230.3c0.4,1.1,0.2,2.2-0.5,3.4c-0.6,1.1-1.8,2-5,4.4c-1.3,1-2.9,2.2-3.4,2.7c-0.8,0.8-0.8,0.8-0.8,1.8
						c0,0.6,0.5,2.7,1.2,5.3c1.4,5.3,1.7,6.8,1.8,8.4c0.1,2.3-0.6,3.5-2,3.5c-0.1,0-0.3,0-0.4,0c-1.4-0.2-2.7-1.2-6.6-5.2
						c-2.3-2.4-4.5-4.5-5-4.6c-0.8,0-3.6,2.1-4.6,2.9c-3.6,2.7-4.8,3.4-6.1,3.4c-0.3,0-0.5,0-0.6,0c-1.1-0.1-1.8-0.8-2.3-1.9
						c-0.7-1.8-0.4-3.8,1.2-9.8c0.6-2.1,1.1-4.2,1.2-4.8c0.2-1.1,0.1-1.1-0.1-1.7c-0.4-0.8-1.4-1.9-4.8-5.4c-3-3.1-4-4.4-4.6-5.9
						c-0.7-1.6-0.6-2.7,0.3-3.6c0.6-0.6,1-0.9,2.2-0.9c1,0,2.6,0.2,5.2,0.5l0.2,0c2.5,0.3,3.9,0.5,4.8,0.4c1.2,0,1.3-0.4,1.7-1.3
						c0.3-0.7,0.9-2.8,1.4-4.7c1.1-4,1.5-5.4,2.1-6.5c0.5-1,1.2-1.8,1.8-2c0.1-0.1,0.3-0.1,0.4-0.1c0.1,0,0.2,0,0.3,0
						c0.6,0.1,1.2,0.4,1.7,0.8c1.1,1,2,3.2,3.3,8.6c1,3.9,1.6,5.9,2,6.7c0.4,0.8,1,1,5.9,1.8
						C1200.6,227.4,1202.6,228.1,1203.3,230.3z M1202,233.1c0.4-0.7,0.6-1.3,0.6-1.8c0-0.3-0.1-0.5-0.1-0.8
						c-0.5-1.5-1.7-2.1-7.5-3.1c-4.9-0.8-5.9-1-6.6-2.3c-0.5-0.9-1.1-3-2.2-7c-1.3-5-2.1-7.2-3-8c-0.3-0.3-0.8-0.5-1.2-0.5
						c-0.1,0-0.1,0-0.1,0c-0.5,0.2-1.1,0.8-1.6,1.7c-0.5,1-1,2.4-2,6.3c-0.5,1.8-1.1,4-1.4,4.7c0,0.1-0.1,0.2-0.1,0.3
						c-0.4,1-0.7,1.4-1.9,1.5c-0.1,0-0.2,0-0.3,0c-0.3,0-0.5,0-0.9,0c-0.5,0-1-0.1-1.6-0.1c-0.7-0.1-1.5-0.2-2.5-0.3l-0.2,0
						c-0.9-0.1-1.7-0.2-2.3-0.3c-0.7-0.1-1.3-0.1-1.8-0.2c-0.4,0-0.7,0-0.9,0c-1,0-1.3,0.3-1.7,0.7c-0.3,0.3-0.5,0.7-0.5,1.2
						c0,0.4,0.1,0.8,0.4,1.4c0.5,1.3,1.5,2.5,4.4,5.5c3.6,3.7,4.5,4.8,5,5.7c0.3,0.5,0.4,0.8,0.4,1.2c0,0.3,0,0.6-0.1,1.1
						c-0.1,0.8-0.7,3.1-1.2,4.9c-1.1,4.1-1.6,6.3-1.6,7.7c0,0.6,0.1,1,0.3,1.4c0.3,0.7,0.6,1.1,1.5,1.2c0.1,0,0.3,0,0.4,0
						c0.2,0,0.4,0,0.6-0.1c0.3-0.1,0.7-0.2,1.2-0.4c0.1-0.1,0.2-0.1,0.3-0.2c0.4-0.2,0.8-0.5,1.3-0.8c0.3-0.2,0.6-0.5,1-0.7
						c0.3-0.2,0.5-0.4,0.8-0.6c0.2-0.1,0.4-0.3,0.6-0.4c0.1,0,0.1-0.1,0.2-0.1c0.1-0.1,0.2-0.2,0.4-0.3c0.2-0.2,0.5-0.3,0.7-0.5
						c0.1-0.1,0.2-0.2,0.3-0.2c0.2-0.1,0.4-0.3,0.6-0.4c0.3-0.2,0.6-0.4,0.8-0.5c0.2-0.1,0.4-0.2,0.5-0.3c0.4-0.3,0.8-0.4,1.1-0.5
						c0.2-0.1,0.4-0.1,0.6-0.1c0.9,0.1,2.1,1.2,5.7,4.9c3.6,3.7,4.9,4.7,6,4.9c0.1,0,0.2,0,0.2,0c0.2,0,0.3,0,0.4,0
						c0.6-0.2,1-0.8,1-2.6c0-1.4-0.3-2.7-1.7-8.1c-0.6-2.4-1.1-4.8-1.2-5.5c0-0.2,0-0.3,0-0.4c0-0.9,0.1-1.1,1-2
						c0.5-0.6,2.1-1.8,3.5-2.8C1200.5,234.9,1201.5,234,1202,233.1"/>
				</g>
			</g>
		</g>
	</g>
	<g class="st1">
		<g>
			<g>
				<path d="M791.8,227.2c0.4,1,0.2,2-0.7,3.4c-0.7,1.1-1.8,2.2-5.5,5.4c-1.6,1.4-3.2,2.9-3.7,3.4c-0.9,1-0.9,1-0.8,1.8
					c0,0.5,0.5,2.4,1.1,4.5c1.3,4.5,1.7,5.8,1.7,7.3c0,2.3-0.9,3.6-2.7,3.9c-1.5,0.2-2.9-0.4-6.9-3c-2.8-1.8-4.7-3-5.3-2.9
					c-0.7,0.1-3.1,2.1-5.1,3.9c-4.1,3.5-5.3,4.4-6.8,4.8c-0.2,0-0.4,0.1-0.5,0.1c-1.2,0.2-1.9-0.2-2.4-1.1c-0.7-1.5-0.4-3.4,1.6-9.4
					c0.7-2.1,1.3-4.1,1.4-4.7c0.2-1,0.2-1-0.1-1.5c-0.4-0.6-1.4-1.4-5-3.7c-3.2-2.1-4.2-3-4.8-4.2c-0.7-1.4-0.5-2.4,0.4-3.5
					c1.2-1.4,1.7-1.5,8-2.4l0.2,0c6.4-0.9,6.4-0.9,7.1-2.5c0.3-0.7,1-2.8,1.6-4.7c1.3-4,1.8-5.4,2.4-6.5c0.6-1,1.3-1.9,2-2.3
					c0.2-0.1,0.4-0.2,0.7-0.2c0.6-0.1,1.3,0,1.7,0.3c1.2,0.6,2,2.5,3.4,7c1,3.3,1.6,5,2,5.6c0.4,0.6,1.1,0.7,6.4,0.1
					C789,225.2,791,225.3,791.8,227.2z M790.4,230.1c0.8-1.2,0.8-1.9,0.6-2.4c-0.5-1.2-1.8-1.5-8.1-0.8c-5.2,0.6-6.3,0.6-7.1-0.4
					c-0.5-0.7-1.1-2.4-2.1-5.9c-1.2-4.2-2.1-6-3-6.5c-0.3-0.2-0.9-0.2-1.3-0.2c-0.1,0-0.3,0.1-0.4,0.1c-0.4,0.2-1.1,1-1.6,1.9
					c-0.6,1.1-1.1,2.5-2.4,6.3c-0.6,1.8-1.3,3.9-1.6,4.7c-0.9,2.2-1.1,2.2-7.9,3.2l-0.2,0c-6.2,0.9-6.5,1-7.4,2
					c-0.5,0.6-0.8,1.2-0.2,2.3c0.5,1.1,1.5,1.9,4.6,3.9c3.8,2.4,4.8,3.2,5.2,3.9c0.5,0.7,0.4,1,0.2,2.2c-0.1,0.7-0.8,3-1.4,4.9
					c-1.9,5.6-2.2,7.5-1.6,8.7c0.3,0.5,0.6,0.8,1.6,0.7c0.1,0,0.3-0.1,0.5-0.1c1.3-0.3,2.5-1.2,6.4-4.5c3.9-3.4,5-4.1,5.6-4.2
					c0.8-0.1,2.1,0.6,5.9,3c3.8,2.5,5.1,3.1,6.4,2.9c1-0.1,1.9-0.6,1.9-2.8c0-1.3-0.3-2.4-1.6-7c-0.6-2.1-1.1-4.1-1.1-4.8
					c0-1.2,0.1-1.4,1.1-2.6c0.6-0.7,2.3-2.2,3.8-3.5C788.7,232.1,789.8,231.1,790.4,230.1"/>
			</g>
			<g>
				<path class="st27" d="M769.4,213.9c0.4-0.1,0.9,0,1.3,0.2c0.9,0.5,1.8,2.3,3,6.5c1,3.5,1.6,5.2,2.1,5.9c0.7,1,1.8,1,7.1,0.4
					c6.3-0.7,7.6-0.4,8.1,0.8c0.2,0.6,0.2,1.2-0.6,2.4c-0.6,1-1.7,2-5.3,5.1c-1.5,1.3-3.2,2.9-3.8,3.5c-1.1,1.2-1.2,1.3-1.1,2.6
					c0,0.7,0.5,2.7,1.1,4.8c1.4,4.6,1.6,5.7,1.6,7c0,2.2-0.9,2.7-1.9,2.8c-1.3,0.2-2.6-0.4-6.4-2.9c-3.8-2.5-5.1-3.1-5.9-3
					c-0.7,0.1-1.8,0.8-5.6,4.2c-3.9,3.3-5.1,4.2-6.4,4.5c-0.2,0-0.3,0.1-0.5,0.1c-0.9,0.1-1.3-0.2-1.6-0.7c-0.6-1.2-0.2-3.1,1.6-8.7
					c0.6-1.9,1.3-4.1,1.4-4.9c0.2-1.2,0.2-1.5-0.2-2.2c-0.5-0.7-1.5-1.5-5.2-3.9c-3-2-4-2.8-4.6-3.9c-0.6-1.1-0.3-1.7,0.2-2.3
					c0.9-1,1.2-1.1,7.4-2l0.2,0c6.8-1,7-1,7.9-3.2c0.3-0.8,1.1-2.9,1.6-4.7c1.2-3.9,1.7-5.2,2.4-6.3c0.5-0.9,1.2-1.6,1.6-1.9
					C769.1,213.9,769.3,213.9,769.4,213.9z"/>
			</g>
		</g>
	</g>
	<linearGradient id="SVGID_18_" gradientUnits="userSpaceOnUse" x1="425.5182" y1="388.5558" x2="1565.3043" y2="388.5558">
		<stop  offset="0" style="stop-color:#383838"/>
		<stop  offset="4.311621e-02" style="stop-color:#555555"/>
		<stop  offset="0.1009" style="stop-color:#747474"/>
		<stop  offset="0.1665" style="stop-color:#909090"/>
		<stop  offset="0.2405" style="stop-color:#A6A6A6"/>
		<stop  offset="0.327" style="stop-color:#B7B7B7"/>
		<stop  offset="0.4338" style="stop-color:#C2C2C2"/>
		<stop  offset="0.5837" style="stop-color:#C9C9C9"/>
		<stop  offset="1" style="stop-color:#CBCBCB"/>
	</linearGradient>
	<path class="st28" d="M458.3,414.4c0,0,45.4-2.9,53.5,0c0,0-25.6,38.8-22.7,52s7.3,0,7.3,0s25-63.8,107.4-64
		c82.4-0.3,95.4,65.1,95.4,65.1s5.5,9.9,7.4,0s-10.7-53.3-37.6-65.1l90.1,3.6c0,0,32.7-11,3.8-28l91.5,7.1l-70.9-2.7
		c0,0-6.9,0-1.9,6.6s-8.8,15.7-8.8,15.7l-28,27.8c0,0-4.1,4.7-2.5,6.9c1.6,2.2,4.1,2.5,8-0.5c3.8-3,25.6-22.8,25.6-22.8l110.2,3
		l-65.1,36.3l-31.3,2.5c0,0-4.4,0.3-4.4,3.6c0,3.3,3.3,4.4,3.3,4.4l234.7,3c0,0,10.7,0,11-3.6s-10.2-4.7-10.2-4.7l-175.6-4.7
		l84.1-45.6l1.4-0.1l13.5-0.5l-13.5,0.5l-27.5,16.8c0,0-6.6,9.9,11.8,9.9c18.4,0,310.5-4.9,310.5-4.9s-17,24.5-52.5,25.8
		s-51.7,3-51.7,3s-3.8,1.1-3.8,4.1s5.2,4.4,5.2,4.4l70.6,0.3c0,0,25.3,4.7,82.7-52.2c0,0-15.7,21.4-15.7,30.8s2.7,8.5,2.7,8.5
		s2.7,1.4,6.3-6.3c3.6-7.7,25-42.6,72.3-49.2c47.3-6.6,78,16.5,78,16.5s31.1,22.7,35.4,54.8c0,0,1.4,5.7,4.4,5.7
		c3,0,4.4-5.2,4.4-5.2s2.2-24.2-8.8-41.8c0,0,23.6,27.5,59.6,26.1c0,0,5.5,0.3,7.1-4.1c1.6-4.4-7.4-6-7.4-6s-27.5-8-32.2-14.8
		l69.8,15.1c0,0,8.2,1.1,9.6-1.9c1.4-3-4.7-7.7-4.7-7.7s-144.9-93.3-259.1-57.7c0,0-6.5,1.6-17.9-4.3c-11.4-5.9-99.3-39.6-99.3-39.6
		s-7.8-1.7-9.3,1.1c-1.5,2.8-0.5,4.5,5.6,7.3c6,2.8,85.4,36.1,85.4,36.1l-54.9,0.4c0,0-72.6-54.8-95.2-57.5c0,0-5.1-0.5-9-10.8
		c-3.8-10.3-115.8-39.6-424.1,44c0,0-25.3,4.1-4.9,9.9c20.3,5.8,38.2,9.9,38.2,9.9s-143.5-44.5-264.4,5.2c0,0-0.5,1.3-1.4,3.6
		c-3.8,9.8-14.7,36.7-23.4,45.6c0,0-3,4.7,0,6.3c3,1.6,7.1-2.2,7.1-2.2s15.7-17.6,16.2-19C450.8,414.5,458.3,414.4,458.3,414.4z"/>
	<path class="st16" d="M450.2,385.1l-30.8,1.6c0,0-7.7,7.1,0,12.1l-0.5,21.7c0,0,0.6,16.1,12.9,3.7
		C431.8,424.2,448.9,388.7,450.2,385.1z"/>
	<path class="st29" d="M870.5,336.7c0,0,154.6-39.9,228.6-4.8c74,35.2,86.1,49.1,86.1,49.1l-166.7-7.7
		C1018.5,373.4,873.4,338.6,870.5,336.7z"/>
</g>
<g id="Capa_3">
	<path class="st30" d="M1516.5,712.5c-8.2,11-16,21.6-23.9,32.1c-15.7,21.1-31.6,42.1-47.1,63.4c-3.4,4.7-7.1,6.7-12.8,6.3
		c-6.4-0.4-12.8-0.1-19.2-0.1c-384.5,0-768.9,0-1153.4,0c-9.2,0-18.4,0-27.7,0c2.2-11.2,4.4-13,14.6-13
		c379.9-0.3,759.7-0.7,1139.6-0.9c6.3,0,10.2-2.1,14.2-6.8c20.6-25.1,41.7-49.8,62.4-74.8c3.6-4.3,7.3-6.5,13-6.4
		C1489.3,712.7,1502.5,712.5,1516.5,712.5z"/>
	<polygon class="st31" points="241.3,796.3 1378.1,794.2 1449.7,712.4 316.5,712.4 	"/>
	<polygon class="st31" points="1521.7,712.4 1539,712.4 1467.6,814.4 1446.9,814.4 	"/>
	<polygon class="st31" points="1547.4,712.4 1566.6,712.4 1495.2,814.4 1474.5,814.4 	"/>
	<polygon class="st31" points="1575.8,712.4 1595,712.4 1523.6,814.4 1502.9,814.4 	"/>
	<polygon class="st30" points="1602.3,712.4 1621.4,712.4 1550.1,814.4 1529.4,814.4 	"/>
	<text transform="matrix(1.8433 0 0 1 345.1345 775.0789)" class="st32 st33">C</text>
	<text transform="matrix(2.0474 0 0 1 437.1271 775.0789)" class="st32 st33">O</text>
	<text transform="matrix(1.847 0 0 1 551.3093 775.0798)" class="st32 st33">M</text>
	<text transform="matrix(1.8349 0 0 1 668.8898 775.0789)" class="st32 st33">P</text>
	<text transform="matrix(2.0696 0 0 1 757.8317 775.0789)" class="st32 st33">E</text>
	<text transform="matrix(2.0696 0 0 1 847.2839 775.0789)" class="st32 st33">T</text>
	<text transform="matrix(2.0696 0 0 1 938.2604 775.0789)" class="st32 st33">I</text>
	<text transform="matrix(2.0696 0 0 1 1091.7527 775.0789)" class="st32 st33">I</text>
	<text transform="matrix(1.8433 0 0 1 999.7604 775.0789)" class="st32 st33">C</text>
	<text transform="matrix(2.0474 0 0 1 1150.2019 775.0789)" class="st32 st33">Ó</text>
	<text transform="matrix(2.0474 0 0 1 1265.0671 775.0789)" class="st32 st33">N</text>
	<path class="st31" d="M468.3,641.5c0,0,676.3,105.4,956.7-97.2c0,0,138.1-94.5-32.9-207.4c0,0-8.6-17.1-11.6-23
		c-3-6,211.3,48.5,271.7,101.5c53.4,46.8,46.2,87.7,0,128.9C1545.9,639.2,1042.4,754.8,468.3,641.5z"/>
	<path class="st30" d="M1471.8,312.5c0,0-676.3-105.4-956.7,97.2c0,0-138.1,94.5,32.9,207.4c0,0,8.6,17.1,11.6,23
		c3,6-211.3-48.5-271.7-101.5c-53.4-46.8-46.2-87.7,0-128.9C394.3,314.8,897.7,199.2,1471.8,312.5z"/>
	<path class="st30" d="M1075.2,297.5h274.2c0,0,88.3-0.5,46.8,90l-16.9,38.4h-115.1l14.1-34.8h-122.8l-15.3,34.8h-127.9
		L1075.2,297.5z"/>
	<path class="st30" d="M912,692.4l100.3-238.9h129.4L1133,474l94.6,0.5c0,0,23,2,38.4-21h105.9c0,0-4.1,60.4-78.8,71.6
		c0,0,51.2,10.7,27.1,65l-44.5,102.3h-117.2l42-90c0,0,18.4-34.8-18.9-34.8h-88.5l-55.8,124.8H912z"/>
	<path class="st31" d="M696.1,666.3c0,0-143.6-14.2-134.7-204.2c0,0,8.8-181,170.5-180c0,0,91.6,0,140.7,84.9l75.2-1
		c0,0-48.6-69.6-111-79.3l-1.5-8.7c0,0,128.9,0.5,172.9,128.4l-159.6-0.5c0,0-40.4-83.4-116.1-83.4s-140,78.3-129.4,186.7
		c8.2,83.9,60.4,119.2,146.8,160.6L696.1,666.3z"/>
	<path class="st31" d="M765.4,353c0,0-49.2,12-50.4,128.1c-1,97.5,51.2,145,134.8,147.4c82.9,2.3,126.6-54,126.6-143.8l-148.4-0.5
		l-0.5,36.5l70.1-1c0,0-9.2,80.2-90,80.2c0,0,32.7-38.6,31.7-47.2l-54.7-0.5l2-106.6l231.2,1.5c0,0,3.1,218-168.1,217.9
		c-178-0.1-178.8-156.5-178.8-187C671,435.6,676.4,361.7,765.4,353z"/>
</g>
</svg>
