<?xml version="1.0" encoding="utf-8"?>
<!-- Generator: Adobe Illustrator 21.0.0, SVG Export Plug-In . SVG Version: 6.00 Build 0)  -->
<svg version="1.1" xmlns="http://www.w3.org/2000/svg" xmlns:xlink="http://www.w3.org/1999/xlink" x="0px" y="0px"
	 viewBox="0 0 1920 1080" style="enable-background:new 0 0 1920 1080;" xml:space="preserve">
<style type="text/css">
	.st0{display:none;}
	.st1{display:inline;}
	.st2{fill:#0CCC00;}
	.st3{fill:#FFFFFF;}
	.st4{fill:#C02723;}
</style>
<g id="Capa_1" class="st0">
	<g class="st1">
		<polygon class="st2" points="19,809 226.4,272.4 1903,272.4 1695.7,809 		"/>
	</g>
	<g class="st1">
		<path class="st3" d="M39.4,755.7h240.3l41.6-107.5l41.6-107.5l31.6-81.6l73.3,189l-104.9,0.2l-41.6,107.5l220.2-0.1l41.6-107.5
			l-41.6-107.5l-41.7-107.6L481.2,385c-13.8-35.8-48.2-59.3-86.6-59.3l0,0c-38.3,0-72.7,23.6-86.6,59.3l-18.6,48.1l-83.3,215.1H80.9
			L39.4,755.7z"/>
	</g>
	<g class="st1">
		<path class="st3" d="M583.1,755.6l315.5,0.1l0,0h0.1c45.9-0.1,83.1-37.3,83.1-83.2V570.1c0-46-37.3-83.2-83.2-83.2l0,0H624.7
			l41.6,107.6l205.4-0.1c14.9,0,26.9,12,26.9,26.9l0,0c0,14.8-12,26.9-26.8,26.9H857l-232.3-0.1L583.1,755.6z"/>
	</g>
	<g class="st1">
		<path class="st3" d="M981.8,325.8l-315.5-0.1l0,0h-0.1c-45.9,0.1-83.1,37.3-83.1,83.2v102.4c0,46,37.3,83.2,83.2,83.2l0,0h273.9
			l-41.6-107.6L693.2,487c-14.9,0-26.9-12-26.9-26.9l0,0c0-14.8,12-26.9,26.8-26.9h14.8l232.3,0.1L981.8,325.8z"/>
	</g>
	<g class="st1">
		<path class="st3" d="M981.8,433.2l288.7,0.2c14.8,0,26.8,12,26.8,26.8l0,0c0,14.8-12,26.8-26.8,26.8h-207.3l-41.6,107.5v161.3
			l107-0.1l0.9-161.3h73.1l62.7,161.5l115.2-0.1L1339,648.3l-19.5-53.9l0,0c33.7,0,61.1-27.4,61.1-61.1V386.8
			c0-33.7-27.4-61.1-61.1-61.1h-296L981.8,433.2z"/>
	</g>
	<g class="st1">
		<polygon class="st3" points="1380.6,433.5 1840.5,433.5 1757.4,648.4 1463.7,648.2 		"/>
	</g>
</g>
<g id="Capa_2">
	<g>
		<g id="XMLID_4_">
			<g>
				<path d="M1457.4,675.4c4.5-0.2,7.2,2.3,9.1,5.5c1.8,3.1,2.8,6.5,2.7,10.4c-0.2,10.2-0.1,20.3-0.1,30.5c0,1.5,0.3,3,0.2,4.5
					c-0.1,2.5-0.4,5-0.8,7.4c-0.3,1.6-1,3.1-1.4,4.7c-1.2,4.3-2.7,5.5-7.2,5.6c-3.5,0.1-7,0.1-10.5,0.1c-1.7,0-3.4,0-5.2,0
					c-2.3,0-4.6,0-6.9,0c0,0,0,0,0,0c-7.3,0-14.6,0.1-21.8,0c-5.5-0.1-7.6-2.1-8.7-7.5c-1.1-5.3-1.6-10.5-1.1-16
					c0.6-7.4,0.2-14.8,0.2-22.2c0-3.4,0-6.8,0-10.2c0-4.9,2.2-8.7,6-11.6c1.2-0.9,3-1.1,4.6-1.1c7.3-0.1,14.6,0,21.8,0
					C1444.6,675.5,1451,675.8,1457.4,675.4z"/>
				<path d="M1456.5,803.5c-6.5,2.7-13.2,2.6-19.8,0.1c-4.8-1.9-7.6-5.7-9-10.5c-1.3-4.4-1.4-8.9-0.5-13.4c1.8-9.6,8.7-14.8,19-14.5
					c1.7,0.1,3.5,0.2,5.2,0.6c6,1.3,10.1,4.8,11.9,10.7c1.1,3.5,1.4,7.1,1,11.2c-4.3,0-8.4,0-12.5,0c-4,0-8,0-11.9,0
					c-0.7,4.4,0.7,7.2,3.9,8.1c4.2,1.2,6.7-0.3,8.9-5.1c3.7,0,7.4,0,11.4,0C1464.5,797,1461.9,801.3,1456.5,803.5z M1439.8,780.7
					c4.1,0,7.9,0,11.7,0c-0.2-4.2-1.7-5.9-5.1-6.1C1442.4,774.3,1440.5,776.1,1439.8,780.7z"/>
				<path d="M1419.7,625.5c10.8,0,21.6,0,32.4,0c0.9,0,1.8,0.1,2.6,0c1.7-0.1,2.5,0.8,2.7,2.4c0,0.4,0.1,0.7,0.1,1.1
					c0,6.6,0.1,13.3,0,19.9c0,3.2-0.5,3.7-3.8,3.7c-13.2,0-26.3,0-39.5,0c-3.6,0-6.2-1.6-8.2-4.4c-2.5-3.5-4-7.5-4.6-11.8
					c-0.4-2.7-0.6-5.5-0.6-8.2c0-18.8,0-37.6,0-56.4c0-4.7,0.4-9.3,2.1-13.7c1-2.4,2.2-4.8,3.7-6.9c1.7-2.5,4.3-3.8,7.4-3.8
					c13.4,0,26.8,0,40.3,0c2.4,0,3.1,0.5,3.2,2.7c0.1,7.4,0,14.8,0,22.2c0,0.6-0.4,1.2-0.7,2.3c-13.7,0-27.2,0-40.9,0
					c0,17,0,33.7,0,50.7C1417,625.4,1418.4,625.5,1419.7,625.5z"/>
				<path d="M1444.2,744.2c-2.3,0-4.6,0-6.9,0c0,0,0,0,0,0C1439.6,744.1,1441.9,744.2,1444.2,744.2z"/>
				<path d="M1398.6,805.4c-6.2,0.8-10.8-2.4-12.3-8.4c-0.4-1.6-0.7-3.2-0.7-4.8c-0.1-8,0-16,0-24.1c0-0.5,0.1-1,0.2-1.7
					c4.2,0,8.1,0,12.2,0c0.1,1.3,0.2,2.4,0.2,3.5c0,5.8,0,11.5,0,17.3c0,1.1,0,2.3,0.1,3.4c0.3,2.5,1.6,3.9,3.6,4.2
					c1.9,0.3,4.1-0.8,4.9-2.7c0.6-1.5,0.9-3.1,0.9-4.7c0.1-5.6,0-11.3,0.1-16.9c0-1.2,0.1-2.5,0.2-3.9c4,0,7.9,0,11.7,0
					c0.8,2.5,1,32.7,0.3,37.9c-3.1,0-6.3,0-9.7,0c-0.4-1.5-0.7-2.9-1.2-4.7c-1,0.8-1.7,1.4-2.4,2.1
					C1404.4,803.8,1401.7,805,1398.6,805.4z"/>
				<path class="st4" d="M1365.7,744c-6.8,0-13.5,0-20.3,0c-5.6,0-9.8-4.2-9.8-9.9c0-16,0-32.1,0-48.1c0-5.6,4.3-10,9.9-10.1
					c10.6-0.1,21.3-0.1,32-0.1c3.2,0,6.5-0.1,9.7,0.2c5.3,0.6,8.1,3.3,9.2,8.4c0.8,3.3,0.7,6.6,0.6,10c-0.3,9.6,0.1,19.3,0.1,28.9
					c0,4.2-0.1,8.5-0.8,12.7c-1,5.9-3.7,7.9-9.6,7.9C1379.7,744,1372.7,744,1365.7,744C1365.7,744,1365.7,744,1365.7,744z"/>
				<path d="M1372,547.4c1.7,0,2.5,0.9,2.7,2.5c0.1,1,0.1,2,0.1,3c0,31.5,0,63,0,94.5c0,0.5,0,1,0,1.5c-0.1,3.4-0.5,3.8-4,3.8
					c-2.5,0-5-0.1-7.5,0c-1.9,0.1-2.8-0.8-2.9-2.6c-0.1-1.1-0.1-2.3-0.1-3.4c0-15.7,0-31.4,0-47c0-15.3,0-30.6,0-45.9c0-1,0-2,0-3
					c0.2-2.8,0.6-3.2,3.4-3.3C1366.4,547.4,1369.2,547.4,1372,547.4z"/>
				<path d="M1344,772.6c3.6-8.4,14.1-9.9,20.6-3.4c0.4,0.4,0.5,1.1,0.8,1.7c0.3-0.2,0.6-0.4,0.9-0.5c0.4-1.3,0.8-2.5,1.2-4
					c3.2,0,6.4,0,9.6,0c0.7,2.8,0.9,47.5,0.2,52c-3.9,0-7.8,0-12.1,0c0-5.4,0-10.7,0-17c-4.1,3.3-7.8,4.5-12,3.7
					c-4.3-0.8-7.5-3-9.1-7C1340.5,789.7,1340.4,781,1344,772.6z M1364.2,791.5c1.6-4.1,1.6-8.3,0-12.4c-0.9-2.4-2.9-3.3-5.4-3
					c-2.3,0.3-3.7,1.5-4.3,4.1c-0.3,1.6-0.4,3.2-0.6,4.8c0.1,0,0.1,0,0.2,0c0,1.3,0,2.5,0,3.7c0,0.6,0.2,1.2,0.3,1.8
					c0.7,2.5,2,3.8,4.3,4.1C1361.2,794.9,1363.3,793.9,1364.2,791.5z"/>
				<path d="M1296.8,650c0,1.8-0.8,2.8-2.8,2.7c-3-0.1-6-0.1-9,0c-2,0-2.7-1-2.7-2.8c0-0.9,0-1.8,0-2.6c0-31.5,0-63,0-94.4
					c0-5.5,0-5.5,5.4-5.5c14.2,0,28.3,0,42.5,0c4.2,0,4.5,0.3,4.6,4.4c0,6.1,0,12.3,0,18.4c0,1.2-0.2,2.5-0.4,4.3
					c-12.6,0-24.7,0-37.1,0c-0.7,4.1-0.2,7.7-0.4,11.7c1.6,0.1,2.8,0.2,4,0.2c7.5,0,15,0,22.6,0c3.5,0,3.9,0.4,3.9,3.9
					c0.1,6.4,0.1,12.8,0,19.2c0,3.8-0.4,4.1-4.1,4.1c-7.4,0-14.8,0-22.2,0c-1.2,0-2.5,0-4.2,0c0,1.7,0,3,0,4.4c0,9.7,0,19.3,0,29
					C1296.8,647.9,1296.8,649,1296.8,650z"/>
				<path d="M1322.5,766.4c4-0.5,7.9-0.2,12.1-0.1c0,12.8,0,25.2,0,38.2c-4.2,0-8,0-12.1,0C1322.5,791.7,1322.5,779.3,1322.5,766.4z
					"/>
				<path d="M1334.5,752.1c0,3,0,5.9,0,9.3c-4.1,0-7.9,0-12,0c0-3.1,0-6,0-9.3C1326.4,752.1,1330.3,752.1,1334.5,752.1z"/>
				<path d="M1263.6,709.9L1263.6,709.9c0-8.1,0-16.3,0-24.4c0.1-5.7,4.4-10,10.2-10c13.7,0,27.3,0,41,0c1.4,0,2.8,0.1,4.1,0.3
					c0.7,0.1,1.7,0.2,2.1,0.6c2.5,2.7,5.8,4.9,6.1,9.1c0.1,1,0.2,2,0.2,3c0,14.4-0.2,28.8,0,43.2c0.1,4.6-1.7,7.9-4.7,10.9
					c-0.8,0.8-2.2,1.2-3.3,1.3c-1.9,0.2-3.8,0.1-5.6,0.1c-13.4,0-26.8,0-40.2,0c-6,0-9.9-4-9.9-10.1
					C1263.6,726,1263.6,717.9,1263.6,709.9z"/>
				<path d="M1317.2,766c0,3.8,0,7.6,0,12c-1.4,0.1-2.8,0.2-4.2,0.3c-4.1,0.3-6.3,2-6.6,6.2c-0.4,4.9-0.3,9.7-0.3,14.6
					c0,1.6,0,3.2,0,5c-4.3,0-8.1,0-12.3,0c0-12.6,0-25,0-37.6c3.3,0,6.4,0,9.9,0c0.3,1.2,0.7,2.4,1.1,4.1
					C1308,766.4,1311.7,763.8,1317.2,766z"/>
				<path d="M1285.4,796.2c-3.4,10.1-14.4,12.4-21.8,4.7c-0.2-0.3-0.6-0.5-1.2-1c-0.5,1.6-0.8,3-1.2,4.4c-3.3,0-6.5,0-10,0
					c0-17.4,0-34.7,0-52.2c4,0,8,0,12.3,0c0,5.4,0,10.8,0,16.6c1.1-0.5,1.7-0.8,2.3-1.2c7.6-4.9,16.6-2,19.6,6.5
					C1287.9,781.3,1287.9,788.8,1285.4,796.2z M1274.6,785.4c-0.2-1.8-0.2-3.7-0.6-5.5c-0.5-2.5-2.1-3.7-4.4-3.9
					c-2.4-0.2-4.3,0.7-5.1,2.9c-1.7,4.2-1.7,8.6,0,12.8c0.9,2.2,2.9,3.2,5.1,3c2.3-0.2,3.9-1.5,4.4-3.9
					C1274.4,789,1274.4,787.3,1274.6,785.4z"/>
				<path class="st4" d="M1237.2,675.8c0.9,0,1.8,0.1,2.6,0c5.1-1,9.3,0.9,13.1,4.1c1.6,1.4,2.2,3,2.2,4.9c0.1,3.5,0.1,7,0.1,10.5
					c0,4.9,0,9.8,0,14.7c0,0,0,0,0,0c0,7.9,0,15.8,0,23.7c0,6-4.4,10.2-10.5,10.3c-13.7,0-27.3,0-41,0c-7.1,0-11-3.7-11.1-10.7
					c-0.1-13.5-0.1-27.1-0.1-40.6c0-1.1,0.1-2.3-0.1-3.4c-0.7-4.9,1.5-8.6,5.1-11.5c1.4-1.1,3.3-1.6,5.1-1.9
					c2.6-0.4,5.3-0.4,7.9-0.3C1219.4,675.6,1228.3,675.7,1237.2,675.8z"/>
				<path d="M1237.6,547.3c4.7-0.1,7.9,2,10.2,5.8c3.2,5.3,4.3,11.2,4.3,17.3c0,14.3,0,28.6,0,42.9c0,11.3,0,22.6,0,33.9
					c0,1.1,0,2.3-0.1,3.4c-0.2,1.2-0.9,2.1-2.3,2.1c-3.3,0-6.5,0-9.8,0c-1.6,0-2.3-0.9-2.5-2.3c-0.1-1-0.1-2-0.1-3
					c0-7.4,0-14.8,0-22.2c0-1.4,0-2.7,0-4.5c-9.3,0-18,0-27.1,0c-0.1,1.4-0.2,2.6-0.2,3.8c0,7.7,0,15.3,0,23c0,1,0,2-0.1,3
					c-0.1,1.4-1,2.2-2.5,2.2c-3.1,0-6.3,0-9.4,0c-1.5,0-2.3-0.8-2.4-2.3c-0.1-0.9-0.1-1.7-0.1-2.6c0-25.6-0.1-51.2,0.1-76.8
					c0-4,0.7-8,1.6-11.8c0.6-2.5,1.9-4.9,3.3-7.1c2-3.2,5-4.7,8.8-4.7C1218.8,547.5,1228.2,547.5,1237.6,547.3z M1237.1,593.1
					c0-6.3,0-12.2,0-18.3c-9.1,0-17.9,0-26.8,0c0,6.2,0,12.2,0,18.3C1219.3,593.1,1228,593.1,1237.1,593.1z"/>
				<path d="M1212.3,754.6c0.1,1.3,0.2,2.7,0.2,4c0,7.9,0,15.8,0,23.7c0,1.6,0.1,3.3,0.4,4.9c0.8,4,3.6,6.3,7.3,6.3
					c3.7,0,6.5-2.2,7.4-6.2c0.3-1.5,0.4-3,0.4-4.5c0-8,0-16,0-24.1c0-1.2,0-2.5,0-4c4.7,0,9.1,0,13.7,0c0.1,1.1,0.2,2.1,0.2,3
					c0,8.9,0,17.8,0,26.7c0,2.2-0.2,4.5-0.7,6.7c-1.6,6.8-5.8,11.2-12.5,13.2c-5.4,1.6-10.9,1.6-16.3,0.1
					c-8.4-2.3-13.3-8.6-13.6-17.7c-0.2-7.9-0.1-15.8-0.1-23.7c0-2.7,0-5.5,0-8.4C1203.3,754.6,1207.6,754.6,1212.3,754.6z"/>
				<path d="M1124.1,646.8c0,1,0,2-0.1,3c-0.1,1.7-0.9,2.8-2.8,2.8c-3,0-6,0-9,0c-1.7,0-2.5-1-2.6-2.5c-0.1-1-0.1-2-0.1-3
					c0-31.3,0-62.7,0-94.1c0-0.1,0-0.2,0-0.4c0-4.9,0.2-5.1,5.1-5.1c12.2,0,24.3,0.2,36.5-0.1c5.4-0.1,8.8,2.2,11.2,6.7
					c2.7,5,3.8,10.3,3.9,15.9c0.1,9,0.1,18.1,0,27.1c0,3.1-0.5,6.3-1.2,9.3c-1.2,5.2-3.5,9.9-8.7,13.1c2.8,6.3,5.3,12.3,8.3,18.1
					c2.1,4.1,1.7,8.3,1.6,12.5c0,1.6-0.9,2.5-2.7,2.5c-3.1,0-6.3-0.1-9.4,0c-2,0.1-2.5-1.3-3.2-2.7c-3.9-8.6-7.7-17.2-11.6-25.7
					c-2.5-5.3-1-4.4-7.1-4.5c-2.5,0-5,0-7.7,0c-0.1,1.7-0.2,2.9-0.2,4.1C1124.1,631.5,1124.1,639.2,1124.1,646.8z M1151.1,592.4
					c0-6.1,0-11.8,0-17.6c-9.1,0-17.9,0-26.6,0c-0.7,4.4-0.6,15,0.2,17.6C1133.4,592.4,1142.1,592.4,1151.1,592.4z"/>
				<path d="M1027,554.3c2.4-4.6,5.9-7.1,11.4-6.9c9,0.3,18.1,0.2,27.1,0c4.5-0.1,7.7,1.8,10,5.5c2.6,4.3,4,8.9,4.3,13.9
					c0.2,4.3,0.2,8.5,0.1,12.8c0,3-0.4,3.3-3.6,3.4c-2.4,0-4.8,0-7.2,0c-3.5,0-3.7-0.3-3.8-3.9c0-1.2,0-2.5,0-4.2
					c-9.3,0-18,0-26.7,0c-0.9,2.7-1.1,45.7-0.2,50.5c8.8,0,17.6,0,26.7,0c0-2.9,0-5.7,0-9c-2.6,0-5.2,0-7.8-0.1
					c-3.1-0.1-3.6-0.4-3.6-3.4c-0.1-6.8-0.1-13.5,0-20.3c0-2.9,0.7-3.4,3.7-3.5c6.4,0,12.8,0,19.2,0c2.9,0,3.4,0.5,3.4,3.3
					c0,13.8,0,27.6-0.2,41.4c-0.1,4.9-1.7,9.6-4.4,13.8c-2.2,3.5-5.2,5.4-9.7,5.4c-9.4-0.2-18.8-0.2-28.2,0
					c-4.4,0.1-7.4-1.8-9.6-5.4c-3.4-5.4-4.5-11.4-4.5-17.6c0-14.2,0-28.3,0-42.5c0-5.8,0-11.5,0-17.3
					C1023.4,564.4,1024.4,559.2,1027,554.3z"/>
				<path d="M994.5,547.4c1.7,0,2.5,0.9,2.6,2.5c0.1,1,0.1,2,0.1,3c0,31.5,0,62.9,0,94.4c0,0.4,0,0.8,0,1.1c-0.1,4-0.3,4.2-4.4,4.2
					c-2.4,0-4.8-0.1-7.1,0c-1.9,0.1-2.8-0.9-2.9-2.7c-0.1-1.1-0.1-2.3-0.1-3.4c0-15.7,0-31.3,0-47c0-15.3,0-30.6,0-45.9c0-1,0-2,0-3
					c0.2-2.7,0.7-3.2,3.4-3.3C989,547.4,991.7,547.4,994.5,547.4z"/>
				<path d="M952.5,547.4c2.6,0.1,3.2,0.5,3.2,3.1c0.1,7,0.1,14,0,21.1c0,2.6-0.5,3-3.2,3c-4.5,0.1-9,0-13.5,0c-1.2,0-2.4,0-4.2,0
					c0,1.9,0,3.4,0,4.8c0,22.4,0,44.9,0,67.3c0,5.9,0,5.9-6,5.9c-1.9,0-3.8-0.1-5.6,0c-1.9,0.1-2.8-0.8-2.9-2.6
					c-0.1-1.1-0.1-2.3-0.1-3.4c0-22.3,0-44.6,0-67c0-1.5,0-3,0-4.8c-1.3-0.1-2.4-0.3-3.4-0.3c-4.8,0-9.5,0-14.3,0
					c-2.7,0-3.2-0.4-3.2-3c-0.1-7-0.1-14,0-21.1c0-2.7,0.7-3.1,4-3.1c16.2,0,32.4,0,48.5,0C952,547.4,952.2,547.4,952.5,547.4z"/>
				<path class="st4" d="M712.4,791.2c0-6.9,0-13.8,0-20.7c0-0.5,0-1,0-1.5c0.2-3.7,0.7-4.4,4.4-4.7c1.9-0.2,3.8-0.3,5.6-0.5
					c6.1-0.8,12.4-1,18.2-2.8c5.2-1.6,10.8-1.8,15.7-4.5c0.9-0.5,2.1-0.6,3.2-1c1.9-0.6,3.7-1.3,5.6-1.9c0.3-0.1,0.7-0.5,1-0.5
					c4.2-0.1,7.7-2.4,11.2-4c5.1-2.4,10.7-3.9,15.4-7.5c2.8-2.2,6.5-3.2,9.5-5.2c5.8-3.7,11.4-7.6,17.1-11.5
					c10.1-6.9,18.7-15.5,27.4-24c5.6-5.5,11-11.4,16.3-17.2c1.3-1.4,2.7-2.2,4.5-2.2c4.5,0,9,0.1,13.5,0.1
					c8.2-0.1,16.3-0.1,24.5-0.3c2.6-0.1,5.2-0.6,7.8-0.9c4.6-0.6,9.2-1.3,13.8-1.7c1.3-0.1,3,0.1,3.8,0.9c1.2,1.3-0.1,2.9-0.9,4.1
					c-2.8,4.2-5.5,8.4-8.5,12.4c-6.3,8.5-12.6,17.2-20,24.8c-8.3,8.7-16.9,17-25.4,25.6c-4.5,4.5-8.9,9.1-14.1,12.9
					c-6.9,5-13.5,10.3-20.5,15.1c-5,3.5-10.2,6.8-15.5,9.9c-2.7,1.6-5.7,2.5-8.5,3.9c-1.8,0.9-3.4,2-5.2,2.9
					c-3.2,1.7-6.4,3.3-9.6,4.9c-2.5,1.2-5,2.2-7.6,3.1c-3.5,1.3-7.1,2.5-10.6,3.7c-1,0.4-2,1-3,1.5c-1.1,0.5-2.3,1-3.5,1.3
					c-2.2,0.6-4.3,1.5-6.5,1.7c-6.4,0.6-11.8,4.9-18.4,4.4c-0.7,0-1.6,0.1-2.2,0.4c-3.4,1.8-7.2,2-11,2.3c-2.6,0.2-5.2,0.8-7.7,1.5
					c-5.6,1.7-11.4,1.4-17.2,1.5c-2.1,0-2.7-0.8-2.8-3.2c-0.1-3.3,0-6.5,0-9.8C712.4,800,712.4,795.6,712.4,791.2L712.4,791.2z"/>
				<path d="M857.6,547.5c5.4-0.1,8.8,2.3,11.2,6.7c2.5,4.5,3.7,9.4,3.8,14.4c0.2,10,0.1,20.1,0,30.1c0,2.7-0.6,5.5-1.3,8.1
					c-1.3,5.1-3.6,9.6-8.6,12.7c3,6.6,5.7,12.9,8.7,19.1c1.9,3.9,1.1,7.8,1.1,11.8c0,1.4-1.1,2.1-2.6,2.1c-3.1,0-6.3-0.1-9.4,0
					c-1.9,0.1-2.5-1.3-3.2-2.7c-3.4-7.5-6.8-15.1-10.2-22.6c-1.1-2.5-1.9-5.8-3.9-7.1c-2-1.3-5.3-0.4-8.1-0.4
					c-1.4,0-2.7,0.1-4.6,0.2c0,1.5,0,2.9,0,4.2c0,8,0,16.1,0,24.1c0,4-0.3,4.2-4.3,4.3c-2.4,0-4.8,0.1-7.2,0c-2.3-0.1-2.8-0.6-3-2.9
					c-0.1-0.9,0-1.8,0-2.6c0-31.3,0-62.7,0-94.1c0-5.5,0-5.5,5.4-5.5C833.5,547.5,845.5,547.7,857.6,547.5z M857.4,592.4
					c0.8-4.3,0.6-14.8-0.2-17.5c-5.2-0.6-23.8-0.4-26.5,0.3c0,5.6,0,11.2,0,17.2C839.8,592.4,848.6,592.4,857.4,592.4z"/>
				<path class="st4" d="M680.9,331.7c7.9-0.9,15.8-0.1,23.7,0.6c4.4,0.4,8.7,0.9,13.1,1.3c3.6,0.3,7.3,0.4,10.6,2.2
					c0.5,0.3,1.2,0.5,1.8,0.5c5.1,0.1,9.9,1.6,14.7,2.8c2.3,0.6,4.7,0.8,6.6,2.4c0.3,0.2,0.7,0.4,1,0.4c3.8,0.2,7.1,2.1,10.7,3.1
					c3.8,1,6.9,3.3,10.6,4.5c3.7,1.2,7.2,3.2,10.7,5.1c3.9,2.1,7.8,4.3,11.5,6.8c8,5.4,15.8,10.9,23.7,16.4c1.5,1.1,2.8,2.4,4.8,4.2
					c-9.6,9.6-18.6,18.6-27.7,27.8c-4.5-3.3-8.6-6.4-12.8-9.3c-3.8-2.6-7.6-5.2-11.5-7.6c-2.8-1.7-5.6-3.3-8.5-4.7
					c-3.9-1.8-7.7-4-11.9-5.3c-3.9-1.2-7.7-2.9-11.5-4.4c-1.2-0.4-2.4-0.7-3.6-1c-0.9-0.2-1.8-0.1-2.6-0.4c-6.5-3.3-14-2.6-20.8-4.6
					c-2.7-0.8-5.7-0.9-8.6-0.9c-11-0.1-22.1,0-33.1,0c-3.8,0-7.5,0.5-11.1,1.8c-1.6,0.6-3.4,1-5.1,1.1c-3.7,0.2-7.2,0.5-10.5,2.4
					c-0.9,0.5-2.2,0.5-3.3,0.7c-0.7,0.1-1.6,0-2.2,0.3c-3.2,1.9-6.8,2.5-10.1,3.8c-4.2,1.6-8.3,3.3-12.3,5.3c-4,2-7.8,4.4-11.7,6.7
					c-7.1,4.3-13.7,9.1-20,14.5c-1.3,1.1-2.5,1.1-3.7,0.1c-1.3-1-2.5-2.1-3.6-3.3c-6.4-6.4-12.8-12.7-19.1-19.2
					c-3.5-3.6-3.5-4.1,0.5-7.3c3.7-3,7.5-5.7,11.3-8.7c5.8-4.6,12.2-8.3,18.4-12.1c5.3-3.2,11-5.9,16.6-8.6
					c3.6-1.7,7.4-2.7,11.1-4.1c3.9-1.5,7.8-3,11.8-4.6c0.1,0,0.2-0.1,0.3-0.1c5.5-1.2,11-2.4,16.4-3.7c2.1-0.5,4.1-1,6.2-1.4
					c2.6-0.6,5.1-1.4,7.7-1.6C666.4,332.9,673.7,332.5,680.9,331.7z"/>
				<path d="M748.8,426.1c17.1,0,28.5,8.8,36.5,23c3.8,6.8,5.5,14.2,5.7,22c0,2,0.1,4,0.1,6c0,57.2,0,114.5,0,171.7
					c0,1.7-0.2,3.4-0.3,5.4c-14.3,0-28.3,0-42.7,0c-0.1-1.8-0.3-3.4-0.3-4.9c0-21.1,0-42.2,0-63.3c0-1.6-0.1-3.2-0.2-4.7
					c-3.2-0.9-107.8-1-112-0.1c-0.1,1.4-0.3,3-0.3,4.6c0,21.1,0,42.2,0,63.3c0,5.4,0,5.4-5.3,5.4c-10.8,0-21.6,0-32.4,0
					c-1,0-2,0-3-0.1c-1.3,0-2.1-0.7-2.1-2.1c0-1-0.1-2-0.1-3c0-58.2,0-116.5,0-174.7c0-10.8,2.1-21,8.3-30
					c8-11.8,18.8-18.5,33.4-18.5C672.3,426.2,710.6,426.2,748.8,426.1z M747.8,527.1c0-15.7,0-31.3,0-47c0-1.2-0.1-2.4-0.2-4.3
					c-2.1,0-3.7,0-5.3,0c-34,0-68,0-101.9,0c-1,0-2.1-0.2-3,0.1c-0.8,0.3-1.6,1-1.9,1.8c-0.3,0.7-0.1,1.7-0.1,2.6
					c0,15.4,0,30.8,0,46.3c0,5.1,0,5.1,5.2,5.1c34.1,0,68.2,0,102.3,0c0.9,0,1.8,0,2.6,0c1.5,0,2.4-0.7,2.4-2.3
					C747.8,528.6,747.8,527.9,747.8,527.1z"/>
				<path d="M712.3,266.9c0-6.4,0.5-6.6,6.7-5.4c4.3,0.8,8.7,1,13.1,1.2c3.3,0.2,6.4,0.2,9.4,2c1.5,0.9,3.6,0.9,5.5,0.9
					c3,0.1,5.9,0.5,8.8,1.8c1.6,0.7,3.4,0.8,5.1,1.1c1.2,0.2,2.7-0.1,3.7,0.4c3.2,1.9,6.8,2.2,10.3,3.2c3.2,0.9,6.3,2.1,9.7,2.7
					c2.5,0.4,4.8,1.9,7.2,3c3.7,1.6,7.5,3.2,11.2,4.8c5.3,2.3,10.7,4.6,16,7.1c4.1,2,8.2,4.2,12.1,6.6c4.2,2.5,8.3,5,12.3,7.8
					c4.8,3.5,10.4,5.9,14.3,10.7c0.7,0.9,2,1.4,3.1,2c4,2.2,7.1,5.4,10.4,8.5c4,3.8,8.2,7.3,12.1,11.2c6.1,6.1,11.9,12.5,17.9,18.8
					c2.5,2.6,4.9,5.3,7.2,8.1c3.5,4.3,7.1,8.7,10.4,13.3c3.3,4.7,6.2,9.6,9.3,14.4c1.8,2.9,3.7,5.8,6,9.4c-1.8,0.4-2.7,0.8-3.6,0.7
					c-3.5-0.4-6.9-0.9-10.4-1.4c-2.8-0.4-5.6-1.3-8.5-1.4c-13-0.2-26.1-0.3-39.1,0c-4.1,0.1-6.7-1.4-8.8-4.4
					c-6.9-9.8-15.3-18.1-24.6-25.6c-4.9-4-9.6-8.4-14.6-12.3c-4-3.1-8.5-5.6-12.8-8.4c-3.7-2.4-7.4-5-11.1-7.4
					c-0.7-0.5-1.6-0.6-2.4-1c-1-0.5-2-1-3-1.5c-1-0.5-1.9-1-2.9-1.5c-1-0.5-2-1-2.9-1.5c-0.9-0.5-1.7-1-2.6-1.4
					c-1.2-0.6-2.5-1.1-3.7-1.7c-0.9-0.4-1.8-0.8-2.7-1.2c-1.4-0.5-2.8-1.1-4.1-1.6c-1.2-0.5-2.3-0.9-3.5-1.4c-1.5-0.6-3-1.2-4.5-1.8
					c-0.2-0.1-0.4-0.3-0.6-0.4c-4.5-1.3-9-2.6-13.5-3.8c-1.3-0.4-2.8-0.3-4-0.9c-2.9-1.5-5.9-2-9-2.2c-1.8-0.1-3.7-0.7-5.5-1.1
					c-2.8-0.6-5.6-1.4-8.4-1.7c-3.6-0.4-7.3-0.3-10.9-0.5c-2.8-0.2-3.4-0.9-3.7-3.7c-0.1-0.9-0.1-1.7-0.1-2.6
					C712.3,295,712.3,280.9,712.3,266.9z"/>
				<path class="st4" d="M663.5,261.5c4-0.4,5.8,0.9,5.9,4.8c0.1,3.9,0,7.8,0,11.7c-0.1,9.9-0.1,19.8-0.2,29.7
					c0,4.7-1.9,6.9-6.6,7.4c-4.6,0.4-9.3,0.5-13.9,0.8c-1.3,0.1-2.6,0-3.7,0.5c-4.2,1.9-8.7,2.1-13.2,2.6c-1.6,0.2-3.1,0.9-4.6,1.5
					c-0.7,0.2-1.4,0.8-2.1,0.9c-3,0.1-5.5,1.6-8.2,2.4c-3.6,1-7.1,2-10.6,3.6c-4.3,1.9-8.9,3-13,5.5c-2.6,1.6-5.7,2.4-8.5,3.7
					c-2.1,1-4.2,2.2-6.2,3.4c-6.3,3.9-12.7,7.5-18.7,11.7c-9.2,6.3-17.5,13.7-25.9,21c-7.3,6.4-13.3,13.9-19.6,21.2
					c-4.7,5.5-9,11.3-13.2,17.2c-2.8,3.8-5.1,8-7.5,12.1c-2.3,4-4,8.3-6.6,12c-2.6,3.9-4.1,8.2-5.6,12.5c-0.9,2.4-2.1,4.8-3.1,7.2
					c-1.6,4-3.2,8-4.8,12.1c-0.3,0.8-0.3,1.7-0.6,2.6c-0.6,2-1.2,4-1.8,6.1c-0.5,1.9-0.9,3.9-1.4,5.8c-0.5,2.2-1.1,4.3-1.7,6.5
					c-0.4,1.7-0.9,3.4-1.2,5.1c-0.8,4.7-1.5,9.4-2.2,14.1c-0.3,2-0.5,4-0.7,6c-0.4,3.5-0.9,4.1-4.5,4.1c-7.4,0.1-14.8,0-25,0
					c-4.4,0.1-11.5,0.4-18.6,0.6c-4.4,0.1-5.2-0.8-5.1-5.3c0.1-3.6,0.1-7.3,0.5-10.9c0.3-2.6,1.1-5.1,1.6-7.7
					c0.4-2.2,0.9-4.4,1.1-6.6c0.3-3.3,0.6-6.4,1.9-9.5c0.8-1.8,0.9-3.9,1-5.9c0.2-2.3,0.3-4.5,1.8-6.4c0.2-0.3,0.5-0.7,0.5-1
					c0.3-4.9,2.6-9.3,3.7-14c0.3-1.6,0.9-3.1,1.5-4.6c1.3-3.5,2.7-7,4.1-10.4c1.8-4.5,3.5-9,5.5-13.4c2.1-4.8,4.3-9.6,6.7-14.2
					c2.2-4.3,4.8-8.4,7.3-12.6c2.2-3.6,4.4-7.3,6.7-10.8c3.2-4.9,6.6-9.7,10-14.5c2.6-3.7,5.2-7.3,8.2-10.7
					c6.1-6.9,12.2-13.9,18.8-20.4c6.5-6.4,13.4-12.4,20.5-18.1c6.9-5.6,14.2-10.6,21.5-15.7c4.6-3.2,9.3-6.2,14.2-9
					c4.1-2.4,8.5-4.3,12.7-6.4c3.4-1.7,6.8-3.6,10.3-5.2c2.1-1,4.3-1.9,6.5-2.8c3.8-1.4,7.7-2.8,11.6-4.1c0.2-0.1,0.5,0,0.7-0.1
					c4.1-1.5,8.2-3,12.2-4.6c0.1,0,0.2-0.1,0.3-0.2c5-1.3,10.1-2.5,15.1-4c7.9-2.4,16.3-2.2,24.2-4.8c2.1-0.7,4.4-0.7,6.7-0.9
					C653.3,262.3,658.4,262,663.5,261.5z"/>
				<path class="st4" d="M648.4,703.5c2.4,0.5,4.8,1.2,7.2,1.7c3.4,0.7,6.9,1.2,10.4,1.7c3.3,0.5,6.7,1.2,10,1.3
					c8.7,0.2,17.3,0.2,26,0c3.7-0.1,7.4-1,11.1-1.6c3.1-0.5,6.2-0.8,9.3-1.4c2.4-0.4,4.8-1.1,7.3-1.7c0.4-0.1,0.7-0.4,1.1-0.4
					c5.4-0.1,10-2.9,15.1-4.1c3.2-0.8,6.4-2.2,9.5-3.6c3.8-1.6,7.6-3.2,11.2-5.1c4-2.2,8-4.5,11.8-7.1c5.8-3.9,11.4-8.1,17-12.2
					c1.2-0.9,2.3-0.9,3.4-0.2c0.7,0.5,1.4,1,2,1.7c6.9,6.9,13.7,13.9,20.6,20.8c0.6,0.6,1.2,1.3,1.8,2c0.9,1.3,1.1,2.5-0.2,3.7
					c-1.5,1.3-2.9,2.7-4.5,3.9c-3.6,2.7-7.1,5.5-10.9,8.1c-5.6,3.8-11.2,7.4-17,10.9c-2.6,1.6-5.8,2.3-8.3,4.1
					c-4.7,3.2-10.4,4.2-15,7.4c-0.7,0.5-1.6,0.6-2.5,0.8c-1.9,0.7-3.7,1.4-5.6,2c-5,1.5-10,3-15,4.4c-1.2,0.3-2.6,0.2-3.6,0.8
					c-3.2,1.8-6.7,1.9-10.2,2.2c-1.2,0.1-2.6,0.2-3.7,0.7c-3.9,1.7-8,1.9-12.1,2c-8.1,0.3-16.3,0.9-26.1,1.5
					c-3.1-0.2-7.9-0.6-12.6-0.9c-4.6-0.3-9.3-0.4-13.9-0.7c-2-0.1-4-0.3-6-0.7c-4.4-0.8-8.9-1.6-13.3-2.5c-1.2-0.2-2.4-0.7-3.6-1.1
					c-1.3-0.4-2.6-1-3.9-1.2c-3-0.4-6-0.7-8.5-2.6c-0.2-0.1-0.4-0.2-0.7-0.3c-5.8-0.9-10.9-3.3-16.1-5.9c-2.3-1.2-4.9-1.8-7.2-3
					c-7.4-3.9-14.8-7.8-22-12c-4.4-2.6-8.7-5.5-12.8-8.5c-3.6-2.7-7-5.6-10.3-8.6c-2-1.8-1.9-2.7-0.1-4.8c3.8-4.2,7.6-8.3,11.5-12.5
					c3.5-3.7,7.2-7.3,10.6-11.1c1.3-1.5,2.5-1.4,4-0.6c0.9,0.5,1.7,1.1,2.5,1.7c4.8,3.5,9.5,7.3,14.5,10.6c3.9,2.6,8.2,4.9,12.3,7.1
					c3.6,1.9,7.3,3.8,11.1,5.4c3.4,1.5,7.1,2.4,10.5,3.7C639,701.2,643.7,702.5,648.4,703.5z"/>
				<path d="M522,562.6c0.8,2.6,1.1,5.4,1.2,8.1c0.2,2.8,0.2,5.5,1.9,7.9c0.1,0.2,0.3,0.4,0.3,0.7c0.1,5.2,2.7,9.8,3.8,14.7
					c0.3,1.2,0.7,2.4,1.2,3.5c0.6,1.6,1.2,3.2,1.9,4.8c0.6,1.3,1.5,2.6,2.1,3.9c1.2,2.7,2.2,5.5,3.6,8.2c1.5,3,3.4,5.7,5.1,8.6
					c1.3,2.1,2.3,4.4,3.7,6.5c3.1,4.7,5.8,9.6,10,13.4c2.6,2.4,2.6,4.2,0.1,6.7c-5.7,5.8-11.5,11.5-17.3,17.2
					c-1.6,1.6-3,3.3-4.6,4.9c-1.3,1.3-2.7,2.4-4.4,3.8c-1.1-1.6-1.8-2.8-2.6-3.8c-2.6-3.3-5.5-6.5-7.9-10c-3.2-4.6-5.7-9.7-9.1-14.1
					c-2.8-3.6-4.6-7.6-6.9-11.5c-1.8-3-3.1-6.2-4.6-9.4c-1.7-3.6-3.4-7.1-5.1-10.7c-0.4-0.8-0.5-1.7-0.8-2.5
					c-0.4-1.2-0.9-2.3-1.4-3.4c-0.1-0.3-0.5-0.6-0.6-0.9c-1.3-4.5-2.7-9-3.9-13.5c-0.2-0.8,0-1.9-0.4-2.6c-3.3-5.3-2-11.8-4.7-17.3
					c-0.9-1.9-0.7-4.4-0.7-6.7c-0.1-3.8-0.5-7.4-1.5-11.1c-0.9-3.4-1.3-6.9-1.3-10.4c0-7.9-0.3-15.9,0.9-23.6
					c0.9-5.9,1.3-11.9,2.2-17.8c0.7-5,2.4-9.9,3.3-14.9c0.6-2.9,2.2-5.7,2.5-8.9c0.1-0.9,0.8-1.8,1.2-2.7c0.5-1.1,1.2-2.3,1.4-3.5
					c0.2-2.4,0.7-4.7,2.3-6.6c0.1-0.2,0.3-0.4,0.3-0.7c0.8-5,4-9,5.6-13.7c2.1-6.1,5.6-11.4,8.8-16.9c1.8-3.1,3.5-6.2,5.5-9.2
					c4.3-6.4,8.3-13,13.8-18.5c1-1.1,1.7-2.4,2.6-3.7c1.2-1.8,2.7-2.1,4.5-1c0.8,0.5,1.6,1.3,2.3,2c6.9,6.7,13.7,13.5,20.6,20.3
					c2.5,2.5,2.7,5.2,0.5,8c-1.1,1.4-2.3,2.6-3.4,4c-1.7,2.1-4,3.8-4.5,6.8c-0.1,0.6-0.9,1.2-1.3,1.8c-1.5,2.2-3.8,4-4.3,6.9
					c-0.2,1-1.5,1.6-2,2.6c-2.3,4.4-4.5,8.9-6.7,13.4c-1.7,3.6-3.8,7.1-4.7,10.8c-1.1,4.5-3.3,8.5-4.1,13c-0.2,1.1,0,2.4-0.4,3.3
					c-2.1,4.4-2.7,9.1-2.8,13.9c0,0.6-0.2,1.3-0.4,1.8c-2.4,5.7-2.3,11.7-2.3,17.8c0,6.8,0,13.5,0,20.3
					C520.3,556,520.9,559.3,522,562.6z"/>
				<path d="M664.8,818.9c-5.2-1.9-10.6-1.5-16-1.6c-2.8,0-5.4-0.4-8-1.8c-1.6-0.8-3.6-1-5.4-1.1c-3-0.1-5.9-0.6-8.7-1.9
					c-1.6-0.8-3.6-0.9-5.5-1c-2.5-0.2-5-0.3-7.1-2c-0.2-0.2-0.4-0.3-0.7-0.4c-4.5-1.2-9.1-2.4-13.6-3.6c-1.3-0.4-2.6-0.8-3.8-1.3
					c-0.6-0.2-1.1-0.9-1.6-0.9c-3.8-0.1-6.6-2.7-10.1-3.7c-1.3-0.3-2.5-1.1-3.8-1.6c-1-0.4-2.1-1-3.1-1.2c-1.7-0.2-3.1-0.5-4.3-1.9
					c-0.5-0.6-1.5-0.7-2.3-1.1c-1.1-0.5-2.2-1-3.2-1.6c-0.4-0.2-0.8-0.7-1.2-0.9c-4.9-2.3-9.8-4.6-14.7-7c-0.9-0.4-1.5-1.3-2.3-1.8
					c-4.2-2.9-8.4-5.9-12.8-8.5c-5.1-2.9-10-6.1-14.4-9.9c-5.7-5-12.5-8.7-17.7-14.4c-7.4-7.8-15.1-15.3-22.7-22.9
					c-1.7-1.7-3.3-3.4-5.1-5c-3.7-3.3-6.1-7.5-9-11.4c-1-1.3-2.1-2.4-3.1-3.7c-4.4-5.7-8.9-11.4-12.3-17.8c-2-3.8-4.9-7.2-7.4-10.7
					c-0.1-0.2-0.4-0.3-0.5-0.6c-1.3-2.8-2.5-5.6-3.7-8.3c-0.1-0.3-0.1-0.8-0.3-1.1c-1.5-2.7-3.2-5.2-4.6-8c-1.5-3.1-2.7-6.4-4-9.6
					c-0.3-0.8-0.6-1.7-0.9-2.5c-1.9-4.2-4.2-8.2-5.1-12.7c-0.1-0.7-0.4-1.5-0.8-2.1c-1.5-1.9-1.5-4.1-2.1-6.3
					c-1-4.3-3.1-8.4-3.4-12.9c-2.3-2.7-2.3-5.9-2.4-9.2c0-1.2-0.2-2.6-0.7-3.7c-1.6-3.2-2.1-6.7-2.2-10.2c0-1.6-0.2-3.3-0.9-4.8
					c-1.8-3.9-1.9-8-2-12.2c-0.1-3.4-0.3-6.8-0.6-10.1c-0.2-2.5,0.4-3.4,3-3.7c1.2-0.1,2.5-0.1,3.8-0.1c6.8,0,13.5,0,20.3,0
					c0,0,0,0.1,0,0.1c7.4,0,14.8,0,22.2,0c3.8,0,4.1,0.4,4.6,4.3c0.4,2.9,1.1,5.7,1.5,8.5c0.5,3,1,5.9,1.2,8.9
					c0.2,2.9,0.5,5.7,1.9,8.4c0.8,1.7,1,3.9,1.2,5.8c0.2,2.1,0.2,4.3,1.8,6c0.2,0.2,0.4,0.4,0.4,0.6c0.2,4.7,2.7,8.7,3.8,13.1
					c0.4,1.4,0.9,2.8,1.4,4.2c0.4,1.2,0.9,2.3,1.4,3.4c0.6,1.4,1.2,2.7,1.8,4.1c0.2,0.4,0.8,0.9,0.7,1.3c-0.2,3.5,2.4,5.9,3.5,8.9
					c1.1,3,3,5.6,4.6,8.3c0.2,0.3,0.6,0.6,0.7,0.9c2.3,6.4,7,11.4,10.3,17.2c2.4,4.3,6.1,7.6,8.8,11.6c8.4,12.3,20,21.5,30.1,32.2
					c4.2,4.4,9,7.9,13.9,11.4c0.1,0.1,0.2,0.1,0.3,0.2c4,4.8,9.8,7.2,14.5,11c3.6,2.8,7.9,4.7,11.9,6.9c2.6,1.5,5.1,2.9,7.7,4.3
					c1.2,0.7,2.4,1.2,3.6,1.8c3.3,1.6,6.6,3.4,10,4.6c3.8,1.2,7,3.6,11.1,4.3c4.4,0.8,8.7,2.8,13,4.3c1.5,0.5,3,1,4.6,1.4
					c2.5,0.7,5,1.3,7.6,1.8c2.1,0.4,4.2,0.8,6.2,1.2c2.9,0.5,5.9,1.2,8.8,1.7c2.8,0.5,5.7,0.9,8.5,1.2c1.2,0.1,2.5,0.1,3.8,0.1
					c3.2,0.2,4.1,1.1,4.5,4.4c0.2,1.5,0.2,3,0.2,4.5c0.1,13.3,0.2,26.6,0.3,39.9c0,1.6,0.1,3.2-1.3,4.5
					C667.7,818.8,666.5,819.5,664.8,818.9z"/>
			</g>
			<g>
			</g>
		</g>
	</g>
</g>
</svg>
