<?xml version="1.0" encoding="utf-8"?>
<!-- Generator: Adobe Illustrator 21.0.0, SVG Export Plug-In . SVG Version: 6.00 Build 0)  -->
<svg version="1.1" id="Capa_1" xmlns="http://www.w3.org/2000/svg" xmlns:xlink="http://www.w3.org/1999/xlink" x="0px" y="0px"
	 viewBox="0 0 1920 1080" style="enable-background:new 0 0 1920 1080;" xml:space="preserve">
<style type="text/css">
	.st0{fill:#0CCC00;}
	.st1{fill:#FFFFFF;}
</style>
<g>
	<polygon class="st0" points="19,809 226.4,272.4 1903,272.4 1695.7,809 	"/>
</g>
<g>
	<path class="st1" d="M39.4,755.7h240.3l41.6-107.5l41.6-107.5l31.6-81.6l73.3,189l-104.9,0.2l-41.6,107.5l220.2-0.1l41.6-107.5
		l-41.6-107.5l-41.7-107.6L481.2,385c-13.8-35.8-48.2-59.3-86.6-59.3h0c-38.3,0-72.7,23.6-86.6,59.3l-18.6,48.1l-83.3,215.1H80.9
		L39.4,755.7z"/>
</g>
<g>
	<path class="st1" d="M583.1,755.6l315.5,0.1h0l0.1,0c45.9-0.1,83.1-37.3,83.1-83.2V570.1c0-46-37.3-83.2-83.2-83.2h0H624.7
		l41.6,107.6l205.4-0.1c14.9,0,26.9,12,26.9,26.9v0c0,14.8-12,26.9-26.8,26.9l-14.8,0l-232.3-0.1L583.1,755.6z"/>
</g>
<g>
	<path class="st1" d="M981.8,325.8l-315.5-0.1h0l-0.1,0c-45.9,0.1-83.1,37.3-83.1,83.2v102.4c0,46,37.3,83.2,83.2,83.2h0h273.9
		l-41.6-107.6L693.2,487c-14.9,0-26.9-12-26.9-26.9v0c0-14.8,12-26.9,26.8-26.9l14.8,0l232.3,0.1L981.8,325.8z"/>
</g>
<g>
	<path class="st1" d="M981.8,433.2l288.7,0.2c14.8,0,26.8,12,26.8,26.8v0c0,14.8-12,26.8-26.8,26.8l-207.3,0l-41.6,107.5l0,161.3
		l107-0.1l0.9-161.3h73.1l62.7,161.5l115.2-0.1L1339,648.3l-19.5-53.9h0c33.7,0,61.1-27.4,61.1-61.1V386.8
		c0-33.7-27.4-61.1-61.1-61.1h-296L981.8,433.2z"/>
</g>
<g>
	<polygon class="st1" points="1380.6,433.5 1840.5,433.5 1757.4,648.4 1463.7,648.2 	"/>
</g>
</svg>
